<svg width="224" height="115" viewBox="0 0 224 115" fill="none" xmlns="http://www.w3.org/2000/svg">
<rect width="224" height="115" fill="#E5E5E5"/>
<rect width="1440" height="1166" transform="translate(-53 -156)" fill="#FEFFFB"/>
<g filter="url(#filter0_d_0_1)">
<rect x="-28" y="-126" width="280" height="1106" rx="12" fill="white"/>
<mask id="mask0_0_1" style="mask-type:alpha" maskUnits="userSpaceOnUse" x="-28" y="-126" width="280" height="1106">
<rect x="-28" y="-126" width="280" height="1106" rx="12" fill="white"/>
</mask>
<g mask="url(#mask0_0_1)">
<rect x="0.4" y="0.4" width="222.417" height="114.2" rx="11.6" fill="url(#paint0_linear_0_1)" stroke="#7CB7A6" stroke-width="0.8"/>
<mask id="mask1_0_1" style="mask-type:alpha" maskUnits="userSpaceOnUse" x="0" y="0" width="224" height="115">
<rect width="223.217" height="115" rx="12" fill="#875CFF"/>
</mask>
<g mask="url(#mask1_0_1)">
<rect width="68.6155" height="75.5409" rx="8" transform="matrix(-0.461233 0.887279 -0.932082 -0.362249 200.646 112.236)" fill="url(#paint1_linear_0_1)"/>
<rect opacity="0.2" width="48.5933" height="50.5504" rx="5" transform="matrix(-0.657954 0.753059 -0.83721 -0.546881 190.958 107.26)" fill="url(#paint2_linear_0_1)"/>
<path opacity="0.6" d="M279.104 -8.87329C279.428 -7.93404 279.725 -6.98475 279.993 -6.02563L279.513 -5.89087C279.777 -4.94465 280.013 -3.98895 280.221 -3.02466L280.708 -3.13013C280.917 -2.16075 281.097 -1.1827 281.247 -0.196533L280.755 -0.120361C280.903 0.848777 281.022 1.82611 281.111 2.8103L281.607 2.7644C281.697 3.75003 281.758 4.7427 281.788 5.74194L281.289 5.75757C281.304 6.24941 281.312 6.74308 281.312 7.23804C281.312 7.73305 281.304 8.22661 281.289 8.71851L281.788 8.73218C281.758 9.73143 281.697 10.7241 281.607 11.7097L281.111 11.6658C281.022 12.6501 280.903 13.6272 280.755 14.5964L281.247 14.6707C281.097 15.6568 280.917 16.6349 280.708 17.6042L280.221 17.5007C280.013 18.465 279.777 19.4207 279.513 20.3669L279.993 20.5007C279.725 21.4599 279.428 22.4091 279.104 23.3484L278.633 23.1863C278.312 24.1175 277.963 25.0387 277.588 25.949L278.049 26.1384C277.67 27.0575 277.265 27.9657 276.833 28.8621L276.384 28.6462C275.957 29.5328 275.504 30.4083 275.026 31.2712L275.463 31.5125C274.982 32.3815 274.476 33.2381 273.945 34.0818L273.522 33.8162C272.999 34.6487 272.452 35.4688 271.882 36.2751L272.289 36.5632C271.716 37.3733 271.12 38.1695 270.502 38.9519L270.111 38.6433C269.502 39.4146 268.87 40.1718 268.218 40.9148L268.593 41.2439C267.939 41.989 267.263 42.7189 266.567 43.4343L266.21 43.0876C265.525 43.7924 264.82 44.4825 264.096 45.157L264.436 45.5222C263.71 46.1977 262.967 46.8587 262.205 47.5027L261.883 47.1208C261.132 47.7552 260.363 48.3738 259.577 48.9763L259.881 49.3738C259.095 49.9765 258.291 50.5628 257.472 51.1326L257.187 50.7224C256.379 51.2836 255.555 51.8284 254.717 52.3562L254.982 52.7781C254.144 53.3058 253.291 53.8169 252.423 54.3103L252.177 53.8767C251.322 54.3626 250.453 54.8317 249.57 55.283L249.797 55.7273C248.915 56.1783 248.019 56.6116 247.111 57.0271L246.904 56.573C246.01 56.9821 245.103 57.3744 244.185 57.7478L244.371 58.2097C243.454 58.5827 242.524 58.9377 241.584 59.2742L241.417 58.8044C240.491 59.1358 239.554 59.4492 238.606 59.7439L238.754 60.2205C237.808 60.5147 236.852 60.7906 235.887 61.0476L235.759 60.5652C234.808 60.8182 233.849 61.0527 232.88 61.2683L232.988 61.7566C232.022 61.9717 231.047 62.1662 230.063 62.3435L229.976 61.8533C229.008 62.0277 228.033 62.1835 227.051 62.3201L227.118 62.8142C226.138 62.9504 225.151 63.0688 224.157 63.1667L224.108 62.6697C223.13 62.766 222.145 62.8429 221.154 62.9011L221.183 63.3992C220.195 63.4572 219.201 63.4969 218.202 63.5164L218.193 63.0173C217.699 63.027 217.203 63.032 216.706 63.032C216.209 63.032 215.714 63.027 215.22 63.0173L215.21 63.5164C214.211 63.4969 213.217 63.4572 212.229 63.3992L212.259 62.9011C211.268 62.8429 210.283 62.766 209.305 62.6697L209.256 63.1667H209.255C208.261 63.0688 207.274 62.9504 206.294 62.8142L206.362 62.3201C205.38 62.1835 204.405 62.0277 203.438 61.8533L203.349 62.3435C202.365 62.1662 201.39 61.9717 200.424 61.7566H200.425L200.533 61.2683C199.565 61.0527 198.605 60.8182 197.654 60.5652L197.525 61.0476C196.56 60.7906 195.604 60.5148 194.658 60.2205L194.807 59.7439C193.859 59.4492 192.922 59.1358 191.996 58.8044L191.828 59.2742C190.887 58.9376 189.958 58.5828 189.04 58.2097L189.229 57.7478C188.31 57.3744 187.403 56.9821 186.509 56.573L186.301 57.0271C185.393 56.6116 184.497 56.1783 183.615 55.7273L183.843 55.283C182.96 54.8317 182.091 54.3626 181.236 53.8767L180.989 54.3103C180.121 53.8169 179.268 53.3058 178.43 52.7781L178.695 52.3562C177.857 51.8284 177.034 51.2836 176.227 50.7224L175.941 51.1326H175.94C175.121 50.5628 174.317 49.9765 173.531 49.3738L173.836 48.9763C173.05 48.3738 172.281 47.7553 171.53 47.1208L171.208 47.5027H171.207C170.445 46.8585 169.701 46.1979 168.976 45.5222L169.316 45.157C168.592 44.4824 167.887 43.7924 167.202 43.0876L166.845 43.4343C166.149 42.7189 165.474 41.989 164.819 41.2439L165.195 40.9148C164.543 40.1718 163.911 39.4147 163.302 38.6433L162.91 38.9519C162.292 38.1695 161.696 37.3733 161.123 36.5632L161.531 36.2751C160.961 35.4687 160.414 34.6487 159.891 33.8162L159.466 34.0828C158.935 33.239 158.43 32.3816 157.949 31.5125L158.387 31.2712C157.909 30.4083 157.456 29.5328 157.029 28.6462L156.579 28.8621C156.147 27.9657 155.742 27.0575 155.363 26.1384L155.824 25.949C155.449 25.0387 155.1 24.1175 154.779 23.1863L154.307 23.3484C153.983 22.4092 153.687 21.4597 153.419 20.5007L153.9 20.3669C153.636 19.4207 153.4 18.465 153.192 17.5007L152.704 17.6042C152.495 16.6349 152.315 15.6568 152.165 14.6707L152.658 14.5964C152.51 13.6272 152.391 12.6501 152.302 11.6658L151.804 11.7097C151.714 10.7241 151.654 9.73138 151.624 8.73218L152.124 8.71851C152.117 8.47251 152.111 8.22603 152.107 7.97925L152.102 7.23804C152.102 6.74308 152.109 6.24941 152.124 5.75757L151.624 5.74194C151.654 4.74274 151.714 3.74999 151.804 2.7644L152.302 2.8103C152.391 1.82611 152.51 0.84878 152.658 -0.120361L152.165 -0.196533C152.316 -1.18268 152.495 -2.16076 152.704 -3.13013L153.192 -3.02466C153.4 -3.98896 153.636 -4.94464 153.9 -5.89087L153.419 -6.02563C153.684 -6.97301 153.976 -7.91111 154.295 -8.83911L154.307 -8.87329L154.779 -8.71021C155.1 -9.64133 155.449 -10.5627 155.824 -11.4729L155.363 -11.6633C155.742 -12.5827 156.147 -13.4913 156.579 -14.3879L157.029 -14.1711C157.456 -15.0578 157.909 -15.9332 158.387 -16.7961L157.949 -17.0383C158.43 -17.9072 158.936 -18.7642 159.466 -19.6077L159.467 -19.6067L159.891 -19.3411C160.414 -20.1735 160.961 -20.9937 161.531 -21.8L161.123 -22.0881C161.696 -22.8984 162.292 -23.6952 162.91 -24.4778L163.302 -24.1672C163.911 -24.9386 164.543 -25.6966 165.195 -26.4397L164.819 -26.7688C165.474 -27.5139 166.148 -28.2448 166.844 -28.9602L167.202 -28.6116C167.887 -29.3163 168.592 -30.0064 169.316 -30.6809L168.976 -31.0471C169.529 -31.5631 170.094 -32.0699 170.67 -32.5676L171.208 -33.0276L171.53 -32.6448C172.281 -33.2792 173.05 -33.8987 173.836 -34.5012L173.532 -34.8977L173.531 -34.8987C174.318 -35.5016 175.122 -36.0876 175.941 -36.6575L176.227 -36.2463C177.034 -36.8075 177.857 -37.3524 178.695 -37.8801L178.43 -38.304C179.268 -38.8317 180.121 -39.3428 180.989 -39.8362L181.236 -39.4016C182.091 -39.8875 182.96 -40.3557 183.843 -40.8069L183.615 -41.2522C184.497 -41.7031 185.392 -42.1376 186.3 -42.553L186.301 -42.552L186.509 -42.0979C187.403 -42.507 188.31 -42.8983 189.229 -43.2717L189.04 -43.7346C189.958 -44.1077 190.887 -44.4625 191.828 -44.7991L191.996 -44.3293C192.922 -44.6607 193.859 -44.9731 194.807 -45.2678L194.658 -45.7454C195.604 -46.0397 196.56 -46.3155 197.525 -46.5725L197.654 -46.0901C198.605 -46.3431 199.565 -46.5776 200.533 -46.7932L200.425 -47.2815C201.391 -47.4966 202.366 -47.6922 203.349 -47.8694L203.438 -47.3782C204.405 -47.5526 205.38 -47.7084 206.362 -47.845L206.294 -48.3391C207.274 -48.4753 208.262 -48.5937 209.256 -48.6917L209.305 -48.1936C210.283 -48.29 211.268 -48.3678 212.259 -48.426L212.229 -48.9241C213.217 -48.9821 214.211 -49.0218 215.21 -49.0413L215.22 -48.5413C215.714 -48.5509 216.209 -48.5559 216.706 -48.5559C217.203 -48.5559 217.699 -48.5509 218.193 -48.5413L218.202 -49.0413C219.201 -49.0218 220.195 -48.9821 221.183 -48.9241L221.154 -48.426C222.145 -48.3678 223.13 -48.29 224.108 -48.1936L224.156 -48.6917C225.151 -48.5937 226.138 -48.4753 227.118 -48.3391L227.051 -47.845C228.033 -47.7084 229.008 -47.5526 229.976 -47.3782L230.063 -47.8694C231.046 -47.6922 232.021 -47.4966 232.987 -47.2815L232.88 -46.7932C233.849 -46.5776 234.808 -46.3431 235.759 -46.0901L235.887 -46.5725C236.852 -46.3155 237.808 -46.0396 238.754 -45.7454L238.606 -45.2678C239.554 -44.9731 240.491 -44.6607 241.417 -44.3293L241.584 -44.7991C242.524 -44.4626 243.454 -44.1076 244.371 -43.7346L244.185 -43.2717C245.103 -42.8983 246.01 -42.507 246.904 -42.0979L247.112 -42.552V-42.553C248.02 -42.1376 248.915 -41.7031 249.797 -41.2522H249.798L249.57 -40.8069C250.453 -40.3557 251.322 -39.8874 252.177 -39.4016L252.423 -39.8362C253.291 -39.3428 254.144 -38.8317 254.982 -38.304H254.983L254.717 -37.8801C255.555 -37.3523 256.379 -36.8076 257.187 -36.2463L257.471 -36.6575C258.29 -36.0876 259.094 -35.5016 259.881 -34.8987V-34.8977L259.577 -34.5012C260.363 -33.8987 261.132 -33.2792 261.883 -32.6448L262.204 -33.0276C262.967 -32.3834 263.71 -31.7228 264.436 -31.0471L264.096 -30.6809C264.82 -30.0063 265.525 -29.3164 266.21 -28.6116L266.567 -28.9602C267.263 -28.2446 267.938 -27.5141 268.593 -26.7688L268.218 -26.4397C268.87 -25.6966 269.502 -24.9386 270.111 -24.1672L270.502 -24.4778C271.12 -23.6952 271.716 -22.8984 272.289 -22.0881L271.882 -21.8C272.452 -20.9937 272.999 -20.1736 273.522 -19.3411L273.945 -19.6067C274.476 -18.7633 274.982 -17.9071 275.463 -17.0383L275.026 -16.7961C275.504 -15.9332 275.957 -15.0578 276.384 -14.1711L276.833 -14.3879C277.265 -13.4913 277.67 -12.5827 278.049 -11.6633L277.588 -11.4729C277.963 -10.5627 278.312 -9.64143 278.633 -8.71021L279.104 -8.87329Z" stroke="#7CB7A6" stroke-dasharray="3 3"/>
<path opacity="0.6" d="M209.844 -45.8245C210.852 -45.806 211.854 -45.7702 212.85 -45.7151L212.823 -45.2151C213.822 -45.16 214.816 -45.0868 215.803 -44.9954L215.848 -45.4925C216.851 -45.3996 217.848 -45.2887 218.837 -45.1595L218.774 -44.6644C219.767 -44.5347 220.753 -44.3867 221.732 -44.221L221.815 -44.7132C222.808 -44.545 223.794 -44.3588 224.772 -44.1546L224.67 -43.6653C225.65 -43.4607 226.622 -43.2385 227.585 -42.9984L227.706 -43.4827C228.683 -43.239 229.651 -42.9777 230.61 -42.6985L230.471 -42.2181C231.432 -41.9384 232.383 -41.6411 233.324 -41.3265L233.481 -41.8001C234.436 -41.4809 235.381 -41.1453 236.315 -40.7913L236.138 -40.3235C237.073 -39.9691 237.998 -39.5969 238.911 -39.2083L239.105 -39.6683C240.031 -39.2741 240.946 -38.8631 241.848 -38.4349L241.635 -37.9827C242.538 -37.5542 243.429 -37.1086 244.307 -36.6468L244.539 -37.0901C245.43 -36.6213 246.308 -36.1351 247.172 -35.6331L246.922 -35.2015C247.787 -34.6995 248.638 -34.181 249.474 -33.6468L249.742 -34.0677C250.59 -33.5257 251.424 -32.9678 252.243 -32.3939L251.957 -31.9847C252.775 -31.4109 253.577 -30.8209 254.364 -30.2161L254.667 -30.6126C255.466 -29.999 256.248 -29.3701 257.012 -28.7259L256.691 -28.3441C257.455 -27.7005 258.201 -27.0416 258.93 -26.3685L259.268 -26.7357C260.007 -26.053 260.728 -25.3556 261.43 -24.6439L261.076 -24.2923C261.777 -23.5818 262.458 -22.857 263.121 -22.1185L263.492 -22.4525C264.163 -21.7038 264.814 -20.9405 265.445 -20.1644L265.059 -19.8489C265.688 -19.0752 266.296 -18.2876 266.882 -17.4876L267.285 -17.7835C267.879 -16.9732 268.451 -16.1497 269.001 -15.3138L268.585 -15.0384C269.133 -14.2064 269.659 -13.3623 270.161 -12.5062L270.59 -12.7581C271.098 -11.8919 271.583 -11.014 272.043 -10.1243L271.6 -9.89484C272.057 -9.01141 272.49 -8.11658 272.898 -7.21124L273.352 -7.41632C273.764 -6.50173 274.152 -5.57657 274.513 -4.64093L274.048 -4.46124C274.406 -3.53476 274.738 -2.59762 275.044 -1.65167L275.518 -1.80597C275.826 -0.85265 276.109 0.109963 276.364 1.08173L275.881 1.2077C276.133 2.16667 276.358 3.13522 276.555 4.11102L277.043 4.01141C277.242 4.99145 277.412 5.97958 277.555 6.97528L277.062 7.04657C277.203 8.02607 277.316 9.0129 277.401 10.0065L277.897 9.96356C277.982 10.9581 278.04 11.9591 278.069 12.9665L277.57 12.9811C277.584 13.4777 277.591 13.9758 277.591 14.4753C277.591 14.9747 277.584 15.4729 277.57 15.9694L278.069 15.9831C278.04 16.9904 277.982 17.9915 277.897 18.986L277.401 18.944C277.316 19.9377 277.203 20.9254 277.062 21.905L277.555 21.9743C277.412 22.97 277.242 23.9581 277.043 24.9382L276.555 24.8405C276.358 25.8163 276.133 26.7839 275.881 27.7429L276.364 27.8688C276.109 28.8403 275.826 29.8025 275.518 30.7556L275.044 30.6032C274.738 31.5491 274.406 32.4854 274.048 33.4118L274.513 33.5915C274.152 34.5267 273.765 35.4517 273.353 36.3659L272.898 36.1618C272.49 37.0672 272.057 37.9619 271.6 38.8454L272.042 39.0749C271.582 39.9644 271.098 40.8425 270.59 41.7087L270.161 41.4567C269.659 42.313 269.133 43.1579 268.585 43.9899L269.002 44.2634C268.452 45.0996 267.879 45.9234 267.285 46.7341L266.882 46.4391C266.296 47.2391 265.688 48.0267 265.059 48.8005L265.445 49.1149C264.814 49.8909 264.163 50.6535 263.492 51.402L263.121 51.069C262.458 51.8076 261.777 52.5333 261.076 53.2438L261.43 53.5934C260.728 54.3052 260.007 55.0026 259.268 55.6852L258.93 55.319C258.201 55.9921 257.455 56.6511 256.691 57.2946L257.012 57.6765C256.248 58.3207 255.466 58.9496 254.667 59.5632L254.364 59.1677C253.577 59.7723 252.775 60.3616 251.957 60.9352L252.243 61.3434C251.424 61.9175 250.59 62.4761 249.742 63.0182L249.474 62.5974C248.638 63.1316 247.787 63.65 246.922 64.152L247.172 64.5827C246.308 65.0847 245.43 65.5708 244.539 66.0397L244.307 65.5983C243.429 66.0602 242.538 66.5057 241.635 66.9343L241.848 67.3845C240.946 67.8127 240.031 68.2246 239.105 68.6188L238.911 68.1599C237.998 68.5484 237.073 68.9197 236.138 69.2741L236.316 69.7419C235.382 70.096 234.436 70.4314 233.481 70.7507L233.324 70.278C232.383 70.5926 231.432 70.89 230.471 71.1696L230.61 71.6481C229.651 71.9273 228.683 72.1886 227.706 72.4323L227.585 71.9489C226.623 72.1891 225.651 72.4123 224.671 72.6169L224.772 73.1052C223.794 73.3094 222.808 73.4946 221.815 73.6628L221.732 73.1716C220.753 73.3373 219.767 73.4853 218.774 73.6149L218.837 74.11C217.848 74.2393 216.851 74.3502 215.848 74.4431L215.803 73.947C214.816 74.0384 213.822 74.1115 212.823 74.1667L212.85 74.6647C211.854 74.7198 210.852 74.7556 209.844 74.7741L209.836 74.2761C209.338 74.2852 208.837 74.2897 208.335 74.2897C207.834 74.2897 207.334 74.2852 206.835 74.2761L206.827 74.7741C205.819 74.7556 204.817 74.7198 203.821 74.6647L203.848 74.1667C202.849 74.1115 201.856 74.0384 200.869 73.947L200.823 74.4431C199.82 74.3502 198.823 74.2393 197.833 74.11L197.898 73.6149C196.905 73.4852 195.918 73.3373 194.939 73.1716L194.856 73.6628C193.863 73.4946 192.877 73.3094 191.899 73.1052L192 72.6169C191.021 72.4123 190.049 72.1891 189.086 71.9489L188.965 72.4323C187.988 72.1886 187.02 71.9273 186.061 71.6481L186.201 71.1696C185.24 70.89 184.289 70.5926 183.348 70.278L183.189 70.7507C182.234 70.4315 181.289 70.0959 180.355 69.7419L180.533 69.2741C179.598 68.9198 178.674 68.5483 177.761 68.1599L177.565 68.6179C176.639 68.2236 175.724 67.8127 174.822 67.3845L175.037 66.9343C174.134 66.5057 173.243 66.0602 172.365 65.5983L172.132 66.0397C171.241 65.5708 170.363 65.0847 169.499 64.5827L169.75 64.152C168.885 63.65 168.034 63.1316 167.198 62.5974L166.928 63.0173C166.08 62.4754 165.246 61.9173 164.428 61.3434L164.715 60.9352C163.897 60.3615 163.094 59.7724 162.307 59.1677L162.002 59.5632C161.205 58.9497 160.423 58.3205 159.659 57.6765L159.981 57.2946C159.217 56.6511 158.47 55.9922 157.742 55.319L157.403 55.6852C156.664 55.0026 155.943 54.3052 155.241 53.5934L155.596 53.2438C154.895 52.5333 154.214 51.8076 153.551 51.069L153.179 51.402C152.508 50.6534 151.856 49.8911 151.225 49.1149L151.613 48.8005C150.984 48.0266 150.375 47.2392 149.789 46.4391L149.386 46.7331C148.792 45.9226 148.219 45.0994 147.668 44.2634L148.086 43.9899C147.539 43.1579 147.013 42.313 146.511 41.4567L146.08 41.7087C145.572 40.8427 145.088 39.9643 144.628 39.0749L145.072 38.8454C144.615 37.9619 144.181 37.0672 143.773 36.1618L143.318 36.3659C142.906 35.4517 142.519 34.5267 142.158 33.5915L142.624 33.4118C142.266 32.4854 141.933 31.5491 141.627 30.6032L141.153 30.7556C140.845 29.8025 140.562 28.8403 140.307 27.8688L140.791 27.7429C140.539 26.7839 140.314 25.8163 140.117 24.8405L139.627 24.9382C139.429 23.9581 139.259 22.97 139.116 21.9743L139.61 21.905C139.469 20.9254 139.356 19.9377 139.271 18.944L138.773 18.986C138.688 17.9919 138.63 16.9911 138.601 15.9841L139.102 15.9694C139.095 15.7211 139.089 15.4724 139.085 15.2233L139.081 14.4753C139.081 13.9758 139.088 13.4777 139.102 12.9811L138.602 12.9675L138.601 12.9665C138.624 12.1745 138.665 11.3864 138.722 10.6022L138.773 9.96356L139.271 10.0065C139.356 9.01289 139.469 8.02608 139.61 7.04657L139.116 6.97528C139.259 5.97959 139.429 4.99144 139.627 4.01141L140.117 4.11102C140.314 3.13521 140.539 2.16667 140.791 1.2077L140.307 1.08173C140.562 0.109974 140.844 -0.852662 141.153 -1.80597L141.627 -1.65167C141.933 -2.59762 142.266 -3.53476 142.624 -4.46124L142.158 -4.64093C142.519 -5.57656 142.907 -6.50173 143.319 -7.41632L143.773 -7.21124C144.181 -8.11667 144.615 -9.01132 145.072 -9.89484L144.627 -10.1243C145.088 -11.0141 145.572 -11.8927 146.08 -12.7591L146.511 -12.5062C147.013 -13.3623 147.539 -14.2064 148.086 -15.0384L147.669 -15.3138C148.22 -16.1497 148.792 -16.9732 149.386 -17.7835L149.789 -17.4876C150.375 -18.2876 150.984 -19.0751 151.613 -19.8489L151.225 -20.1644C151.856 -20.9407 152.508 -21.7036 153.179 -22.4525L153.551 -22.1185C154.214 -22.857 154.895 -23.5818 155.596 -24.2923L155.241 -24.6439C155.943 -25.3556 156.664 -26.053 157.403 -26.7357L157.742 -26.3685C158.47 -27.0416 159.217 -27.7005 159.981 -28.3441L159.659 -28.7259C160.423 -29.37 161.205 -29.9992 162.002 -30.6126L162.307 -30.2161C163.094 -30.8209 163.897 -31.4109 164.715 -31.9847L164.428 -32.3939C165.246 -32.9676 166.08 -33.5249 166.928 -34.0667L167.198 -33.6468C168.034 -34.181 168.885 -34.6995 169.75 -35.2015L169.499 -35.6331C170.363 -36.1351 171.241 -36.6213 172.132 -37.0901L172.365 -36.6468C173.243 -37.1086 174.134 -37.5542 175.037 -37.9827L174.822 -38.4339C175.724 -38.8622 176.639 -39.274 177.565 -39.6683L177.761 -39.2083C178.674 -39.5969 179.598 -39.9692 180.533 -40.3235L180.356 -40.7913C181.29 -41.1452 182.234 -41.481 183.189 -41.8001L183.348 -41.3265C184.289 -41.6411 185.24 -41.9384 186.201 -42.2181L186.061 -42.6985C187.02 -42.9778 187.988 -43.239 188.965 -43.4827L189.086 -42.9984C190.049 -43.2385 191.021 -43.4607 192 -43.6653L191.899 -44.1546C192.877 -44.3588 193.863 -44.545 194.856 -44.7132L194.939 -44.221C195.918 -44.3867 196.905 -44.5347 197.898 -44.6644L197.833 -45.1595C198.823 -45.2887 199.82 -45.3996 200.823 -45.4925L200.869 -44.9954C201.856 -45.0868 202.849 -45.16 203.848 -45.2151L203.821 -45.7151C204.817 -45.7702 205.819 -45.806 206.827 -45.8245L206.835 -45.3255C207.334 -45.3347 207.834 -45.3392 208.335 -45.3392C208.837 -45.3392 209.338 -45.3347 209.836 -45.3255L209.844 -45.8245Z" stroke="#7CB7A6" stroke-dasharray="3 3"/>
<path opacity="0.6" d="M275.234 11.9689C275.423 12.9583 275.585 13.9551 275.721 14.9592H275.722L275.227 15.0266C275.361 16.0149 275.468 17.0102 275.549 18.0119L276.045 17.9719C276.126 18.9742 276.182 19.9828 276.209 20.9973L275.71 21.0109C275.724 21.5117 275.731 22.0142 275.731 22.5178C275.731 23.0211 275.724 23.5231 275.71 24.0236L276.209 24.0363C276.182 25.0508 276.126 26.0593 276.045 27.0617L275.549 27.0226C275.468 28.0244 275.361 29.0205 275.227 30.009L275.721 30.0744C275.585 31.0787 275.423 32.076 275.234 33.0656L274.745 32.9728C274.557 33.9585 274.342 34.9365 274.102 35.9064L274.586 36.0256C274.344 37.0081 274.075 37.9821 273.781 38.9474L273.304 38.8029C273.012 39.7617 272.695 40.7119 272.353 41.6525L272.821 41.8224C272.476 42.7722 272.106 43.7126 271.712 44.6428L271.253 44.4484C270.863 45.3705 270.448 46.283 270.01 47.1848L270.458 47.4025C270.018 48.3105 269.553 49.2077 269.066 50.0939L268.629 49.8547C268.147 50.7316 267.643 51.5978 267.117 52.4523L267.542 52.7131C267.013 53.5718 266.462 54.4191 265.89 55.2541L265.478 54.9728C264.913 55.798 264.327 56.6115 263.72 57.4123L264.118 57.7131C263.509 58.5164 262.881 59.3073 262.233 60.0851L261.849 59.7668C261.209 60.5349 260.55 61.2903 259.872 62.0324L260.24 62.3683C259.56 63.1123 258.861 63.8429 258.145 64.5598L257.792 64.2072C257.086 64.9145 256.361 65.6085 255.62 66.2883L255.957 66.6555C255.214 67.3362 254.454 68.0032 253.678 68.6555L253.357 68.2736C252.591 68.9171 251.81 69.5467 251.012 70.1613L251.317 70.5558C250.519 71.1709 249.706 71.7713 248.877 72.3566L248.589 71.9494C247.772 72.5268 246.941 73.0896 246.095 73.6369L246.366 74.0558C245.521 74.6026 244.662 75.1336 243.79 75.6496L243.536 75.2209C242.675 75.73 241.802 76.2243 240.916 76.7023L241.153 77.1418C240.267 77.6197 239.368 78.0805 238.458 78.5266L238.238 78.0793C237.34 78.5193 236.43 78.9437 235.509 79.3517L235.711 79.8088C234.791 80.2167 233.859 80.6073 232.917 80.9826L232.732 80.5197C231.802 80.8899 230.862 81.2438 229.913 81.5812L230.079 82.051C229.13 82.388 228.171 82.7082 227.203 83.0119L227.054 82.5363C226.1 82.8357 225.136 83.119 224.164 83.3849L224.294 83.8654C223.325 84.1308 222.346 84.381 221.36 84.6125L221.246 84.1262C220.272 84.3546 219.29 84.5664 218.301 84.7609L218.397 85.2502C217.41 85.4444 216.415 85.6206 215.413 85.7805L215.334 85.2892C214.346 85.4469 213.352 85.5878 212.35 85.7111L212.41 86.2053C211.41 86.3283 210.405 86.4353 209.393 86.5236L209.35 86.0266C208.355 86.1135 207.354 86.1831 206.347 86.2355L206.372 86.7336C205.368 86.7859 204.359 86.8205 203.345 86.8381L203.337 86.34C202.835 86.3487 202.33 86.3527 201.825 86.3527C201.32 86.3527 200.816 86.3487 200.313 86.34L200.304 86.8381C199.29 86.8205 198.281 86.7859 197.277 86.7336L197.303 86.2355C196.297 86.1831 195.296 86.1135 194.3 86.0266L194.256 86.5236C193.244 86.4352 192.238 86.3284 191.239 86.2053L191.3 85.7111C190.299 85.5878 189.303 85.4469 188.315 85.2892L188.237 85.7814C187.235 85.6216 186.24 85.4444 185.252 85.2502L185.349 84.7609C184.36 84.5664 183.378 84.3546 182.405 84.1262L182.291 84.6125C181.303 84.3808 180.324 84.1309 179.354 83.8654L179.487 83.3849C178.515 83.119 177.551 82.8357 176.596 82.5363L176.447 83.0129C175.479 82.7091 174.52 82.3881 173.571 82.051L173.738 81.5812C172.788 81.2438 171.847 80.8899 170.917 80.5197L170.733 80.9826C169.791 80.6073 168.859 80.2167 167.938 79.8088L168.141 79.3517C167.22 78.9436 166.31 78.5194 165.412 78.0793L165.192 78.5266C164.282 78.0804 163.382 77.6197 162.497 77.1418L162.735 76.7023C161.849 76.2242 160.974 75.73 160.114 75.2209L159.86 75.6496C158.988 75.1336 158.129 74.6026 157.284 74.0558L157.555 73.6369C156.709 73.0895 155.877 72.5268 155.06 71.9494L154.772 72.3566C153.944 71.7713 153.13 71.1709 152.333 70.5558L152.638 70.1613C151.841 69.5466 151.058 68.9172 150.292 68.2736L149.971 68.6555C149.195 68.0032 148.436 67.3362 147.693 66.6555L148.031 66.2883C147.289 65.6084 146.564 64.9146 145.857 64.2072L145.503 64.5598C144.787 63.843 144.089 63.1122 143.41 62.3683L143.779 62.0324C143.101 61.2902 142.44 60.535 141.8 59.7668L141.417 60.0851C140.768 59.3072 140.139 58.5165 139.531 57.7131L139.93 57.4123C139.324 56.6114 138.737 55.798 138.171 54.9728L137.759 55.2541C137.187 54.4191 136.637 53.5718 136.108 52.7131L136.534 52.4523C136.007 51.5979 135.503 50.7316 135.021 49.8547L134.583 50.0939C134.096 49.2075 133.631 48.3107 133.19 47.4025L133.64 47.1848C133.202 46.283 132.788 45.3706 132.397 44.4484L131.936 44.6437C131.542 43.7133 131.173 42.7725 130.828 41.8224L131.297 41.6525C130.956 40.7119 130.638 39.7617 130.346 38.8029L129.869 38.9474C129.575 37.9821 129.306 37.0081 129.063 36.0256L129.548 35.9064C129.309 34.9365 129.094 33.9585 128.906 32.9728L128.415 33.0656C128.226 32.076 128.064 31.0787 127.928 30.0744L128.423 30.009C128.29 29.0205 128.182 28.0244 128.101 27.0226L127.603 27.0617C127.522 26.0594 127.467 25.0508 127.44 24.0363L127.94 24.0236C127.933 23.7733 127.928 23.5227 127.924 23.2717L127.919 22.5178C127.919 22.0142 127.927 21.5117 127.94 21.0109L127.44 20.9973C127.467 19.9828 127.522 18.9742 127.603 17.9719L128.101 18.0119C128.182 17.0102 128.29 16.0149 128.423 15.0266L127.928 14.9592C128.03 14.2088 128.146 13.4622 128.277 12.7199L128.415 11.9689L128.906 12.0627C129.094 11.0769 129.309 10.0982 129.548 9.12811L129.063 9.008C129.306 8.02583 129.575 7.05209 129.869 6.0871L130.346 6.2326C130.638 5.27378 130.956 4.32369 131.297 3.383L130.828 3.2121C131.173 2.26182 131.542 1.32054 131.936 0.389832L131.937 0.390808L132.397 0.586121C132.788 -0.33598 133.202 -1.24848 133.64 -2.15021L133.19 -2.36798C133.631 -3.27637 134.096 -4.17374 134.583 -5.06036L135.021 -4.81915C135.503 -5.69613 136.007 -6.56228 136.534 -7.41681L136.109 -7.6795C136.638 -8.53809 137.187 -9.38566 137.759 -10.2205L138.171 -9.93732C138.737 -10.7625 139.324 -11.5759 139.93 -12.3768L139.531 -12.6785C140.139 -13.4824 140.769 -14.2733 141.417 -15.0516L141.8 -14.7313C142.44 -15.4995 143.101 -16.2556 143.779 -16.9979L143.41 -17.3348C144.089 -18.0784 144.786 -18.8096 145.502 -19.5262L145.503 -19.5252L145.857 -19.1727C146.564 -19.8801 147.289 -20.5739 148.031 -21.2537L147.693 -21.6209C148.436 -22.3018 149.195 -22.9695 149.971 -23.6219L150.292 -23.2391C151.058 -23.8826 151.841 -24.5111 152.638 -25.1258L152.333 -25.5223C153.131 -26.1374 153.945 -26.7368 154.773 -27.3221L155.06 -26.9149C155.877 -27.4923 156.709 -28.055 157.555 -28.6024L157.284 -29.0213L157.283 -29.0223C158.128 -29.5692 158.987 -30.0999 159.86 -30.616L160.114 -30.1863C160.974 -30.6955 161.849 -31.1887 162.735 -31.6668L162.498 -32.1072L162.497 -32.1082C163.382 -32.5861 164.282 -33.0469 165.192 -33.493L165.412 -33.0438C166.31 -33.4839 167.22 -33.909 168.141 -34.3172L167.939 -34.7742L167.938 -34.7752C168.858 -35.183 169.791 -35.5728 170.733 -35.9481L170.917 -35.4842C171.847 -35.8544 172.788 -36.2083 173.738 -36.5457L173.571 -37.0174C174.52 -37.3545 175.479 -37.6746 176.447 -37.9783L176.596 -37.5018C177.551 -37.8012 178.515 -38.0844 179.487 -38.3504L179.354 -38.8318C180.324 -39.0973 181.303 -39.3463 182.291 -39.5779L182.405 -39.0916C183.378 -39.32 184.36 -39.5309 185.349 -39.7254L185.252 -40.2156C186.24 -40.4099 187.235 -40.587 188.237 -40.7469L188.315 -40.2537C189.303 -40.4114 190.299 -40.5522 191.3 -40.6756L191.239 -41.1717C192.238 -41.2948 193.244 -41.4017 194.255 -41.4901L194.256 -41.4891L194.3 -40.991C195.296 -41.078 196.297 -41.1485 197.303 -41.201L197.277 -41.699C198.281 -41.7514 199.29 -41.7869 200.304 -41.8045L200.313 -41.3055C200.816 -41.3142 201.32 -41.3182 201.825 -41.3182C202.33 -41.3182 202.835 -41.3142 203.337 -41.3055L203.345 -41.8045C204.359 -41.7869 205.368 -41.7513 206.372 -41.699L206.347 -41.201C207.354 -41.1485 208.355 -41.078 209.35 -40.991L209.394 -41.4891V-41.4901C210.405 -41.4017 211.411 -41.2947 212.41 -41.1717L212.35 -40.6756C213.352 -40.5523 214.346 -40.4114 215.334 -40.2537L215.413 -40.7469C216.415 -40.587 217.409 -40.4099 218.397 -40.2156L218.301 -39.7254C219.29 -39.5309 220.272 -39.32 221.246 -39.0916L221.359 -39.5779C222.346 -39.3464 223.324 -39.0972 224.294 -38.8318L224.164 -38.3504C225.136 -38.0844 226.1 -37.8012 227.054 -37.5018L227.203 -37.9783C228.171 -37.6746 229.13 -37.3544 230.079 -37.0174L229.913 -36.5457C230.862 -36.2083 231.802 -35.8544 232.732 -35.4842L232.917 -35.9481C233.859 -35.5729 234.791 -35.183 235.711 -34.7752V-34.7742L235.509 -34.3172C236.43 -33.9091 237.34 -33.4848 238.238 -33.0447L238.458 -33.492C239.368 -33.046 240.267 -32.586 241.153 -32.1082V-32.1072L240.916 -31.6668C241.802 -31.1888 242.675 -30.6954 243.536 -30.1863L243.79 -30.616C244.662 -30.0999 245.522 -29.5692 246.367 -29.0223V-29.0213L246.095 -28.6024C246.941 -28.0551 247.772 -27.4922 248.589 -26.9149L248.876 -27.3221C249.705 -26.7368 250.519 -26.1374 251.317 -25.5223L251.012 -25.1258C251.809 -24.5113 252.591 -23.8824 253.357 -23.2391L253.678 -23.6219C254.455 -22.9695 255.214 -22.3018 255.957 -21.6209L255.62 -21.2537C256.361 -20.574 257.086 -19.88 257.792 -19.1727L258.145 -19.5262C258.861 -18.8093 259.56 -18.0788 260.24 -17.3348L259.872 -16.9979C260.55 -16.2556 261.209 -15.4995 261.849 -14.7313L262.232 -15.0506C262.88 -14.2726 263.509 -13.482 264.118 -12.6785L263.72 -12.3768C264.327 -11.5759 264.913 -10.7625 265.478 -9.93732L265.89 -10.2205C266.462 -9.38566 267.012 -8.5381 267.541 -7.6795L267.117 -7.41681C267.643 -6.56233 268.147 -5.69607 268.629 -4.81915L269.066 -5.06036C269.553 -4.17386 270.017 -3.27625 270.458 -2.36798L270.01 -2.15021C270.448 -1.24844 270.863 -0.336022 271.253 0.586121L271.712 0.390808C272.107 1.32126 272.476 2.26208 272.821 3.2121L272.353 3.383C272.695 4.32365 273.012 5.27383 273.304 6.2326L273.781 6.0871C274.075 7.0521 274.344 8.02582 274.586 9.008L274.102 9.12811C274.342 10.0982 274.557 11.0769 274.745 12.0627L275.234 11.9689Z" stroke="#7CB7A6" stroke-dasharray="3 3"/>
<path opacity="0.6" d="M260.228 -42.5325C261.069 -42.012 261.894 -41.4734 262.702 -40.9172L262.419 -40.5051C263.227 -39.949 264.019 -39.3751 264.792 -38.7844L265.094 -39.1819V-39.1829C265.88 -38.5825 266.647 -37.9638 267.395 -37.3293H267.396L267.073 -36.9475C267.82 -36.3138 268.549 -35.6638 269.257 -34.9973L269.599 -35.3616C270.319 -34.6842 271.019 -33.9911 271.698 -33.2815V-33.2805L271.336 -32.9358C272.013 -32.2278 272.668 -31.5036 273.301 -30.7649L273.68 -31.0901C274.323 -30.3396 274.944 -29.5737 275.541 -28.7932L275.144 -28.4895C275.738 -27.7125 276.309 -26.9209 276.855 -26.1155L277.268 -26.3958C277.822 -25.5786 278.351 -24.7473 278.854 -23.9026L278.426 -23.6467C278.926 -22.8076 279.4 -21.9549 279.847 -21.0901L280.29 -21.3196C280.742 -20.4439 281.169 -19.5559 281.567 -18.6555H281.568L281.111 -18.4534C281.505 -17.5617 281.871 -16.6578 282.208 -15.7434L282.676 -15.9172C283.017 -14.9935 283.33 -14.0588 283.613 -13.1135L283.134 -12.9709C283.413 -12.039 283.662 -11.0962 283.881 -10.1448L284.367 -10.2571C284.587 -9.30005 284.777 -8.33373 284.936 -7.35864H284.937L284.444 -7.27856C284.6 -6.32105 284.725 -5.35472 284.82 -4.3811L285.316 -4.42896C285.411 -3.45353 285.475 -2.47064 285.507 -1.48071L285.008 -1.46509C285.024 -0.978487 285.032 -0.490147 285.032 -0.000244141C285.032 0.489583 285.024 0.978073 285.008 1.4646L285.507 1.48022C285.475 2.47015 285.411 3.45304 285.316 4.42847L284.82 4.38062C284.725 5.35428 284.6 6.32052 284.444 7.27808L284.936 7.35718C284.777 8.33259 284.587 9.29924 284.367 10.2566L283.881 10.1453C283.662 11.0966 283.413 12.0386 283.134 12.9705L283.613 13.113C283.33 14.0581 283.017 14.9923 282.676 15.9158L282.208 15.7439C281.871 16.6581 281.505 17.5614 281.111 18.4529L281.567 18.6541C281.169 19.5547 280.743 20.4432 280.29 21.3191L279.847 21.0906C279.4 21.9552 278.926 22.8073 278.426 23.6462L278.854 23.9011C278.351 24.7458 277.822 25.5771 277.268 26.3943L276.855 26.115C276.309 26.9205 275.738 27.7129 275.144 28.49L275.541 28.7927C274.944 29.5731 274.323 30.3383 273.68 31.0886L273.301 30.7644C272.668 31.5032 272.013 32.2273 271.336 32.9353L271.698 33.281C271.02 33.9905 270.319 34.6829 269.599 35.3601L269.257 34.9968C268.549 35.6633 267.82 36.3143 267.073 36.948L267.395 37.3279C266.646 37.9625 265.879 38.5809 265.093 39.1814L264.792 38.7849C264.019 39.3756 263.227 39.9495 262.419 40.5056L262.702 40.9158C261.894 41.4721 261.069 42.0114 260.228 42.532L259.965 42.1082C259.138 42.6202 258.295 43.1146 257.437 43.5906L257.68 44.0271C256.822 44.5031 255.949 44.9603 255.062 45.3992L254.841 44.9519C253.969 45.3835 253.082 45.7969 252.183 46.1912L252.383 46.6482C251.485 47.042 250.574 47.4166 249.651 47.7722L249.472 47.3064C248.564 47.6562 247.644 47.9872 246.712 48.2986L246.87 48.7722C245.939 49.0832 244.998 49.3745 244.046 49.6462L243.911 49.1667C242.975 49.4339 242.028 49.682 241.073 49.9099L241.188 50.3943C240.234 50.6217 239.271 50.8289 238.299 51.0164L238.206 50.5271C237.25 50.7114 236.286 50.8768 235.314 51.0212L235.386 51.5144C234.417 51.6584 233.44 51.7819 232.456 51.8855L232.404 51.3904C231.436 51.4922 230.461 51.574 229.48 51.6355L229.51 52.1326C228.532 52.1938 227.548 52.236 226.558 52.2566L226.548 51.7576C226.059 51.7677 225.568 51.7732 225.077 51.7732C224.585 51.7732 224.094 51.7677 223.605 51.7576L223.595 52.2566C222.605 52.236 221.621 52.1939 220.643 52.1326L220.674 51.6355C219.693 51.574 218.718 51.4922 217.75 51.3904L217.698 51.8855C216.713 51.7819 215.736 51.6584 214.767 51.5144L214.84 51.0212C213.868 50.8768 212.904 50.7114 211.949 50.5271L211.854 51.0173C210.882 50.8298 209.919 50.6217 208.965 50.3943L209.082 49.9099C208.126 49.682 207.179 49.4339 206.244 49.1667L206.106 49.6453C205.155 49.3736 204.213 49.083 203.284 48.7722L203.442 48.2986C202.511 47.9872 201.59 47.6562 200.682 47.3064L200.502 47.7722C199.579 47.4166 198.668 47.042 197.77 46.6482L197.97 46.1912C197.071 45.7969 196.185 45.3835 195.313 44.9519L195.091 45.3992C194.204 44.9602 193.331 44.5031 192.473 44.0271H192.474L192.717 43.5906C191.859 43.1145 191.015 42.6203 190.188 42.1082L189.925 42.532C189.084 42.0114 188.26 41.4721 187.452 40.9158L187.735 40.5056C186.927 39.9495 186.136 39.3756 185.363 38.7849L185.059 39.1814C184.273 38.581 183.507 37.9623 182.758 37.3279L183.082 36.948C182.334 36.3143 181.605 35.6633 180.897 34.9968L180.554 35.3601C179.834 34.6829 179.134 33.9905 178.456 33.281L178.818 32.9353C178.141 32.2272 177.485 31.5032 176.852 30.7644L176.473 31.0886C175.83 30.3383 175.21 29.5731 174.613 28.7927L175.01 28.49C174.416 27.7128 173.844 26.9205 173.298 26.115L172.885 26.3943C172.331 25.577 171.802 24.746 171.298 23.9011L171.728 23.6462C171.228 22.8073 170.754 21.9552 170.307 21.0906L169.864 21.3191C169.411 20.4432 168.984 19.5547 168.586 18.6541L169.043 18.4529C168.649 17.5614 168.283 16.6581 167.946 15.7439L167.477 15.9158C167.136 14.9923 166.823 14.058 166.541 13.113L167.02 12.9705C166.742 12.0386 166.492 11.0966 166.273 10.1453L165.787 10.2566C165.566 9.29926 165.376 8.33258 165.217 7.35718L165.71 7.27808C165.554 6.32052 165.429 5.35428 165.334 4.38062L164.837 4.42847C164.743 3.45306 164.678 2.47013 164.646 1.48022L165.146 1.4646C165.138 1.22153 165.132 0.978035 165.128 0.734131L165.123 -0.000244141C165.123 -0.490139 165.13 -0.978495 165.146 -1.46509L164.646 -1.48071C164.678 -2.47062 164.743 -3.45355 164.837 -4.42896L165.334 -4.3811C165.429 -5.35471 165.554 -6.32106 165.71 -7.27856L165.217 -7.35864C165.376 -8.33371 165.566 -9.30006 165.787 -10.2571L166.273 -10.1448C166.492 -11.0962 166.742 -12.039 167.02 -12.9709L166.541 -13.1135C166.823 -14.0588 167.136 -14.9935 167.477 -15.9172L167.946 -15.7434C168.283 -16.6578 168.649 -17.5617 169.043 -18.4534L168.586 -18.6555C168.984 -19.5559 169.411 -20.4439 169.864 -21.3196L170.307 -21.0901C170.754 -21.9549 171.228 -22.8076 171.728 -23.6467L171.298 -23.9026C171.802 -24.7474 172.331 -25.5785 172.885 -26.3958L173.298 -26.1155C173.844 -26.921 174.416 -27.7124 175.01 -28.4895L174.613 -28.7932C175.21 -29.5737 175.83 -30.3396 176.473 -31.0901L176.852 -30.7649C177.485 -31.5037 178.141 -32.2277 178.818 -32.9358L178.457 -33.2805L178.456 -33.2815C179.134 -33.9911 179.834 -34.6842 180.554 -35.3616L180.897 -34.9973C181.605 -35.6638 182.334 -36.3138 183.082 -36.9475L182.758 -37.3293C183.507 -37.9637 184.274 -38.5816 185.059 -39.1819L185.363 -38.7844C186.136 -39.3751 186.927 -39.949 187.735 -40.5051L187.452 -40.9172C188.12 -41.3773 188.8 -41.8253 189.491 -42.261L189.925 -42.5325L190.188 -42.1077C191.015 -42.6198 191.859 -43.114 192.717 -43.5901L192.474 -44.0276C193.332 -44.5035 194.205 -44.9609 195.091 -45.3997L195.313 -44.9514C196.185 -45.383 197.071 -45.7965 197.97 -46.1907L197.77 -46.6487C198.668 -47.0425 199.579 -47.4171 200.502 -47.7727L200.682 -47.3069C201.59 -47.6567 202.511 -47.9877 203.442 -48.2991L203.284 -48.7727C204.214 -49.0836 205.155 -49.3751 206.106 -49.6467L206.244 -49.1663C207.179 -49.4335 208.126 -49.6815 209.082 -49.9094L208.965 -50.3958C209.919 -50.6232 210.882 -50.8303 211.854 -51.0178L211.949 -50.5276C212.904 -50.7119 213.868 -50.8763 214.84 -51.0208L214.767 -51.5149C215.736 -51.6589 216.713 -51.7834 217.698 -51.887L217.75 -51.3899C218.718 -51.4917 219.693 -51.5735 220.674 -51.635L220.643 -52.134C221.621 -52.1953 222.604 -52.2375 223.594 -52.2581L223.595 -52.2571L223.605 -51.7571C224.094 -51.7673 224.585 -51.7727 225.077 -51.7727C225.568 -51.7727 226.059 -51.7672 226.548 -51.7571L226.559 -52.2571V-52.2581C227.549 -52.2375 228.533 -52.1953 229.51 -52.134L229.48 -51.635C230.461 -51.5735 231.436 -51.4917 232.404 -51.3899L232.456 -51.887C233.44 -51.7834 234.417 -51.6589 235.386 -51.5149L235.314 -51.0208C236.286 -50.8763 237.25 -50.7119 238.206 -50.5276L238.299 -51.0178C239.271 -50.8303 240.234 -50.6232 241.188 -50.3958L241.073 -49.9094C242.028 -49.6815 242.975 -49.4335 243.911 -49.1663L244.046 -49.6467C244.998 -49.375 245.939 -49.0836 246.87 -48.7727L246.712 -48.2991C247.644 -47.9877 248.564 -47.6567 249.472 -47.3069L249.651 -47.7727C250.574 -47.4171 251.485 -47.0425 252.383 -46.6487L252.183 -46.1907C253.082 -45.7964 253.969 -45.383 254.841 -44.9514L255.062 -45.3997C255.949 -44.9609 256.821 -44.5035 257.679 -44.0276L257.437 -43.5901C258.295 -43.1141 259.138 -42.6197 259.965 -42.1077L260.228 -42.5325Z" stroke="#7CB7A6" stroke-dasharray="3 3"/>
<path opacity="0.6" d="M289.954 -9.20386C290.054 -8.24038 290.121 -7.26876 290.154 -6.28979L289.656 -6.27222C289.673 -5.79163 289.682 -5.30905 289.682 -4.82495C289.682 -4.34085 289.673 -3.85828 289.656 -3.37769L290.154 -3.36206C290.121 -2.38277 290.054 -1.41082 289.954 -0.447021L289.458 -0.497803C289.358 0.463489 289.225 1.4166 289.06 2.3606L289.552 2.44653C289.383 3.40936 289.181 4.36262 288.948 5.30591L288.464 5.18677C288.232 6.1233 287.969 7.04969 287.675 7.96509L288.149 8.11743C287.851 9.04569 287.522 9.96259 287.162 10.8674L286.699 10.6838C286.344 11.5786 285.958 12.4613 285.543 13.3313L285.993 13.5452C285.574 14.4241 285.127 15.2899 284.65 16.1418L284.215 15.8987C283.746 16.738 283.249 17.5639 282.726 18.3752L283.146 18.6467C282.619 19.4631 282.065 20.2647 281.486 21.051L281.084 20.7551C280.514 21.5292 279.919 22.2884 279.3 23.0315L279.683 23.3508C279.061 24.097 278.415 24.827 277.746 25.5403L277.383 25.1995C276.725 25.9008 276.045 26.5854 275.343 27.2532L275.688 27.6155C274.985 28.2843 274.258 28.9329 273.513 29.5667L273.191 29.1887C272.46 29.8114 271.708 30.4171 270.937 31.0042L271.237 31.3987C270.465 31.9864 269.676 32.558 268.867 33.1086L268.587 32.6965C267.792 33.2375 266.98 33.7595 266.15 34.2629L266.408 34.6877C265.579 35.1912 264.733 35.6742 263.871 36.1389L263.636 35.7034C262.789 36.1599 261.927 36.5974 261.051 37.0149L261.265 37.4631C260.389 37.8804 259.499 38.2795 258.596 38.6565L258.404 38.1965C257.517 38.5667 256.616 38.9166 255.703 39.2463L255.872 39.7141C254.96 40.0434 254.036 40.3509 253.101 40.6389L252.955 40.1653C252.036 40.4482 251.106 40.7109 250.166 40.9524L250.288 41.4319C249.349 41.6729 248.401 41.8971 247.442 42.0959L247.342 41.6067C246.4 41.802 245.45 41.977 244.49 42.1301L244.568 42.6223C243.611 42.775 242.646 42.9069 241.672 43.0168L241.617 42.5208C240.662 42.6286 239.698 42.7153 238.729 42.7805L238.763 43.2795C237.796 43.3445 236.822 43.3876 235.842 43.4094L235.832 42.9104C235.349 42.9212 234.863 42.927 234.377 42.927C233.891 42.927 233.406 42.9212 232.923 42.9104L232.912 43.4094C231.932 43.3876 230.958 43.3445 229.991 43.2795H229.992L230.026 42.7805C229.056 42.7153 228.093 42.6286 227.138 42.5208L227.082 43.0168C226.108 42.9069 225.143 42.7751 224.186 42.6223L224.265 42.1301C223.305 41.977 222.354 41.802 221.413 41.6067L221.312 42.0959C220.353 41.8971 219.405 41.673 218.466 41.4319L218.589 40.9524C217.648 40.7109 216.719 40.4482 215.8 40.1653L215.653 40.6389C214.718 40.3509 213.794 40.0435 212.882 39.7141L213.052 39.2463C212.139 38.9166 211.238 38.5667 210.351 38.1965L210.158 38.6565C209.254 38.2795 208.365 37.8804 207.489 37.4631L207.704 37.0149C206.828 36.5974 205.966 36.1599 205.119 35.7034L204.883 36.1389C204.021 35.6742 203.175 35.1912 202.346 34.6877L202.604 34.2629C201.775 33.7595 200.963 33.2375 200.168 32.6965L199.887 33.1086C199.078 32.558 198.289 31.9864 197.517 31.3987L197.818 31.0042C197.047 30.4171 196.295 29.8114 195.563 29.1887L195.241 29.5667C194.496 28.9329 193.769 28.2843 193.066 27.6155L193.412 27.2532C192.71 26.5854 192.03 25.9008 191.372 25.1995L191.008 25.5403C190.339 24.827 189.693 24.097 189.071 23.3508L189.455 23.0315C188.836 22.2884 188.241 21.5292 187.671 20.7551L187.268 21.051C186.689 20.2647 186.135 19.4631 185.608 18.6467L186.029 18.3752C185.506 17.5639 185.009 16.738 184.54 15.8987L184.104 16.1418C183.627 15.2899 183.18 14.4241 182.761 13.5452L183.212 13.3313C182.797 12.4613 182.411 11.5786 182.056 10.6838L181.592 10.8674C181.232 9.96261 180.903 9.04567 180.604 8.11743L181.08 7.96509C180.786 7.04969 180.522 6.1233 180.291 5.18677L179.806 5.30591C179.573 4.36264 179.37 3.40934 179.202 2.44653L179.695 2.3606C179.53 1.4166 179.397 0.463489 179.297 -0.497803L178.8 -0.447021C178.7 -1.4108 178.633 -2.38279 178.6 -3.36206L179.099 -3.37769C179.09 -3.61806 179.083 -3.85907 179.079 -4.10034L179.073 -4.82495C179.073 -5.30905 179.082 -5.79163 179.099 -6.27222L178.6 -6.28979C178.633 -7.25021 178.697 -8.20365 178.794 -9.14917L178.8 -9.20386L179.297 -9.1521C179.397 -10.1134 179.53 -11.0665 179.695 -12.0105L179.203 -12.0964L179.202 -12.0974C179.37 -13.0602 179.573 -14.0135 179.806 -14.9568L180.291 -14.8367C180.522 -15.7731 180.786 -16.6997 181.08 -17.615L180.604 -17.7683C180.903 -18.6964 181.231 -19.6136 181.591 -20.5183L182.056 -20.3337C182.411 -21.2284 182.797 -22.1112 183.212 -22.9812L182.761 -23.197C183.171 -24.0588 183.61 -24.908 184.076 -25.7439L184.104 -25.7927L184.54 -25.5486C185.009 -26.388 185.506 -27.2138 186.029 -28.0251L185.609 -28.2966L185.608 -28.2976C186.055 -28.9894 186.521 -29.6703 187.005 -30.3406L187.269 -30.7019L187.671 -30.405C188.241 -31.1791 188.836 -31.9383 189.455 -32.6814L189.071 -33.0017C189.657 -33.7051 190.264 -34.3948 190.893 -35.0691L191.008 -35.1912L191.372 -34.8494C192.03 -35.5508 192.71 -36.2362 193.412 -36.9041L193.067 -37.2664C193.77 -37.935 194.497 -38.5839 195.241 -39.2175L195.563 -38.8396C196.295 -39.4622 197.047 -40.0671 197.818 -40.6541L197.518 -41.0505C197.966 -41.392 198.42 -41.7293 198.881 -42.0583L199.887 -42.7595L200.168 -42.3464C200.963 -42.8874 201.775 -43.4104 202.604 -43.9138L202.346 -44.3386C203.175 -44.8422 204.021 -45.326 204.883 -45.7908L205.119 -45.3533C205.966 -45.8099 206.828 -46.2473 207.704 -46.6648L207.489 -47.114C207.98 -47.3476 208.473 -47.5775 208.973 -47.7986L210.158 -48.3083L210.351 -47.8464C211.238 -48.2166 212.139 -48.5675 213.052 -48.8972L212.882 -49.365C213.794 -49.6944 214.718 -50.0027 215.653 -50.2908L215.8 -49.8152C216.718 -50.0981 217.648 -50.3608 218.589 -50.6023L218.465 -51.0837C219.404 -51.3249 220.353 -51.5479 221.312 -51.7468L221.413 -51.2576C222.354 -51.4528 223.305 -51.6269 224.265 -51.78L224.186 -52.2732C225.143 -52.4259 226.108 -52.5578 227.082 -52.6677L227.138 -52.1716C228.093 -52.2795 229.056 -52.3662 230.026 -52.4314L229.992 -52.9304C230.958 -52.9954 231.932 -53.0394 232.911 -53.0613L232.912 -53.0603L232.923 -52.5603C233.406 -52.5711 233.891 -52.5769 234.377 -52.5769C234.863 -52.5769 235.349 -52.5711 235.832 -52.5603L235.843 -53.0603V-53.0613C236.822 -53.0394 237.795 -52.9954 238.762 -52.9304L238.729 -52.4314C239.698 -52.3662 240.662 -52.2795 241.617 -52.1716L241.672 -52.6677C242.646 -52.5578 243.611 -52.4259 244.568 -52.2732L244.49 -51.78C245.45 -51.6269 246.4 -51.4528 247.342 -51.2576L247.442 -51.7468C248.401 -51.5479 249.35 -51.3249 250.289 -51.0837L250.166 -50.6023C251.106 -50.3608 252.036 -50.0981 252.955 -49.8152L253.101 -50.2908C254.036 -50.0027 254.96 -49.6943 255.872 -49.365L255.703 -48.8972C256.616 -48.5675 257.517 -48.2166 258.404 -47.8464L258.596 -48.3083C259.5 -47.9313 260.389 -47.5313 261.265 -47.114L261.051 -46.6648C261.927 -46.2473 262.789 -45.8099 263.636 -45.3533L263.871 -45.7908C264.733 -45.326 265.579 -44.8422 266.408 -44.3386L266.15 -43.9138C266.98 -43.4104 267.792 -42.8874 268.587 -42.3464L268.867 -42.7595C269.676 -42.2092 270.465 -41.638 271.236 -41.0505L270.937 -40.6541C271.708 -40.0671 272.46 -39.4622 273.191 -38.8396L273.513 -39.2175C274.257 -38.5839 274.984 -37.935 275.687 -37.2664L275.343 -36.9041C276.045 -36.2362 276.725 -35.5508 277.383 -34.8494L277.746 -35.1912C278.415 -34.4778 279.061 -33.7478 279.683 -33.0017L279.3 -32.6814C279.919 -31.9383 280.514 -31.1791 281.084 -30.405L281.485 -30.7019C282.064 -29.9154 282.619 -29.1141 283.146 -28.2976V-28.2966L282.726 -28.0251C283.249 -27.2138 283.746 -26.388 284.215 -25.5486L284.65 -25.7927C285.126 -24.9411 285.574 -24.0756 285.993 -23.197L285.543 -22.9812C285.958 -22.1112 286.344 -21.2284 286.699 -20.3337L287.163 -20.5183C287.523 -19.6136 287.851 -18.6964 288.149 -17.7683L287.675 -17.615C287.969 -16.6997 288.232 -15.7731 288.464 -14.8367L288.948 -14.9568C289.181 -14.0135 289.383 -13.0602 289.552 -12.0974V-12.0964L289.06 -12.0105C289.225 -11.0665 289.358 -10.1134 289.458 -9.1521L289.954 -9.20386Z" stroke="#7CB7A6" stroke-dasharray="3 3"/>
<path opacity="0.4" d="M289.873 -30.3127C290.242 -29.4104 290.58 -28.4946 290.886 -27.5667H290.887L290.413 -27.4094C290.714 -26.4957 290.985 -25.5698 291.222 -24.6331L291.707 -24.7561C291.946 -23.8128 292.152 -22.8583 292.325 -21.8938L291.833 -21.8059C292.003 -20.861 292.14 -19.9062 292.243 -18.9426L292.739 -18.9954C292.842 -18.0308 292.91 -17.0575 292.945 -16.0764L292.447 -16.0588C292.464 -15.5776 292.472 -15.0945 292.472 -14.6096C292.472 -14.1247 292.464 -13.6416 292.447 -13.1604L292.945 -13.1438C292.91 -12.1627 292.842 -11.1894 292.739 -10.2249L292.243 -10.2766C292.14 -9.31306 292.003 -8.35825 291.833 -7.41333L292.325 -7.32642C292.152 -6.36192 291.946 -5.40745 291.707 -4.46411L291.222 -4.58618C290.984 -3.64931 290.714 -2.7227 290.413 -1.80884L290.887 -1.65259C290.581 -0.724852 290.242 0.190385 289.873 1.09253L289.411 0.904053C289.045 1.79704 288.648 2.67696 288.222 3.54272L288.667 3.76147C288.237 4.63686 287.779 5.49886 287.29 6.34448L286.858 6.09546C286.375 6.92973 285.865 7.74934 285.327 8.55249L285.739 8.82886C285.197 9.63816 284.627 10.431 284.032 11.2068L283.638 10.905C283.052 11.6689 282.44 12.416 281.803 13.1453L282.178 13.4724C281.538 14.2057 280.872 14.9194 280.184 15.616L279.832 15.2683C279.155 15.9537 278.455 16.6207 277.733 17.2683L278.065 17.6384C277.341 18.2881 276.594 18.9171 275.828 19.5271L275.519 19.1384C274.766 19.7379 273.992 20.3177 273.2 20.8767L273.487 21.2839C272.692 21.8443 271.878 22.3829 271.046 22.9011L270.784 22.4792C269.966 22.9887 269.131 23.4774 268.279 23.9441L268.518 24.3806C267.666 24.8476 266.796 25.2918 265.912 25.7146L265.698 25.2664C264.829 25.6814 263.946 26.0747 263.048 26.4451L263.238 26.9041C262.339 27.2747 261.428 27.6253 260.502 27.95L260.338 27.4783C259.43 27.7969 258.508 28.0936 257.575 28.366L257.714 28.8416C256.781 29.1138 255.837 29.3637 254.881 29.5886L254.768 29.1052C253.831 29.3257 252.884 29.5221 251.926 29.6951L252.014 30.1853C251.059 30.3579 250.095 30.5053 249.122 30.6296L249.059 30.1375C248.105 30.2593 247.143 30.3577 246.172 30.4314L246.209 30.9255C245.242 30.999 244.268 31.0502 243.286 31.075L243.274 30.5769C242.791 30.5891 242.305 30.5955 241.819 30.5955C241.332 30.5955 240.846 30.5891 240.363 30.5769L240.35 31.075C239.368 31.0502 238.394 30.999 237.426 30.9255L237.464 30.4314C236.494 30.3577 235.531 30.2593 234.578 30.1375L234.514 30.6296C233.541 30.5053 232.576 30.3579 231.622 30.1853L231.71 29.6951C230.753 29.5221 229.805 29.3257 228.869 29.1052L228.754 29.5886C227.799 29.3637 226.854 29.1139 225.921 28.8416L226.062 28.366C225.129 28.0936 224.207 27.7969 223.298 27.4783L223.133 27.949C222.208 27.6243 221.296 27.2747 220.398 26.9041L220.588 26.4451C219.691 26.0747 218.807 25.6814 217.939 25.2664L217.724 25.7146C216.84 25.2918 215.97 24.8477 215.118 24.3806L215.358 23.9441C214.506 23.4774 213.67 22.9887 212.853 22.4792L212.59 22.9001C211.759 22.3818 210.944 21.8444 210.149 21.2839L210.437 20.8767C209.644 20.3177 208.871 19.7379 208.118 19.1384L207.808 19.5271C207.042 18.9171 206.295 18.2881 205.571 17.6384L205.904 17.2683C205.182 16.6208 204.483 15.9535 203.806 15.2683L203.452 15.616C202.764 14.9194 202.098 14.2057 201.458 13.4724L201.833 13.1453C201.197 12.416 200.585 11.6689 199.999 10.905L199.604 11.2068C199.009 10.431 198.439 9.63815 197.897 8.82886L198.31 8.55249C197.772 7.74933 197.261 6.92974 196.779 6.09546L196.347 6.34448C195.858 5.49873 195.399 4.63699 194.968 3.76147L195.415 3.54272C194.989 2.67696 194.592 1.79704 194.226 0.904053L193.764 1.09351H193.763C193.394 0.191109 193.055 -0.724585 192.749 -1.65259L193.224 -1.80884C192.922 -2.7227 192.652 -3.64931 192.415 -4.58618L191.929 -4.46411C191.69 -5.40743 191.484 -6.36194 191.311 -7.32642L191.803 -7.41333C191.634 -8.35825 191.497 -9.31306 191.394 -10.2766L190.897 -10.2249C190.794 -11.1894 190.726 -12.1627 190.691 -13.1438L191.19 -13.1604C191.181 -13.4008 191.176 -13.6417 191.171 -13.8831L191.165 -14.6096C191.165 -15.0945 191.173 -15.5776 191.19 -16.0588L190.691 -16.0764C190.726 -17.0575 190.794 -18.0308 190.897 -18.9954L191.394 -18.9426C191.497 -19.9062 191.634 -20.861 191.803 -21.8059L191.311 -21.8938C191.484 -22.8583 191.69 -23.8128 191.929 -24.7561L192.415 -24.6331C192.652 -25.5698 192.922 -26.4957 193.224 -27.4094L192.75 -27.5667C193.056 -28.4948 193.394 -29.4111 193.763 -30.3137L193.764 -30.3127L194.226 -30.1233C194.592 -31.0163 194.989 -31.8962 195.415 -32.762L194.968 -32.9817C195.399 -33.8572 195.858 -34.719 196.347 -35.5647L196.779 -35.3147C197.261 -36.1489 197.772 -36.9686 198.31 -37.7717L197.896 -38.0481C198.438 -38.8578 199.008 -39.6508 199.604 -40.427L199.999 -40.1233C200.585 -40.8872 201.197 -41.6352 201.833 -42.3645L201.458 -42.6926C202.098 -43.4259 202.764 -44.1397 203.452 -44.8362L203.806 -44.4866C204.483 -45.1718 205.182 -45.8391 205.904 -46.4866L205.571 -46.8586C206.295 -47.508 207.041 -48.1366 207.807 -48.7463L208.118 -48.3577C208.871 -48.9571 209.644 -49.5369 210.437 -50.0959L210.149 -50.5042C210.944 -51.0646 211.759 -51.6021 212.59 -52.1204L212.853 -51.6985C213.67 -52.2079 214.506 -52.6967 215.358 -53.1633L215.118 -53.6008C215.97 -54.0679 216.84 -54.512 217.724 -54.9348L217.939 -54.4856C218.807 -54.9006 219.691 -55.2939 220.588 -55.6643L220.398 -56.1243C221.296 -56.4949 222.208 -56.8446 223.133 -57.1692L223.298 -56.6975C224.207 -57.0162 225.129 -57.3128 226.062 -57.5852L225.921 -58.0618C226.854 -58.3341 227.799 -58.5839 228.754 -58.8088L228.869 -58.3235C229.805 -58.5439 230.753 -58.7413 231.71 -58.9143L231.622 -59.4055C232.576 -59.5781 233.541 -59.7255 234.514 -59.8499L234.578 -59.3567C235.531 -59.4785 236.494 -59.5759 237.464 -59.6497L237.426 -60.1458C238.394 -60.2192 239.368 -60.2704 240.35 -60.2952L240.363 -59.7961C240.846 -59.8083 241.332 -59.8147 241.819 -59.8147C242.305 -59.8147 242.791 -59.8083 243.274 -59.7961L243.286 -60.2952C244.267 -60.2705 245.242 -60.2192 246.209 -60.1458L246.172 -59.6497C247.143 -59.5759 248.105 -59.4785 249.059 -59.3567L249.122 -59.8499C250.095 -59.7255 251.059 -59.5781 252.014 -59.4055L251.926 -58.9143C252.884 -58.7413 253.831 -58.5439 254.768 -58.3235L254.881 -58.8088C255.837 -58.584 256.781 -58.3341 257.714 -58.0618L257.575 -57.5852C258.508 -57.3128 259.43 -57.0162 260.338 -56.6975L260.503 -57.1692V-57.1702C261.429 -56.8456 262.34 -56.4948 263.238 -56.1243L263.048 -55.6643C263.946 -55.2939 264.829 -54.9006 265.698 -54.4856L265.912 -54.9348C266.796 -54.512 267.666 -54.0678 268.518 -53.6008L268.279 -53.1633C269.131 -52.6967 269.966 -52.2079 270.784 -51.6985L271.046 -52.1213C271.878 -51.6031 272.692 -51.0645 273.487 -50.5042L273.2 -50.0959C273.992 -49.5369 274.766 -48.9571 275.519 -48.3577L275.829 -48.7463C276.595 -48.1366 277.341 -47.508 278.065 -46.8586L277.733 -46.4866C278.455 -45.8391 279.155 -45.1718 279.832 -44.4866L280.184 -44.8362C280.872 -44.1397 281.538 -43.4259 282.178 -42.6926L281.803 -42.3645C282.44 -41.6352 283.052 -40.8872 283.638 -40.1233L284.032 -40.427C284.628 -39.6508 285.197 -38.8578 285.74 -38.0481L285.327 -37.7717C285.865 -36.9686 286.375 -36.1489 286.858 -35.3147L287.29 -35.5647C287.779 -34.7191 288.237 -33.8571 288.667 -32.9817L288.222 -32.762C288.648 -31.8962 289.045 -31.0163 289.411 -30.1233L289.873 -30.3127Z" stroke="#7CB7A6" stroke-dasharray="3 3"/>
<path d="M5.0376 97.4503C6.25839 97.6449 7.39926 98.035 8.41553 98.5831L8.18018 99.0225C9.2093 99.5777 10.0994 100.3 10.8003 101.141L11.1821 100.821C11.9563 101.75 12.5168 102.82 12.8032 103.979L12.3198 104.099C12.4515 104.632 12.521 105.185 12.521 105.752C12.521 106.319 12.4515 106.872 12.3198 107.405L12.8032 107.523C12.517 108.682 11.9563 109.752 11.1821 110.681L10.8003 110.362C10.0994 111.204 9.2094 111.926 8.18018 112.482L8.4165 112.919C7.39992 113.467 6.2589 113.858 5.0376 114.053L4.96045 113.562C4.40823 113.65 3.83811 113.695 3.25537 113.695C2.67267 113.695 2.10247 113.65 1.55029 113.562L1.47217 114.053C0.250933 113.858 -0.890244 113.468 -1.90674 112.919L-1.66846 112.482C-2.69768 111.926 -3.58764 111.203 -4.28857 110.362L-4.67139 110.681C-5.44555 109.752 -6.00726 108.682 -6.29346 107.523L-5.80908 107.405C-5.90791 107.005 -5.97191 106.594 -5.99756 106.174L-6.01025 105.752C-6.01025 105.185 -5.9408 104.632 -5.80908 104.099L-6.29346 103.979C-6.00708 102.82 -5.44561 101.75 -4.67139 100.821L-4.28857 101.141C-3.58768 100.3 -2.69758 99.5776 -1.66846 99.0225L-1.90576 98.584C-0.889484 98.0358 0.251282 97.6451 1.47217 97.4503L1.55029 97.9415C2.10247 97.8534 2.67267 97.8077 3.25537 97.8077C3.83811 97.8077 4.40823 97.8534 4.96045 97.9415L5.0376 97.4503Z" stroke="#1E6AFF" stroke-opacity="0.5" stroke-dasharray="3 3"/>
</g>
<path d="M25.0527 80.9043L25.1826 84.1699C25.1826 85.8398 24.7868 87.2005 23.9951 88.252H36.9092L36.8906 92H17.4268V88.252H18.9482C19.4307 88.1406 19.8018 87.7448 20.0615 87.0645C20.3337 86.3717 20.4697 85.4626 20.4697 84.3369L20.3398 80.9043H17.3525V77.2119H20.2285L20.0801 72.7217C20.0801 70.223 20.8532 68.25 22.3994 66.8027C23.9456 65.3555 25.9743 64.6318 28.4854 64.6318C30.9964 64.6318 32.9694 65.306 34.4043 66.6543C35.8392 68.0026 36.5566 69.8148 36.5566 72.0908H32.0107C32.0107 70.9157 31.6829 70.0065 31.0273 69.3633C30.3841 68.7077 29.4811 68.3799 28.3184 68.3799C27.2174 68.3799 26.3454 68.7819 25.7021 69.5859C25.0713 70.39 24.7559 71.4352 24.7559 72.7217L24.9229 77.2119H30.6934V80.9043H25.0527ZM63.1997 92H58.7095V70.3096L52.0854 72.5732V68.7695L62.6245 64.8916H63.1997V92ZM87.3757 64.8545V68.584H86.8191C84.2956 68.6211 82.2793 69.3138 80.7702 70.6621C79.2611 72.0104 78.3643 73.9215 78.0798 76.3955C79.5271 74.874 81.3764 74.1133 83.6277 74.1133C86.015 74.1133 87.8952 74.9544 89.2683 76.6367C90.6537 78.319 91.3464 80.4899 91.3464 83.1494C91.3464 85.8955 90.5362 88.1221 88.9157 89.8291C87.3077 91.5238 85.1924 92.3711 82.57 92.3711C79.8734 92.3711 77.684 91.3753 76.0017 89.3838C74.3318 87.3923 73.4968 84.7822 73.4968 81.5537V80.0137C73.4968 75.276 74.6472 71.5651 76.948 68.8809C79.2611 66.1966 82.5824 64.8545 86.9118 64.8545H87.3757ZM82.5329 77.75C81.5433 77.75 80.6342 78.0283 79.8054 78.585C78.989 79.1416 78.389 79.8838 78.0056 80.8115V82.1846C78.0056 84.1885 78.4262 85.7842 79.2673 86.9717C80.1084 88.1468 81.197 88.7344 82.5329 88.7344C83.8689 88.7344 84.9265 88.2334 85.7058 87.2314C86.4851 86.2295 86.8747 84.9121 86.8747 83.2793C86.8747 81.6465 86.4789 80.3167 85.6872 79.29C84.8956 78.2633 83.8441 77.75 82.5329 77.75ZM113.686 67.4893L102.887 92H98.1552L108.936 68.6025H94.9638V64.9844H113.686V67.4893ZM123.278 76.4326H126.024C127.409 76.4202 128.504 76.0615 129.308 75.3564C130.124 74.6514 130.532 73.6309 130.532 72.2949C130.532 71.0085 130.192 70.0127 129.512 69.3076C128.844 68.5902 127.817 68.2314 126.432 68.2314C125.22 68.2314 124.224 68.584 123.445 69.2891C122.665 69.9818 122.276 70.891 122.276 72.0166H117.767C117.767 70.6312 118.132 69.3695 118.862 68.2314C119.604 67.0934 120.63 66.209 121.942 65.5781C123.265 64.9349 124.743 64.6133 126.376 64.6133C129.073 64.6133 131.188 65.2936 132.722 66.6543C134.268 68.0026 135.041 69.8828 135.041 72.2949C135.041 73.5072 134.652 74.6514 133.872 75.7275C133.105 76.7913 132.11 77.5954 130.885 78.1396C132.369 78.6468 133.495 79.4447 134.262 80.5332C135.041 81.6217 135.431 82.9206 135.431 84.4297C135.431 86.8542 134.596 88.7839 132.926 90.2188C131.268 91.6536 129.085 92.3711 126.376 92.3711C123.779 92.3711 121.651 91.6784 119.993 90.293C118.336 88.9076 117.507 87.0645 117.507 84.7637H122.016C122.016 85.9512 122.412 86.916 123.203 87.6582C124.007 88.4004 125.084 88.7715 126.432 88.7715C127.83 88.7715 128.931 88.4004 129.735 87.6582C130.539 86.916 130.941 85.8398 130.941 84.4297C130.941 83.0072 130.52 81.9124 129.679 81.1455C128.838 80.3786 127.588 79.9951 125.931 79.9951H123.278V76.4326Z" fill="white"/>
<path d="M20.4863 30.877V37H18.4238V21.3594H24.1924C25.904 21.3594 27.2432 21.7962 28.21 22.6699C29.1839 23.5436 29.6709 24.7002 29.6709 26.1396C29.6709 27.6579 29.1947 28.8288 28.2422 29.6523C27.2969 30.4688 25.9398 30.877 24.1709 30.877H20.4863ZM20.4863 29.1904H24.1924C25.2952 29.1904 26.1403 28.9326 26.7275 28.417C27.3148 27.8942 27.6084 27.1423 27.6084 26.1611C27.6084 25.2301 27.3148 24.4854 26.7275 23.9268C26.1403 23.3682 25.3346 23.0781 24.3105 23.0566H20.4863V29.1904ZM38.0494 27.1602C37.7486 27.11 37.4227 27.085 37.0718 27.085C35.7685 27.085 34.884 27.64 34.4185 28.75V37H32.4312V25.377H34.3648L34.397 26.7197C35.0487 25.6813 35.9726 25.1621 37.1685 25.1621C37.5552 25.1621 37.8489 25.2122 38.0494 25.3125V27.1602ZM39.5851 31.0811C39.5851 29.9424 39.8071 28.9183 40.2511 28.0088C40.7023 27.0993 41.3253 26.3975 42.1202 25.9033C42.9223 25.4092 43.8354 25.1621 44.8595 25.1621C46.4422 25.1621 47.7205 25.71 48.6945 26.8057C49.6756 27.9014 50.1661 29.3587 50.1661 31.1777V31.3174C50.1661 32.4489 49.9477 33.4658 49.5109 34.3682C49.0812 35.2633 48.4617 35.9616 47.6525 36.4629C46.8504 36.9642 45.9265 37.2148 44.881 37.2148C43.3055 37.2148 42.0271 36.667 41.046 35.5713C40.0721 34.4756 39.5851 33.0254 39.5851 31.2207V31.0811ZM41.5831 31.3174C41.5831 32.6064 41.8803 33.6413 42.4747 34.4219C43.0763 35.2025 43.8784 35.5928 44.881 35.5928C45.8907 35.5928 46.6928 35.1989 47.2872 34.4111C47.8816 33.6162 48.1788 32.5062 48.1788 31.0811C48.1788 29.8063 47.8745 28.7751 47.2657 27.9873C46.6642 27.1924 45.8621 26.7949 44.8595 26.7949C43.8784 26.7949 43.087 27.1852 42.4855 27.9658C41.8839 28.7464 41.5831 29.8636 41.5831 31.3174ZM53.7643 37V26.9131H51.9274V25.377H53.7643V24.3887C53.7643 23.0924 54.1332 22.0827 54.8708 21.3594C55.6156 20.6361 56.6647 20.2744 58.0182 20.2744C58.8203 20.2744 59.8337 20.4928 61.0583 20.9297L60.7253 22.6055C59.8301 22.2474 58.9779 22.0684 58.1686 22.0684C57.3164 22.0684 56.7005 22.2617 56.321 22.6484C55.9486 23.028 55.7624 23.6009 55.7624 24.3672V25.377H58.1364V26.9131H55.7624V37H53.7643ZM62.0466 37H60.0485V25.377H62.0466V37ZM68.4162 22.5625V25.377H70.5862V26.9131H68.4162V34.1211C68.4162 34.5866 68.5129 34.9375 68.7063 35.1738C68.8996 35.403 69.2291 35.5176 69.6946 35.5176C69.9237 35.5176 70.2388 35.4746 70.6399 35.3887V37C70.1171 37.1432 69.6086 37.2148 69.1145 37.2148C68.2265 37.2148 67.5569 36.9463 67.1057 36.4092C66.6545 35.8721 66.4289 35.1094 66.4289 34.1211V26.9131H64.3127V25.377H66.4289V22.5625H68.4162Z" fill="white"/>
</g>
</g>
<defs>
<filter id="filter0_d_0_1" x="-43" y="-137" width="310" height="1136" filterUnits="userSpaceOnUse" color-interpolation-filters="sRGB">
<feFlood flood-opacity="0" result="BackgroundImageFix"/>
<feColorMatrix in="SourceAlpha" type="matrix" values="0 0 0 0 0 0 0 0 0 0 0 0 0 0 0 0 0 0 127 0" result="hardAlpha"/>
<feOffset dy="4"/>
<feGaussianBlur stdDeviation="7.5"/>
<feComposite in2="hardAlpha" operator="out"/>
<feColorMatrix type="matrix" values="0 0 0 0 0 0 0 0 0 0 0 0 0 0 0 0 0 0 0.08 0"/>
<feBlend mode="normal" in2="BackgroundImageFix" result="effect1_dropShadow_0_1"/>
<feBlend mode="normal" in="SourceGraphic" in2="effect1_dropShadow_0_1" result="shape"/>
</filter>
<linearGradient id="paint0_linear_0_1" x1="9.76574" y1="6.03147" x2="261.698" y2="210.277" gradientUnits="userSpaceOnUse">
<stop stop-color="#397665"/>
<stop offset="1" stop-color="#4A8877"/>
</linearGradient>
<linearGradient id="paint1_linear_0_1" x1="-5.34559" y1="-2.57214" x2="70.362" y2="31.7609" gradientUnits="userSpaceOnUse">
<stop stop-color="#579684"/>
<stop offset="1" stop-color="#7CB7A6" stop-opacity="0"/>
<stop offset="1" stop-color="#68A795" stop-opacity="0"/>
</linearGradient>
<linearGradient id="paint2_linear_0_1" x1="-3.78573" y1="-1.72122" x2="48.7546" y2="23.4948" gradientUnits="userSpaceOnUse">
<stop stop-color="#579684"/>
<stop offset="1" stop-color="#7CB7A6" stop-opacity="0"/>
<stop offset="1" stop-color="#68A795" stop-opacity="0"/>
</linearGradient>
</defs>
</svg>
