<svg width="25" height="28" viewBox="0 0 25 28" fill="none" xmlns="http://www.w3.org/2000/svg">
<path d="M24.459 13.6465C24.3418 16.0098 23.7559 17.875 22.7012 19.2422C21.6465 20.6094 20.2354 21.293 18.4678 21.293C16.6416 21.293 15.4697 20.4727 14.9521 18.832C14.4248 19.6621 13.8193 20.2822 13.1357 20.6924C12.4619 21.0928 11.7637 21.293 11.041 21.293C9.6543 21.293 8.60449 20.7266 7.8916 19.5938C7.17871 18.4609 6.91504 16.8936 7.10059 14.8916C7.24707 13.2803 7.61328 11.8447 8.19922 10.585C8.79492 9.31543 9.55664 8.31934 10.4844 7.59668C11.4219 6.87402 12.4033 6.5127 13.4287 6.5127C14.2197 6.5127 14.9277 6.62012 15.5527 6.83496C16.1777 7.04004 16.8809 7.4502 17.6621 8.06543L16.9004 16.1807C16.7148 18.4365 17.3398 19.5645 18.7754 19.5645C19.8789 19.5645 20.7725 19.0176 21.4561 17.9238C22.1396 16.8301 22.5107 15.4043 22.5693 13.6465C22.7549 9.84766 22.0469 6.95215 20.4453 4.95996C18.8535 2.96777 16.4268 1.97168 13.165 1.97168C11.2021 1.97168 9.45898 2.45996 7.93555 3.43652C6.41211 4.40332 5.21094 5.80469 4.33203 7.64062C3.45312 9.47656 2.95996 11.5957 2.85254 13.998C2.73535 16.4199 3.02832 18.5244 3.73145 20.3115C4.43457 22.0889 5.50391 23.4463 6.93945 24.3838C8.38477 25.3311 10.1279 25.8047 12.1689 25.8047C13.0479 25.8047 13.9268 25.6973 14.8057 25.4824C15.6943 25.2676 16.4316 24.9893 17.0176 24.6475L17.5596 26.332C16.9541 26.7129 16.1484 27.0254 15.1426 27.2695C14.1465 27.5137 13.1357 27.6357 12.1104 27.6357C9.66895 27.6357 7.56934 27.084 5.81152 25.9805C4.05371 24.8867 2.73535 23.3047 1.85645 21.2344C0.987305 19.1738 0.611328 16.7617 0.728516 13.998C0.845703 11.3125 1.44629 8.90039 2.53027 6.76172C3.61426 4.61328 5.08398 2.95801 6.93945 1.7959C8.79492 0.624023 10.8896 0.0380859 13.2236 0.0380859C15.6553 0.0380859 17.7402 0.584961 19.4785 1.67871C21.2168 2.77246 22.5107 4.34961 23.3604 6.41016C24.21 8.4707 24.5762 10.8828 24.459 13.6465ZM9.42969 14.8916C9.29297 16.2783 9.41992 17.3428 9.81055 18.085C10.2109 18.8271 10.8408 19.1982 11.7002 19.1982C12.2861 19.1982 12.8477 18.9492 13.3848 18.4512C13.9316 17.9531 14.3809 17.2402 14.7324 16.3125L14.7471 16.1807L15.4209 8.8125C14.874 8.5293 14.2881 8.3877 13.6631 8.3877C12.5205 8.3877 11.5732 8.96875 10.8213 10.1309C10.0791 11.293 9.61523 12.8799 9.42969 14.8916Z" fill="#868686"/>
</svg>
