<svg width="20" height="30" viewBox="0 0 20 30" fill="none" xmlns="http://www.w3.org/2000/svg">
<path fill-rule="evenodd" clip-rule="evenodd" d="M20 23.8813C20 28.6111 14.2929 29.1578 10.0013 29.1578L9.69415 29.1575C6.95985 29.15 0 28.9538 0 23.8526C0 19.2193 5.47772 18.6001 9.73672 18.5768L10.3084 18.5764C13.0425 18.5839 20 18.7801 20 23.8813ZM10.0013 20.7286C4.62121 20.7286 1.89394 21.779 1.89394 23.8526C1.89394 25.9448 4.62121 27.0053 10.0013 27.0053C15.3801 27.0053 18.1061 25.9549 18.1061 23.8813C18.1061 21.7891 15.3801 20.7286 10.0013 20.7286ZM10.0013 0.643646C13.6982 0.643646 16.7045 4.06184 16.7045 8.26354C16.7045 12.4652 13.6982 15.882 10.0013 15.882H9.96086C6.27146 15.8691 3.28283 12.4495 3.29541 8.25923C3.29541 4.06184 6.30303 0.643646 10.0013 0.643646ZM10.0013 2.69284C7.29798 2.69284 5.09846 5.19119 5.09846 8.26354C5.08965 11.3258 7.27273 13.8228 9.96465 13.8342L10.0013 14.8588V13.8342C12.7033 13.8342 14.9015 11.3345 14.9015 8.26354C14.9015 5.19119 12.7033 2.69284 10.0013 2.69284Z" fill="#868686"/>
</svg>
