<svg width="23" height="20" viewBox="0 0 23 20" fill="none" xmlns="http://www.w3.org/2000/svg">
<path fill-rule="evenodd" clip-rule="evenodd" d="M21.1795 0.252707C21.5165 0.589649 21.5165 1.13589 21.1795 1.47283L3.03984 19.6114C2.87195 19.7804 2.65115 19.8644 2.43036 19.8644C2.20956 19.8644 1.98877 19.7804 1.82087 19.6114C1.48393 19.2744 1.48393 18.7293 1.82087 18.3924L4.08856 16.1261C2.46271 14.639 1.08352 12.6343 0.0707234 10.2738C-0.0235745 10.0553 -0.0235745 9.80922 0.0707234 9.59188C1.24485 6.87334 2.89851 4.62284 4.85347 3.08532C8.64013 0.0885468 13.6183 -0.0705228 17.5586 2.65446L19.9606 0.252707C20.2975 -0.0842356 20.8426 -0.0842356 21.1795 0.252707ZM20.7538 5.79673C21.5864 6.90186 22.3178 8.17948 22.9284 9.58935C23.0239 9.80784 23.0239 10.0562 22.9284 10.2736C20.5181 15.859 16.2459 19.1928 11.5 19.1928C10.4224 19.1928 9.35067 19.018 8.31569 18.6741C7.86375 18.5235 7.61881 18.0348 7.76945 17.5828C7.9201 17.1297 8.40654 16.8894 8.86078 17.0366C9.71981 17.3229 10.6076 17.4678 11.5 17.4678C15.4421 17.4678 19.045 14.6596 21.1943 9.93204C20.6699 8.78321 20.0592 7.74249 19.3761 6.83401C19.0898 6.45337 19.1657 5.91173 19.5463 5.62539C19.9258 5.33904 20.4675 5.41724 20.7538 5.79673ZM5.92179 4.43999C4.27043 5.73946 2.85251 7.63232 1.80603 9.93457C2.71847 11.9498 3.91718 13.6494 5.30949 14.9045L7.76791 12.4463C7.26776 11.7104 6.99863 10.8428 6.99863 9.93411C6.99863 7.45016 9.01798 5.42966 11.4996 5.42966C12.4 5.42966 13.2808 5.70382 14.0141 6.19934L16.3158 3.89778C13.0351 1.77697 9.04223 1.97044 5.92179 4.43999ZM15.2228 9.73056C15.692 9.81451 16.0036 10.263 15.9197 10.7322C15.5896 12.5641 14.1384 14.0177 12.3076 14.3512C12.2558 14.3604 12.203 14.365 12.1524 14.365C11.7441 14.365 11.3807 14.0729 11.3048 13.6566C11.2197 13.1885 11.5302 12.7389 11.9994 12.6538C13.1264 12.4491 14.0188 11.5544 14.2212 10.4263C14.3063 9.95826 14.7547 9.65007 15.2228 9.73056ZM11.4996 7.15462C9.96901 7.15462 8.72359 8.40119 8.72359 9.93411C8.72359 10.3773 8.82792 10.8051 9.0246 11.1893L12.757 7.45642C12.3727 7.2606 11.9405 7.15462 11.4996 7.15462Z" fill="#868686"/>
</svg>
