<svg width="147" height="122" viewBox="0 0 147 122" fill="none" xmlns="http://www.w3.org/2000/svg">
<path d="M29.383 52.4504C26.4598 50.69 24.774 46.7815 25.3858 43.1718C28.2436 44.8529 30.0321 48.9949 29.383 52.4504Z" fill="#758800"/>
<path d="M56.1682 0.928589C56.216 2.64406 55.8918 4.34954 55.2179 5.92784C54.544 7.50613 53.5364 8.91983 52.2644 10.0718C51.1437 6.53219 52.6053 3.06263 56.1682 0.928589Z" fill="#758800"/>
<path d="M50.9711 13.8916C47.7631 12.2852 45.8999 9.72621 45.092 6.30334C48.3982 6.6489 51.2747 10.3333 50.9711 13.8916Z" fill="#758800"/>
<path d="M61.9775 11.8364C60.0256 15.3387 56.8783 16.0064 53.4087 16.1559C54.38 13.3307 57.5694 11.7057 61.9775 11.8364Z" fill="#758800"/>
<path d="M23.3174 54.3892C19.7124 52.8669 17.9846 50.1865 18.1808 46.5535C20.7911 47.3473 23.3594 51.2465 23.3174 54.3892Z" fill="#758800"/>
<path d="M122.385 57.571C125.681 57.7998 128.128 60.1346 128.922 63.805C126.036 63.6789 122.908 60.6997 122.385 57.571Z" fill="#758800"/>
<path d="M41.3887 67.7039C42.4207 64.1176 44.8162 62.2263 48.5146 61.9835C48.0476 64.6826 44.7088 67.3957 41.3887 67.7039Z" fill="#758800"/>
<path d="M91.0974 31.1491C91.8772 27.5394 94.7071 25.1719 98.1673 25.1112C97.6676 27.8056 94.595 30.4486 91.0974 31.1491Z" fill="#758800"/>
<path d="M60.5438 17.849C59.0868 21.0757 56.7053 22.9016 53.3618 23.6441C53.6467 20.0718 57.5552 17.6529 60.5438 17.849Z" fill="#758800"/>
<path d="M39.1895 21.7617C36.7566 19.3334 36.4437 16.4289 36.3503 13.403C39.4603 14.2995 40.7492 17.7364 39.1895 21.7617Z" fill="#758800"/>
<path d="M125.135 44.5569C124.407 47.7603 122.627 49.6935 119.742 50.6275C119.447 50.7208 119.046 51.0057 118.808 50.6275C118.696 50.45 118.845 50.0764 118.934 49.8056C119.9 46.9057 121.95 45.2573 125.135 44.5569Z" fill="#758800"/>
<path d="M63.864 31.1689C60.6232 29.8754 58.9655 27.5966 58.5732 24.3185C61.3377 24.4306 63.6632 27.3584 63.864 31.1689Z" fill="#758800"/>
<path d="M84.7515 64.3801C87.8848 65.3141 89.7387 67.5181 90.0702 70.5114C90.1589 71.3192 90.0048 71.5014 89.2437 71.1138C86.54 69.7316 85.0597 67.5368 84.7515 64.3801Z" fill="#758800"/>
<path d="M17.7882 35.0718C17.9097 35.1466 18.0778 35.2399 18.2552 35.3473C20.6181 36.9257 21.1691 39.508 21.7948 42.0203C21.9536 42.66 21.2858 42.4359 20.9823 42.3332C20.1914 42.0632 19.4794 41.6024 18.9092 40.9915C18.339 40.3806 17.9283 39.6385 17.7135 38.8309C17.4383 37.7915 17.3295 36.715 17.3913 35.6415C17.4007 35.3894 17.4007 35.1419 17.7882 35.0718Z" fill="#758800"/>
<path d="M26.5486 17.6039C29.7286 18.5145 31.7926 21.3069 31.5591 24.3889C28.6172 23.6184 26.2964 20.4757 26.5486 17.6039Z" fill="#758800"/>
<path d="M87.9686 14.8594C84.5925 14.0002 82.5658 11.6887 82.323 8.54132C85.2275 8.80282 87.4596 11.2544 87.9686 14.8594Z" fill="#758800"/>
<path d="M64.0694 2.4306C63.8557 3.80809 63.2358 5.09048 62.2892 6.11369C61.3425 7.13689 60.1121 7.85436 58.7553 8.17429C58.1949 8.29571 57.8214 8.43113 58.0128 7.53922C58.3797 6.17103 59.1568 4.94802 60.2396 4.03471C61.3224 3.1214 62.6589 2.56159 64.0694 2.4306Z" fill="#758800"/>
<path d="M116.3 24.5261C117.869 22.1632 119.956 21.0518 122.637 21.0332C122.959 21.0332 123.389 20.8977 123.571 21.2153C123.828 21.6309 123.384 21.9251 123.188 22.2239C121.665 24.5074 119.233 25.3479 116.3 24.5261Z" fill="#758800"/>
<path d="M3.06501 64.6762C2.59804 64.5875 1.86958 64.8864 1.64076 64.368C1.41195 63.8497 2.0657 63.4341 2.41126 63.0652C3.07199 62.2731 3.93709 61.6772 4.91262 61.3422C5.88816 61.0071 6.93684 60.9457 7.94481 61.1646C8.24834 61.2207 8.70597 61.1133 8.81337 61.5382C8.92077 61.9632 8.51918 62.1219 8.29971 62.3601C7.65258 63.109 6.84747 63.7052 5.94232 64.1057C5.03717 64.5062 4.05449 64.701 3.06501 64.6762Z" fill="#758800"/>
<path d="M91.13 13.2034C89.5049 10.5324 89.8178 7.64652 91.8538 5.73196C92.1246 5.48447 92.3768 5.02684 92.7877 5.19028C93.1239 5.31636 93.0539 5.77866 93.1006 6.12421C93.3157 7.3765 93.2505 8.6609 92.9098 9.88498C92.569 11.1091 91.9612 12.2424 91.13 13.2034Z" fill="#758800"/>
<path d="M24.3169 25.2089C27.4082 24.5271 29.9205 25.6198 31.1346 28.0574C31.4475 28.6878 31.6343 29.1734 30.5883 29.08C29.301 29.0173 28.0506 28.6294 26.9539 27.9524C25.8571 27.2754 24.9499 26.3315 24.3169 25.2089Z" fill="#758800"/>
<path d="M138.117 48.7398C137.327 51.3641 133.741 53.2553 131.313 52.3354C130.482 52.0225 131.065 51.6676 131.276 51.4015C132.821 49.2814 135.324 48.3242 138.117 48.7398Z" fill="#758800"/>
<path d="M41.5897 35.1105C38.9934 33.4715 37.9847 31.3748 38.4424 28.6524C38.4891 28.3769 38.4424 28.008 38.7179 27.8679C39.1101 27.6858 39.3249 28.0827 39.5677 28.2835C41.585 29.9505 42.3182 32.3788 41.5897 35.1105Z" fill="#758800"/>
<path d="M72.7268 9.69029C73.3797 8.5454 74.3466 7.61123 75.5133 6.9981C76.68 6.38496 77.9978 6.11846 79.311 6.23007C79.9835 6.31412 79.9975 6.54294 79.7453 7.06594C78.5872 9.43813 75.3325 10.6616 72.7268 9.69029Z" fill="#758800"/>
<path d="M82.8556 51.5086C82.454 51.4152 81.7209 51.7655 81.5014 51.1724C81.338 50.7381 81.917 50.3412 82.2299 49.977C83.7849 48.1698 85.7695 47.6421 88.0623 48.0344C88.9308 48.1745 88.8888 48.5014 88.3705 49.0524C86.9276 50.6541 85.1718 51.602 82.8556 51.5086Z" fill="#758800"/>
<path d="M33.0674 26.3916V26.0741C33.0954 24.4911 34.2862 21.8994 34.9352 22.0489C35.5843 22.1983 36.2147 25.1542 35.9859 26.443C35.9416 26.7814 35.8586 27.1136 35.7384 27.433C35.3789 28.2455 35.1921 29.6231 34.3375 29.5577C33.5624 29.4923 33.4036 28.1147 33.1981 27.2228C33.1351 26.9492 33.0914 26.6714 33.0674 26.3916Z" fill="#758800"/>
<path d="M29.9293 68.258C28.2623 65.8812 28.0288 63.5884 29.3643 61.1274C29.8313 60.2542 30.1161 60.3196 30.5831 61.1555C31.8719 63.4623 31.7131 65.8952 29.9293 68.258Z" fill="#758800"/>
<path d="M119.872 31.5259C119.447 31.4231 118.798 31.736 118.565 31.2317C118.331 30.7274 118.91 30.3818 119.19 30.0129C120.591 28.1964 122.459 27.4866 124.691 27.622C125.499 27.6687 125.588 27.9442 125.158 28.5887C124.599 29.4866 123.82 30.2273 122.895 30.7412C121.971 31.255 120.93 31.5251 119.872 31.5259Z" fill="#758800"/>
<path d="M39.6423 62.3678C40.3288 59.4446 42.3461 57.6141 44.9658 57.4227C45.7036 57.3713 45.937 57.4974 45.6242 58.2865C45.1562 59.4915 44.3341 60.5265 43.2663 61.255C42.1985 61.9836 40.935 62.3716 39.6423 62.3678Z" fill="#758800"/>
<path d="M105.952 46.7462C106.186 49.4826 104.878 51.7754 102.553 52.8167C101.829 53.1483 101.619 53.0269 101.619 52.233C101.603 50.9603 102.024 49.7207 102.813 48.7218C103.602 47.7229 104.71 47.0255 105.952 46.7462Z" fill="#758800"/>
<path d="M116.841 37.5435C116.449 37.5062 116.057 37.5062 115.678 37.4315C115.09 37.3101 114.184 37.4315 114.072 36.7871C113.96 36.1426 114.758 35.8064 115.272 35.4469C116.981 34.2421 118.788 34.1814 120.67 34.9799C121.464 35.3301 121.679 35.6757 120.81 36.2174C119.645 37.0379 118.265 37.4989 116.841 37.5435Z" fill="#758800"/>
<path d="M102.636 59.5413C104.971 60.7321 106.246 62.5626 106.372 65.201C106.414 66.0742 106.274 66.3824 105.354 65.9107C102.902 64.6499 101.721 61.9789 102.636 59.5413Z" fill="#758800"/>
<path d="M120.204 69.9905C120.115 70.3081 120.423 70.7937 119.979 71.0039C119.653 71.158 119.34 70.8498 119.045 70.6863C117.033 69.5376 116.104 67.7818 116.09 65.4843C116.09 64.6858 116.304 64.5504 117.024 64.8913C117.983 65.3515 118.792 66.0755 119.355 66.9786C119.918 67.8816 120.212 68.9263 120.204 69.9905Z" fill="#758800"/>
<path d="M126.62 52.2267C127.35 52.2529 128.068 52.427 128.729 52.7384C129.391 53.0498 129.982 53.4921 130.468 54.0385C130.608 54.1926 130.678 54.4027 130.444 54.5055C129.231 55.1544 127.84 55.3936 126.48 55.1873C125.522 54.992 124.609 54.6216 123.785 54.0946C123.127 53.6976 123.248 53.4128 123.827 53.0859C124.68 52.5886 125.635 52.2945 126.62 52.2267Z" fill="#758800"/>
<path d="M94.1377 58.8307C95.2916 58.9709 96.3775 59.4525 97.256 60.2137C98.1345 60.975 98.7658 61.9812 99.0688 63.1034C99.2556 63.8786 98.9474 63.916 98.3404 63.8366C97.2249 63.6597 96.1821 63.1714 95.332 62.4279C94.4819 61.6843 93.8591 60.7158 93.5353 59.6339C93.3718 59.0128 93.3812 58.6252 94.1377 58.8307Z" fill="#758800"/>
<path d="M84.593 27.4232C84.7237 28.2731 84.3828 28.5159 83.4676 27.9835C82.5317 27.4876 81.7555 26.7366 81.2291 25.8175C80.7026 24.8985 80.4474 23.8491 80.493 22.7909C80.493 21.8009 80.8852 21.885 81.5297 22.2492C83.4722 23.3419 84.4949 25.009 84.593 27.4232Z" fill="#758800"/>
<path d="M89.2204 5.797C89.2274 5.89338 89.2274 5.99014 89.2204 6.08652C89.0803 6.843 89.113 7.89368 88.3565 8.10382C87.8148 8.25791 87.4225 7.25861 87.0023 6.74494C85.9469 5.47479 85.7555 3.94314 85.6247 2.35545C85.5547 1.53826 85.9236 1.60364 86.4933 1.82311C87.2924 2.13794 87.979 2.68456 88.465 3.39271C88.9509 4.10086 89.214 4.93817 89.2204 5.797Z" fill="#758800"/>
<path d="M115.963 48.1608C115.963 49.9119 112.858 52.6904 111.023 52.6437C110.35 52.6437 110.495 52.2094 110.556 51.8405C110.845 49.7064 113.166 47.6985 115.291 47.7218C115.608 47.7265 115.987 47.6471 115.963 48.1608Z" fill="#758800"/>
<path d="M139.881 53.6948C140.918 53.8489 142.618 53.8956 142.739 54.8295C142.861 55.7634 141.254 56.2304 140.194 56.5853C138.845 57.0149 137.589 56.6226 136.365 56.0576C135.847 55.8148 135.655 55.5906 136.202 55.1237C137.228 54.2385 138.527 53.7339 139.881 53.6948Z" fill="#758800"/>
<path d="M38.5918 56.3547C38.3863 57.4834 37.9154 58.5471 37.218 59.4581C36.5206 60.369 35.6166 61.1011 34.5806 61.594C34.0436 61.8742 33.8335 61.8275 33.7354 61.1784C33.659 60.5237 33.7323 59.8601 33.9499 59.2378C34.1674 58.6155 34.5235 58.0507 34.9912 57.5862C35.4589 57.1216 36.026 56.7694 36.6498 56.556C37.2735 56.3427 37.9376 56.2738 38.5918 56.3547Z" fill="#758800"/>
<path d="M49.239 68.8445C48.7253 68.9005 48.5759 68.7464 48.6599 68.1814C48.9681 66.1641 51.5224 63.9787 53.5631 64.0067C54.03 64.0067 54.1234 64.1654 54.0721 64.6137C53.8526 66.5983 51.2796 68.8678 49.239 68.8445Z" fill="#758800"/>
<path d="M15.0944 62.8837C14.6274 62.9398 14.394 62.8837 14.506 62.258C14.8796 60.2267 17.121 58.2234 19.2224 58.0553C20.0069 58.0039 19.9976 58.3728 19.8668 58.9425C19.3952 60.9738 17.1537 62.823 15.0944 62.8837Z" fill="#758800"/>
<path d="M78.027 12.0399C78.027 13.8097 74.6088 16.8403 72.9791 16.5181C72.4514 16.4153 72.5822 16.0511 72.6242 15.7382C72.9044 13.6416 75.2159 11.6196 77.2939 11.6196C77.6441 11.6196 78.0083 11.5636 78.027 12.0399Z" fill="#758800"/>
<path d="M0.622672 74.4264C0.225751 71.7554 1.22973 69.8455 3.55055 68.7014C4.36308 68.2998 4.65259 68.3698 4.62925 69.3505C4.57321 71.8534 3.17231 73.6746 0.622672 74.4264Z" fill="#758800"/>
<path d="M69.5331 1.72086C69.6031 3.50934 68.7766 4.90557 67.6279 6.17572C67.2076 6.64269 66.9741 6.56331 66.6939 6.00762C66.2408 5.07661 66.1329 4.01498 66.3895 3.01184C66.646 2.00871 67.2504 1.12924 68.0948 0.530097C68.4311 0.282605 68.7906 -0.165683 69.2296 0.0631303C69.5845 0.240578 69.4537 0.77292 69.5191 1.14649C69.535 1.33751 69.5396 1.5293 69.5331 1.72086Z" fill="#758800"/>
<path d="M101.711 18.5834C101.244 18.6581 101.044 18.4807 101.114 17.939C101.389 15.931 103.944 13.7643 106.022 13.769C106.488 13.769 106.619 13.8764 106.573 14.3434C106.376 16.2906 103.78 18.5834 101.711 18.5834Z" fill="#758800"/>
<path d="M112.741 14.1708C112.848 16.1227 112.101 17.5003 110.999 18.7471C110.532 19.2748 110.229 19.3822 109.879 18.607C109.499 17.7829 109.385 16.8611 109.552 15.9692C109.719 15.0774 110.16 14.2596 110.812 13.6291C111.279 13.2042 111.821 12.5504 112.41 12.7839C112.998 13.0174 112.657 13.8393 112.741 14.1708Z" fill="#758800"/>
<path d="M127.455 36.417C126.909 38.8265 125.489 40.3442 123.08 40.9466C122.281 41.1474 121.894 41.124 122.146 40.092C122.375 38.9072 123.059 37.8592 124.052 37.1724C125.044 36.4855 126.266 36.2144 127.455 36.417Z" fill="#758800"/>
<path d="M134.395 47.4856C133.816 47.6023 133.741 47.3548 133.844 46.8365C134.236 44.7725 136.585 42.7599 138.635 42.7039C139.279 42.7039 139.368 42.9047 139.251 43.4697C138.831 45.5383 136.459 47.5183 134.395 47.4856Z" fill="#758800"/>
<path d="M72.6199 44.9864C73.2409 42.1566 74.9874 40.4942 77.3783 40.3167C78.1207 40.256 78.2141 40.4708 78.046 41.1152C77.4203 43.5014 75.3423 45.0471 72.6199 44.9864Z" fill="#758800"/>
<path d="M15.8222 57.5751C14.9139 58.3059 13.8144 58.7596 12.6551 58.8822C11.4958 59.0047 10.3257 58.7909 9.28468 58.2662C8.47683 57.8366 8.93445 57.5611 9.30803 57.2295C11.2459 55.4644 13.8796 55.6092 15.8222 57.5751Z" fill="#758800"/>
<path d="M113.396 20.8291C113.56 19.7356 114.102 18.7342 114.928 17.9989C115.753 17.2635 116.811 16.8407 117.916 16.8038C118.541 16.8038 118.817 16.8926 118.555 17.6257C118.239 18.6001 117.666 19.4715 116.897 20.1485C116.128 20.8255 115.191 21.2832 114.185 21.4735C113.606 21.6183 113.181 21.5809 113.396 20.8291Z" fill="#758800"/>
<path d="M24.6249 68.3879C24.7229 70.3678 23.789 71.722 22.3834 72.8334C21.7764 73.3004 21.4962 73.2023 21.3421 72.4272C20.9779 70.6153 21.3421 69.037 22.7056 67.7575C23.1726 67.3372 23.6396 66.6368 24.2653 66.8796C24.891 67.1224 24.5362 67.9303 24.6249 68.3879Z" fill="#758800"/>
<path d="M97.4904 17.0916C97.8546 17.1616 98.3963 16.8768 98.6251 17.3391C98.8119 17.7033 98.4103 18.0442 98.2376 18.3804C97.1962 20.3884 95.375 21.0188 93.2924 21.1822C92.3584 21.2616 92.662 20.7153 92.8254 20.2483C93.3811 18.4738 95.305 17.1616 97.4904 17.0916Z" fill="#758800"/>
<path d="M16.8828 28.3745C17.9492 28.4381 18.958 28.8796 19.7282 29.6199C20.4985 30.3602 20.9797 31.3507 21.0855 32.4137C21.1275 33.0955 21.0154 33.4364 20.1983 33.1796C19.2553 32.9035 18.398 32.3923 17.707 31.6939C17.0159 30.9955 16.5138 30.1328 16.2477 29.187C16.0002 28.4772 16.2851 28.2951 16.8828 28.3745Z" fill="#758800"/>
<path d="M34.87 18.9597C34.9354 19.5901 34.7953 19.8937 34.0528 19.6462C33.1056 19.3801 32.2412 18.8788 31.5399 18.1889C30.8385 17.499 30.3231 16.6429 30.0415 15.7003C29.7707 14.9065 30.1256 14.7664 30.8167 14.8271C31.8755 14.9156 32.8673 15.3816 33.6113 16.1402C34.3553 16.8987 34.802 17.8994 34.87 18.9597Z" fill="#758800"/>
<path d="M96.4253 38.7531C98.1391 36.7965 100.53 36.3202 102.762 37.4269C103.533 37.8098 103.57 38.0853 102.907 38.627C101.006 40.154 98.5733 40.224 96.4253 38.7531Z" fill="#758800"/>
<path d="M15.3741 44.4384C12.9692 43.5605 11.7458 41.5993 12.0026 39.1384C12.0727 38.4659 12.2174 38.2932 12.8852 38.6014C15.122 39.624 16.1446 41.9682 15.3741 44.4384Z" fill="#758800"/>
<path d="M78.1809 19.2411C78.321 20.8895 77.5272 22.183 76.4858 23.4158C75.8414 24.177 75.5986 23.8267 75.3091 23.1683C74.9123 22.2662 74.8378 21.2551 75.098 20.3046C75.3581 19.3541 75.9372 18.5219 76.738 17.9476C77.0789 17.6955 77.4431 17.2472 77.8774 17.4386C78.3117 17.6301 78.1109 18.2091 78.1763 18.6154C78.1944 18.8235 78.1959 19.0327 78.1809 19.2411Z" fill="#758800"/>
<path d="M52.2412 61.5658C51.5407 61.6592 51.3072 61.4491 51.5968 60.6786C51.9618 59.6894 52.6315 58.8416 53.5093 58.2575C54.3871 57.6734 55.4278 57.3831 56.4812 57.4285C57.1116 57.4752 57.3498 57.5966 57.0603 58.3017C56.6729 59.2635 56.0073 60.0878 55.1489 60.6693C54.2904 61.2507 53.278 61.5629 52.2412 61.5658Z" fill="#758800"/>
<path d="M69.4724 21.8841C69.5518 22.5052 69.4351 22.7947 68.6832 22.5519C67.717 22.2825 66.8367 21.7683 66.1275 21.0591C65.4182 20.3498 64.904 19.4695 64.6346 18.5033C64.3965 17.7421 64.7234 17.7095 65.3258 17.7281C66.4036 17.7996 67.4187 18.2607 68.1816 19.0254C68.9446 19.79 69.4034 20.8061 69.4724 21.8841Z" fill="#758800"/>
<path d="M3.3406 58.5496C2.69151 58.6197 2.55142 58.3909 2.76156 57.7091C3.04526 56.7493 3.59108 55.8877 4.33765 55.2212C5.08422 54.5546 6.00194 54.1095 6.98761 53.936C7.71607 53.8286 7.96357 53.992 7.80947 54.7672C7.58243 55.8005 7.022 56.7305 6.21449 57.4139C5.40698 58.0974 4.39718 58.4964 3.3406 58.5496Z" fill="#758800"/>
<path d="M41.9912 19.329C43.0591 19.3899 44.0688 19.8354 44.8336 20.5831C45.5985 21.3308 46.0668 22.3301 46.1519 23.3963C46.2173 24.1948 45.9838 24.3302 45.26 24.1154C44.3161 23.8387 43.4592 23.324 42.7715 22.6207C42.0838 21.9175 41.5884 21.0493 41.3328 20.0995C41.09 19.3243 41.4309 19.245 41.9912 19.329Z" fill="#758800"/>
<path d="M104.443 20.4083C105.074 23.2101 104.443 25.1013 102.533 26.4788C101.852 26.9738 101.562 26.9178 101.394 26.0446C100.936 23.5603 101.908 21.6224 104.443 20.4083Z" fill="#758800"/>
<path d="M94.8658 51.4699C94.3335 51.4979 94.0486 51.4232 94.2261 50.7274C94.5109 49.7343 95.0682 48.8408 95.835 48.1483C96.6018 47.4559 97.5472 46.9921 98.5642 46.8096C99.4421 46.6602 99.4514 47.0244 99.3393 47.6735C99.1162 48.7108 98.5567 49.6454 97.7477 50.3319C96.9387 51.0184 95.9256 51.4185 94.8658 51.4699Z" fill="#758800"/>
<path d="M131.798 42.6176C131.658 44.7329 130.58 46.1712 128.684 47.0677C128.016 47.3853 127.726 47.2919 127.652 46.5167C127.58 45.481 127.876 44.4532 128.487 43.6143C129.099 42.7754 129.987 42.1794 130.995 41.9311C131.756 41.7677 131.85 41.8564 131.798 42.6176Z" fill="#758800"/>
<path d="M17.27 67.3849C17.2856 66.3895 17.6324 65.4276 18.2556 64.6513C18.8789 63.875 19.743 63.3285 20.7116 63.0981C21.6455 62.8646 21.8323 63.2289 21.6455 64.0647C21.4885 64.96 21.0935 65.7966 20.5019 66.4867C19.9104 67.1769 19.1441 67.6951 18.2833 67.9873C17.4008 68.3235 17.0879 68.104 17.27 67.3849Z" fill="#758800"/>
<path d="M33.1097 39.2186C32.1811 39.2389 31.2659 38.9944 30.4713 38.5135C30.0043 38.266 29.2105 38.1212 29.2385 37.6309C29.2759 37.0005 30.0324 36.7343 30.6161 36.4915C31.359 36.1765 32.1834 36.1085 32.9679 36.2977C33.7523 36.4869 34.4552 36.9232 34.9729 37.5422C35.8041 38.5462 35.6967 38.8544 34.4125 39.0739C33.9829 39.1252 33.5439 39.1486 33.1097 39.2186Z" fill="#758800"/>
<path d="M23.0371 32.3021C23.8207 31.5954 24.7937 31.133 25.8366 30.9721C26.8795 30.8111 27.9467 30.9586 28.9069 31.3962C29.6774 31.7138 29.7521 32.0266 29.1404 32.6197C27.3519 34.3428 24.8956 34.2447 23.0371 32.3021Z" fill="#758800"/>
<path d="M106.946 43.1783C107.89 43.1893 108.803 43.5178 109.537 44.1108C110.272 44.7038 110.785 45.5267 110.995 46.4471C111.167 47.1849 110.957 47.409 110.22 47.3577C109.316 47.2927 108.451 46.9663 107.729 46.4182C107.008 45.8702 106.462 45.1241 106.157 44.271C105.807 43.3698 106.017 42.9869 106.946 43.1783Z" fill="#758800"/>
<path d="M122.982 64.85C123.973 64.8383 124.939 65.1658 125.719 65.7782C126.498 66.3905 127.045 67.251 127.269 68.2168C127.423 68.9593 127.241 69.1741 126.489 69.1041C125.556 69.0306 124.666 68.6802 123.933 68.0979C123.2 67.5156 122.657 66.7277 122.375 65.8353C122.141 65.1582 122.174 64.7753 122.982 64.85Z" fill="#758800"/>
<path d="M13.4129 48.945C13.1934 47.7916 13.6324 47.6141 14.655 48.1184C15.4569 48.4814 16.1326 49.075 16.5958 49.8235C17.0591 50.572 17.2889 51.4415 17.256 52.3211C17.256 53.1197 17.0599 53.3952 16.238 53.0169C14.4822 52.2324 13.4269 50.9809 13.4129 48.945Z" fill="#758800"/>
<path d="M7.92616 42.3223C7.79074 41.3136 8.25303 41.2763 9.10291 41.6779C9.9361 42.0348 10.6407 42.6372 11.1229 43.4047C11.6051 44.1722 11.842 45.0684 11.802 45.974C11.802 46.8612 11.4844 46.9079 10.742 46.6184C9.88334 46.2852 9.15033 45.692 8.64546 44.9217C8.14058 44.1514 7.88909 43.2425 7.92616 42.3223Z" fill="#758800"/>
<path d="M43.6769 12.3298C43.6116 12.7594 43.8404 13.3945 43.3454 13.628C42.8504 13.8615 42.4488 13.3758 42.0566 13.1143C41.3322 12.6485 40.7634 11.9769 40.4231 11.1857C40.0828 10.3945 39.9866 9.51973 40.1467 8.67348C40.2727 7.97303 40.5342 7.86563 41.1133 8.18316C42.743 9.07507 43.6863 10.3826 43.6769 12.3298Z" fill="#758800"/>
<path d="M137.57 66.7399C137.645 66.3757 137.393 65.806 137.86 65.5865C138.327 65.3671 138.686 65.778 139.055 65.9835C139.863 66.4138 140.504 67.101 140.878 67.9364C141.252 68.7719 141.337 69.708 141.119 70.5971C140.979 71.1995 140.792 71.3115 140.237 71.0127C138.537 70.1068 137.566 68.7619 137.57 66.7399Z" fill="#758800"/>
<path d="M87.4224 59.2122C88.3542 59.2387 89.2507 59.5742 89.9709 60.1659C90.6912 60.7576 91.1942 61.572 91.401 62.4809C91.6158 63.3261 91.359 63.4896 90.5558 63.3915C89.6769 63.3291 88.8358 63.0093 88.1374 62.472C87.439 61.9348 86.9143 61.2038 86.6286 60.3702C86.227 59.2962 86.3251 59.1701 87.4224 59.2122Z" fill="#758800"/>
<path d="M69.6498 12.2786C69.5798 12.6942 69.8273 13.3573 69.4303 13.6095C68.9167 13.9317 68.4357 13.3807 68.0061 13.0912C66.4698 12.0498 65.9701 10.5462 66.1382 8.74836C66.2036 7.94051 66.5351 7.84712 67.1796 8.20201C68.7439 9.07991 69.6498 10.3594 69.6498 12.2786Z" fill="#758800"/>
<path d="M94.6184 65.7433C95.5784 65.7521 96.5074 66.0847 97.2549 66.6873C98.0024 67.2898 98.5246 68.1271 98.737 69.0634C98.8818 69.7218 98.8724 70.0721 98.0179 69.9973C97.0894 69.9391 96.2008 69.599 95.4707 69.0225C94.7406 68.4459 94.2038 67.6603 93.9319 66.7706C93.6097 65.8367 93.6704 65.7339 94.6184 65.7433Z" fill="#758800"/>
<path d="M44.3915 14.5076C44.2981 13.7744 44.5176 13.4756 45.3722 13.7651C46.2566 14.0592 47.0269 14.6224 47.5753 15.376C48.1238 16.1296 48.4229 17.0358 48.4308 17.9678C48.4308 18.7009 48.244 18.9017 47.4969 18.6822C46.5915 18.426 45.7961 17.8778 45.2345 17.1228C44.6729 16.3678 44.3766 15.4484 44.3915 14.5076Z" fill="#758800"/>
<path d="M9.64941 69.9865C9.14976 69.9351 8.39327 70.0565 8.13177 69.5195C7.87027 68.9825 8.49601 68.5856 8.79486 68.1559C9.75215 66.7784 11.153 66.4048 12.7361 66.4188C13.4459 66.4188 13.5346 66.7177 13.3478 67.3294C13.095 68.1087 12.5998 68.7867 11.9345 69.2647C11.2692 69.7427 10.4686 69.9956 9.64941 69.9865Z" fill="#758800"/>
<path d="M48.7528 50.5555C46.6 50.4061 45.0544 48.9258 44.9143 47.0673C44.8583 46.3108 45.1478 46.2827 45.7595 46.3855C46.614 46.4805 47.4233 46.8188 48.0913 47.3601C48.7593 47.9015 49.2579 48.6231 49.5279 49.4394C49.8875 50.4247 49.5933 50.7049 48.7528 50.5555Z" fill="#758800"/>
<path d="M139.097 59.1346C140.068 59.1257 141.013 59.4535 141.769 60.0622C142.526 60.6709 143.049 61.5229 143.249 62.4734C143.412 63.1645 143.249 63.3233 142.581 63.3092C141.646 63.2778 140.742 62.9619 139.991 62.4037C139.241 61.8455 138.678 61.0716 138.378 60.1852C138.056 59.298 138.257 58.9991 139.097 59.1346Z" fill="#758800"/>
<path d="M131.467 57.3843C132.38 57.4037 133.261 57.7242 133.973 58.2959C134.684 58.8676 135.187 59.6586 135.403 60.5457C135.595 61.2835 135.492 61.6197 134.605 61.5497C133.721 61.489 132.874 61.1704 132.17 60.6334C131.465 60.0964 130.933 59.3645 130.64 58.5284C130.257 57.4684 130.356 57.347 131.467 57.3843Z" fill="#758800"/>
<path d="M49.6638 31.2785C49.6618 30.3308 50.0134 29.4164 50.6499 28.7143C51.2864 28.0121 52.162 27.5727 53.1053 27.482C53.8852 27.4027 54.2074 27.6128 53.9692 28.444C53.7807 29.2502 53.3929 29.9963 52.8414 30.6138C52.29 31.2314 51.5924 31.7007 50.8125 31.9789C49.93 32.3198 49.5004 32.2451 49.6638 31.2785Z" fill="#758800"/>
<path d="M108.058 32.3428C108.508 32.3945 108.953 32.4836 109.388 32.609C109.953 32.8098 110.892 32.7631 110.943 33.4215C110.995 34.0799 110.234 34.5142 109.631 34.8224C108.935 35.2379 108.111 35.3851 107.314 35.2363C106.517 35.0876 105.802 34.6532 105.302 34.0146C105.12 33.8091 104.761 33.4822 104.99 33.2861C105.83 32.5857 106.89 32.4409 108.058 32.3428Z" fill="#758800"/>
<path d="M146.377 72.7927C146.369 73.0071 146.347 73.2208 146.311 73.4324C146.181 74.2216 145.845 74.3663 145.135 73.8994C144.337 73.374 143.718 72.6179 143.361 71.7319C143.004 70.8458 142.925 69.872 143.136 68.9402C143.29 68.3425 143.51 68.2304 144.037 68.5433C145.532 69.4118 146.503 70.5839 146.377 72.7927Z" fill="#758800"/>
<path d="M131.336 64.1666C132.263 64.1693 133.163 64.4786 133.896 65.0461C134.629 65.6137 135.154 66.4077 135.389 67.3046C135.66 68.2386 135.338 68.4067 134.483 68.3226C133.602 68.2402 132.763 67.9025 132.071 67.351C131.378 66.7994 130.862 66.0579 130.584 65.2173C130.267 64.3207 130.537 64.0312 131.336 64.1666Z" fill="#758800"/>
<path d="M72.0919 33.4311C72.0219 34.7713 71.6483 36.0881 70.6303 36.2329C69.8692 36.3636 69.5516 34.944 69.2294 34.0848C69.0189 33.5319 69.0057 32.9232 69.1921 32.3617C69.4209 31.708 69.3181 30.5826 70.0513 30.5545C70.7844 30.5265 71.4195 31.4044 71.7464 32.2029C71.8924 32.603 72.0079 33.0136 72.0919 33.4311Z" fill="#758800"/>
<path d="M35.6594 67.2813C35.6809 67.0461 35.7152 66.8123 35.7622 66.5809C35.9536 65.8991 35.8789 64.8157 36.612 64.713C37.3452 64.6103 37.8822 65.4975 38.2651 66.198C38.3367 66.3273 38.3992 66.4614 38.4519 66.5995C38.9189 67.9444 38.5406 69.0978 37.658 70.1298C37.4899 70.3259 37.2238 70.6622 36.9483 70.3493C36.182 69.5031 35.7273 68.4209 35.6594 67.2813Z" fill="#758800"/>
<path d="M37.387 45.9046C36.9201 45.8486 36.1402 46.0214 35.8647 45.4657C35.5892 44.91 36.2009 44.5037 36.4998 44.0648C36.8534 43.5345 37.3358 43.1026 37.9017 42.8094C38.4677 42.5162 39.0987 42.3713 39.7359 42.3884C40.2028 42.3884 40.7959 42.1316 41.0574 42.6312C41.3189 43.1309 40.922 43.5651 40.6838 43.9854C40.3763 44.5879 39.902 45.0891 39.3174 45.4294C38.7329 45.7697 38.0628 45.9347 37.387 45.9046Z" fill="#758800"/>
<path d="M72.6849 5.52606C72.1058 5.63813 71.947 5.37196 71.9844 4.79292C72.0763 3.88528 72.4888 3.04014 73.1478 2.40933C73.8069 1.77853 74.6693 1.40341 75.58 1.35138C76.1591 1.35138 76.3552 1.51015 76.3038 2.11253C76.2251 3.02664 75.8126 3.87978 75.1452 4.50933C74.4778 5.13887 73.602 5.50078 72.6849 5.52606Z" fill="#758800"/>
<path d="M108.025 25.6446C108.104 24.7601 108.499 23.9334 109.137 23.3154C109.774 22.6974 110.613 22.3291 111.5 22.2778C112.149 22.2077 112.359 22.3478 112.303 23.0389C112.213 23.9418 111.805 24.7833 111.151 25.4123C110.497 26.0413 109.641 26.4167 108.735 26.4711C108.067 26.5038 107.81 26.289 108.025 25.6446Z" fill="#758800"/>
<path d="M23.2096 25.6749C23.2656 27.1085 22.8593 28.4487 21.8834 28.6215C20.9074 28.7943 20.7393 27.3327 20.4264 26.4688C20.2904 26.1019 20.2549 25.7053 20.3237 25.3201C20.4918 24.4935 20.4638 23.0973 21.2576 23.088C22.3363 23.088 22.92 24.274 23.1909 25.3667C23.2173 25.4673 23.2237 25.572 23.2096 25.6749Z" fill="#758800"/>
<path d="M53.5157 33.9876C53.6091 35.6967 52.6565 36.8267 51.2322 37.6906C50.6719 38.0315 50.4104 37.9708 50.2096 37.303C49.9353 36.4613 50.0016 35.5455 50.3944 34.752C50.7872 33.9586 51.4752 33.3506 52.3109 33.0583C53.2075 32.7081 53.7725 32.7455 53.5157 33.9876Z" fill="#758800"/>
<path d="M115.413 27.0777C116.347 27.1524 117.841 27.512 117.892 28.5393C117.939 29.4732 116.393 29.8842 115.333 29.9916C114.75 30.0651 114.158 29.9864 113.615 29.763C113.071 29.5395 112.595 29.1791 112.233 28.7168C111.901 28.2918 114.012 27.0777 115.413 27.0777Z" fill="#758800"/>
<path d="M135.104 36.2278C135.015 37.1119 134.613 37.935 133.971 38.5495C133.329 39.164 132.489 39.5296 131.602 39.5806C130.986 39.6273 130.715 39.5339 130.775 38.8241C130.869 37.9211 131.282 37.0811 131.939 36.4548C132.596 35.8284 133.455 35.4565 134.362 35.4059C135.048 35.3779 135.24 35.6441 135.104 36.2278Z" fill="#758800"/>
<path d="M83.7012 32.9425C82.1322 32.9425 80.9694 32.0693 80.2083 30.5237C79.8954 29.8932 80.0962 29.6644 80.7219 29.529C81.5391 29.3204 82.4043 29.4173 83.155 29.8017C83.9057 30.1861 84.4902 30.8314 84.7986 31.6164C85.2982 32.7838 85.1768 32.9659 83.7012 32.9425Z" fill="#758800"/>
<path d="M117.383 61.8097C116.646 61.8967 115.901 61.7532 115.249 61.3988C114.782 61.1653 113.997 61.0019 113.997 60.5162C113.997 59.8765 114.702 59.5262 115.277 59.232C115.802 58.9612 116.392 58.843 116.981 58.8912C118.055 58.9705 119.937 60.2033 119.699 60.7917C119.255 61.8797 118.018 61.6323 117.383 61.8097Z" fill="#758800"/>
<path d="M7.11403 74.6037C7.09476 73.8334 7.35668 73.0824 7.85084 72.4911C8.345 71.8999 9.03756 71.5088 9.79909 71.391C10.1587 71.3256 10.5462 71.1108 10.733 71.6992C11.0459 72.6752 10.196 74.6177 9.05661 75.3229C8.58964 75.6171 8.07131 76.1634 7.50161 75.8832C7.07667 75.6778 7.20742 75.0147 7.11403 74.6037Z" fill="#758800"/>
<path d="M128.604 30.0292C129.73 30.0292 131.785 31.0565 131.537 31.5048C130.963 32.5601 129.833 32.8263 128.735 32.9804C128.687 32.9874 128.638 32.9874 128.59 32.9804C127.498 32.8637 126.419 32.5975 125.789 31.6589C125.471 31.2246 127.484 30.0479 128.604 30.0292Z" fill="#758800"/>
<path d="M56.9671 68.7356C56.9671 70.4821 56.0332 71.5748 54.6836 72.4153C53.9832 72.8449 53.7497 72.5414 53.5863 71.911C53.3524 71.109 53.4268 70.2486 53.7949 69.4986C54.1629 68.7487 54.7981 68.1634 55.5755 67.8577C56.5141 67.4655 57.2333 67.3861 56.9671 68.7356Z" fill="#758800"/>
<path d="M117.103 44.131C116.334 44.1797 115.569 43.9989 114.904 43.6114C114.239 43.2239 113.704 42.6473 113.367 41.9549C112.853 41.021 113.171 40.7641 114.086 40.6661C114.865 40.5319 115.666 40.6722 116.352 41.0632C117.039 41.4541 117.568 42.0714 117.85 42.8095C118.308 43.8228 118.158 44.3551 117.103 44.131Z" fill="#758800"/>
<path d="M84.3217 20.6977C83.2336 20.5109 82.0475 20.3848 81.4778 19.2968C81.2537 18.8578 83.3831 17.7418 84.4244 17.7511C85.4657 17.7604 87.4643 18.8018 87.2262 19.236C86.6005 20.2634 85.4797 20.5389 84.3217 20.6977Z" fill="#758800"/>
<path d="M32.6102 49.9061C32.6102 48.5473 32.8904 48.3978 34.1512 48.9722C35.5848 49.6493 36.1825 50.8401 36.3226 52.3297C36.3833 52.9414 36.2246 53.2076 35.5148 53.1235C34.7102 53.0627 33.9598 52.6947 33.4191 52.0957C32.8784 51.4968 32.5888 50.7128 32.6102 49.9061Z" fill="#758800"/>
<path d="M100.003 10.7747C100.596 10.7747 100.727 11.0082 100.638 11.5919C100.526 12.418 100.128 13.1786 99.5125 13.741C98.8972 14.3034 98.1039 14.6319 97.2711 14.6692C96.6361 14.7159 96.3932 14.5525 96.4353 13.8801C96.5035 12.9979 96.9158 12.1778 97.5832 11.5969C98.2506 11.0159 99.1197 10.7206 100.003 10.7747Z" fill="#758800"/>
<path d="M59.1615 32.4921C59.2689 32.9871 59.1101 33.2066 58.5684 33.2019C58.0931 33.1749 57.6293 33.0457 57.2084 32.8232C56.7876 32.6007 56.4197 32.29 56.1298 31.9124C55.84 31.5347 55.6349 31.0991 55.5287 30.635C55.4225 30.1709 55.4177 29.6894 55.5145 29.2233C55.6545 28.6303 55.902 28.5789 56.4484 28.7564C57.2435 29.0024 57.9375 29.4994 58.4265 30.1728C58.9156 30.8462 59.1734 31.6599 59.1615 32.4921Z" fill="#758800"/>
<path d="M105.139 10.0372C105.107 11.1953 104.037 12.9931 103.589 12.7503C102.622 12.2273 102.244 11.242 102.188 10.1866C102.132 9.13129 103.262 7.19805 103.701 7.46422C104.126 7.75049 104.477 8.13247 104.727 8.57939C104.976 9.0263 105.118 9.52566 105.139 10.0372Z" fill="#758800"/>
<path d="M61.7817 36.6995C61.7817 37.6661 60.6657 39.5433 60.2781 39.2958C59.8203 39.0104 59.4451 38.6104 59.1895 38.1353C58.934 37.6603 58.807 37.1267 58.8211 36.5874C58.8211 35.5741 59.8298 33.893 60.3575 33.9444C60.8851 33.9958 61.8004 35.7796 61.7817 36.6995Z" fill="#758800"/>
<path d="M5.20851 48.9203C5.20851 47.6128 5.46067 47.5194 6.67012 48.0331C8.13172 48.6775 8.72944 49.8449 8.89288 51.3532C8.96759 52.035 8.73878 52.1984 8.09436 52.1564C7.28408 52.1058 6.52648 51.7376 5.98613 51.1317C5.44578 50.5257 5.16634 49.7311 5.20851 48.9203Z" fill="#758800"/>
<path d="M12.3252 34.3165C12.3252 32.9156 12.5913 32.7382 13.8288 33.3312C15.2624 34.0177 15.8695 35.1991 16.0282 36.7121C16.1029 37.4312 15.8134 37.5246 15.1924 37.4545C14.4055 37.393 13.6714 37.0345 13.139 36.4518C12.6066 35.8691 12.3157 35.1058 12.3252 34.3165Z" fill="#758800"/>
<path d="M33.2777 44.821C33.3524 45.3533 33.1189 45.4794 32.6053 45.4701C30.658 45.4374 29.047 43.238 29.64 41.4215C29.8175 40.8845 30.107 40.9218 30.5366 41.0572C31.3352 41.3102 32.0319 41.8119 32.5251 42.4891C33.0183 43.1662 33.282 43.9833 33.2777 44.821Z" fill="#758800"/>
<path d="M60.6793 64.1039C60.5533 65.1359 60.1844 66.1633 59.1664 66.7049C58.7508 66.9291 57.6067 64.8371 57.7141 63.9031C57.8355 62.8571 58.2184 61.8718 59.1897 61.3628C59.5773 61.1667 60.6747 63.1326 60.6793 64.1039Z" fill="#758800"/>
<path d="M98.499 4.75738C99.3582 4.58927 99.4843 5.02822 99.2882 5.83607C99.1384 6.55295 98.7653 7.20394 98.2225 7.69557C97.6797 8.18721 96.9951 8.49421 96.2669 8.57249C95.4404 8.6799 95.0948 8.46509 95.2303 7.56384C95.3214 6.77034 95.7088 6.04048 96.3148 5.52017C96.9208 4.99987 97.7009 4.72745 98.499 4.75738Z" fill="#758800"/>
<path d="M61.7344 68.7122C61.7857 67.4328 62.5142 66.7136 63.5602 66.2467C63.8918 66.0972 64.2046 66.0412 64.3914 66.4988C64.7883 67.4748 65.0592 68.4461 64.3541 69.4034C63.8871 70.0057 63.28 70.6782 62.6123 70.5241C61.8605 70.3466 61.9072 69.3613 61.7344 68.7122Z" fill="#758800"/>
<path d="M42.5652 49.9174C42.3411 50.3843 42.822 51.3183 41.8087 51.4163C40.674 51.5237 39.4085 50.1042 39.5159 48.8714C39.5673 48.2456 39.4459 47.3771 40.3051 47.1996C41.2344 47.0082 42.5652 48.6099 42.5652 49.9174Z" fill="#758800"/>
<path d="M58.8814 47.5061C58.5405 47.9404 59.1989 49.0378 58.0502 49.0938C56.9014 49.1498 55.776 47.8563 55.8087 46.6376C55.8087 45.9558 55.72 45.0359 56.6353 44.8911C57.5505 44.7463 58.858 46.2827 58.8814 47.5061Z" fill="#758800"/>
<path d="M82.4448 3.8504C82.0665 4.24265 82.7717 5.39139 81.5108 5.3587C80.903 5.29064 80.3436 4.99438 79.9457 4.52978C79.5479 4.06517 79.3412 3.46687 79.3675 2.85576C79.4095 2.22068 79.2134 1.24005 80.236 1.21203C81.3661 1.18402 82.4494 2.54756 82.4448 3.8504Z" fill="#758800"/>
<path d="M25.8204 39.4153C25.6149 39.8822 25.9931 40.7461 25.0639 40.8162C23.9478 40.9189 22.6777 39.476 22.7991 38.2152C22.8598 37.6128 22.659 36.6882 23.6396 36.6135C24.7137 36.5528 25.8764 38.0657 25.8204 39.4153Z" fill="#758800"/>
<path d="M111.989 64.9795C111.751 65.4092 112.256 66.3804 111.182 66.4365C110.108 66.4925 108.847 65.1523 108.926 63.9616C108.973 63.3078 108.777 62.3272 109.767 62.1917C110.757 62.0563 112.003 63.6207 111.989 64.9795Z" fill="#758800"/>
<path d="M110.159 58.624L110.435 58.6661C110.299 58.8575 110.267 58.6147 110.178 58.6053L110.159 58.624Z" fill="#758800"/>
<path d="M54.9261 35.9478L54.73 35.6583L54.8467 35.6116C54.8467 35.7284 54.8841 35.8498 54.8981 35.9665L54.9261 35.9478Z" fill="#758800"/>
<path d="M53.1476 48.3121L53.1189 48.2786L53.1524 48.3217L53.1476 48.3121Z" fill="#758800"/>
<path d="M75.8415 80.8634C75.2858 85.8506 75.3745 90.2587 79.1102 93.6209C83.0421 97.1511 87.0487 100.593 91.0459 104.067C94.4174 106.999 97.6862 110.025 100.054 113.873C101.559 116.233 102.444 118.935 102.627 121.728C101.764 121.764 100.901 121.753 100.04 121.695C99.8738 121.639 99.7242 121.543 99.6038 121.416C99.4833 121.289 99.3957 121.135 99.3486 120.966C98.6388 116.563 96.0798 113.252 92.9885 110.301C90.5556 107.966 87.9406 105.813 85.3956 103.591C82.2296 100.826 79.0495 98.0757 75.7901 95.2459C75.7204 95.5533 75.6736 95.8655 75.65 96.1799C75.65 98.4353 75.692 100.691 75.65 102.942C75.5938 103.704 75.7179 104.468 76.0124 105.173C76.3069 105.878 76.7635 106.504 77.3451 106.999C79.213 108.582 81.1555 110.072 83.0608 111.608C85.8626 113.883 88.0993 116.544 88.7297 120.252C88.7998 120.668 88.8185 121.097 88.8698 121.63H85.7458C84.9613 115.802 79.9228 113.602 75.8134 110.137C75.7434 110.801 75.664 111.202 75.6593 111.599C75.6593 114.345 75.6593 117.086 75.6593 119.832C75.6593 121.83 75.6593 121.83 73.6047 121.7C73.3152 121.676 73.0303 121.625 72.5494 121.564V110.511C72.2598 110.418 72.1244 110.334 72.0824 110.362C69.458 112.542 66.787 114.667 64.2607 116.951C63.5462 117.6 63.1353 118.674 62.7897 119.626C61.9679 121.896 61.8558 121.998 59.3202 121.466C59.411 118.808 60.4803 116.277 62.3228 114.359C63.8578 112.779 65.516 111.324 67.282 110.007C72.484 106.056 72.5073 106.089 72.5073 99.5327V94.919C72.2175 95.0662 71.9382 95.2331 71.6715 95.4187C68.0385 98.6268 64.3868 101.811 60.8005 105.071C58.1201 107.504 55.4303 109.941 52.9321 112.542C50.5386 115.003 49.0039 118.17 48.5566 121.573H45.6241C45.6315 119.515 46.1447 117.49 47.1183 115.676C49.1823 111.445 52.4464 108.204 55.9253 105.15C59.3202 102.185 62.8084 99.3319 66.236 96.3993C67.0905 95.6709 67.875 94.8583 68.6689 94.0645C71.3119 91.4168 72.9743 88.3862 72.526 84.473C72.4647 83.3017 72.4647 82.128 72.526 80.9567C72.1478 81.1295 71.9329 81.1575 71.8349 81.279C67.6695 86.3642 62.4535 90.2961 57.3589 94.354C52.0542 98.6221 46.6607 102.801 42.2526 108.055C38.9838 111.954 36.5509 116.25 36.182 121.545H33.1514C33.2961 120.378 33.3568 119.271 33.5763 118.193C34.669 112.879 37.4428 108.386 41.2019 104.674C45.5774 100.341 50.3217 96.376 54.9587 92.318C58.7925 88.9606 62.7851 85.7805 66.5582 82.3763C70.5694 78.748 73.2638 74.4379 72.5167 68.6802C72.3999 67.8023 72.6894 67.354 73.7028 67.312C75.65 67.2373 75.8134 67.1952 75.622 69.1798C75.155 73.9149 76.9155 77.8001 80.2403 80.9241C84.2329 84.6598 88.4682 88.162 92.5822 91.7857C97.3219 95.9604 102.188 100.004 106.717 104.394C110.313 107.776 112.918 112.076 114.249 116.829C114.656 118.328 114.829 119.883 115.141 121.592H111.873C111.149 113.313 106.026 107.663 100.297 102.447C96.855 99.3225 93.1799 96.4554 89.5563 93.5181C84.8026 89.689 79.9694 85.9159 75.8415 80.8634Z" fill="#B5A642"/>
<path d="M74.5713 68.9208C74.4546 67.1276 74.3612 65.2784 74.8609 63.532C75.2811 62.0884 76.1454 60.814 77.3311 59.8896C79.7593 57.9517 83.0234 57.2839 86.012 56.7983C89.8639 56.1748 93.7742 55.9915 97.6675 56.2519C99.6661 56.3827 101.637 56.6582 103.612 56.9711C105.51 57.3113 107.426 57.5452 109.351 57.6715C112.965 57.835 116.855 57.1065 119.531 54.4962C119.942 54.0992 119.316 53.4782 118.91 53.8751C116.505 56.2099 113.021 56.8917 109.776 56.803C107.786 56.7066 105.805 56.4788 103.845 56.1212C101.889 55.813 99.9323 55.5328 97.9524 55.3881C93.9842 55.1105 89.9974 55.2828 86.0681 55.9017C82.9907 56.3687 79.6986 57.0645 77.135 58.9463C75.7618 59.918 74.7214 61.2893 74.1557 62.8735C73.4833 64.8068 73.5674 66.9081 73.6888 68.9441C73.7261 69.5045 74.6227 69.5091 74.5713 68.9441V68.9208Z" fill="#B5A642"/>
<path d="M74.058 67.4826C74.731 64.5002 74.2804 61.3743 72.7924 58.7033C71.3044 56.0324 68.8836 54.0041 65.9935 53.0067C63.8127 52.2455 61.4078 52.0727 59.115 52.0727C54.3333 52.04 49.6123 52.9086 44.8726 53.4036C42.5266 53.6424 40.1701 53.7624 37.812 53.7632C35.4772 53.7632 33.1423 53.7632 30.8542 54.2768C27.3847 55.0426 23.7003 57.4522 23.0092 61.1833C22.9275 61.6141 22.8899 62.0522 22.8971 62.4908C22.9289 62.5825 22.9884 62.6621 23.0675 62.7184C23.1466 62.7747 23.2413 62.805 23.3384 62.805C23.4355 62.805 23.5302 62.7747 23.6093 62.7184C23.6883 62.6621 23.7479 62.5825 23.7797 62.4908C23.733 58.9185 26.9877 56.2801 30.1584 55.3649C32.2948 54.8293 34.4944 54.5889 36.696 54.6504C38.9327 54.6504 41.1555 54.6224 43.3829 54.4309C47.8845 54.0387 52.344 53.2121 56.8596 53.002C61.0062 52.8152 65.5125 52.96 68.9447 55.5797C70.6844 56.9248 72.0073 58.7353 72.7602 60.8014C73.5131 62.8676 73.6652 65.1048 73.1988 67.2538C73.0773 67.8095 73.9272 68.043 74.0486 67.492L74.058 67.4826Z" fill="#B5A642"/>
<path d="M73.4978 68.0379L73.4278 61.2809C73.4389 60.1886 73.3796 59.0968 73.2503 58.0121C73.0897 56.997 72.7994 56.0067 72.3865 55.0655C70.8688 51.4979 68.7161 47.949 65.7882 45.3666C64.4121 44.1359 62.8319 43.1546 61.1185 42.4668C59.1946 41.7056 57.168 41.5329 55.1227 41.4675C52.9683 41.4038 50.8261 41.119 48.7299 40.6176C46.6706 40.1133 44.6486 39.4502 42.6594 38.7777C41.5706 38.4509 40.5213 38.0046 39.5307 37.4469C38.6634 36.9089 37.8772 36.2501 37.1958 35.4903C35.8183 34.0007 34.6882 32.3009 33.2126 30.9047C32.8017 30.5124 32.176 31.1382 32.5869 31.5258C33.8944 32.7632 34.9217 34.2388 36.1078 35.593C37.259 36.9898 38.7119 38.1074 40.3572 38.8618C42.2729 39.643 44.2347 40.3058 46.2317 40.8464C48.2337 41.4781 50.289 41.9267 52.3723 42.1866C54.5203 42.4201 56.7104 42.266 58.8351 42.7049C60.6218 43.0917 62.3099 43.842 63.7943 44.909C66.9696 47.1365 69.1504 50.4659 70.8641 53.8841C71.4009 54.8915 71.8343 55.9507 72.1576 57.0455C72.4321 58.2016 72.5608 59.3876 72.5406 60.5758C72.5779 63.06 72.5966 65.549 72.6246 68.0472C72.6246 68.1636 72.6709 68.2753 72.7532 68.3576C72.8355 68.4399 72.9471 68.4862 73.0636 68.4862C73.18 68.4862 73.2916 68.4399 73.3739 68.3576C73.4563 68.2753 73.5025 68.1636 73.5025 68.0472L73.4978 68.0379Z" fill="#B5A642"/>
<path d="M47.8053 40.451C46.1706 37.5356 45.7176 34.1038 46.5398 30.8641C47.3056 27.8242 48.8746 25.0878 50.1401 22.2393C50.8779 20.6396 51.4218 18.9575 51.7605 17.2287C51.8539 16.673 51.004 16.4349 50.9059 16.9952C50.3502 20.1939 48.7672 23.0658 47.427 25.975C46.0868 28.8842 44.9848 32.0736 45.3117 35.3937C45.4974 37.3278 46.0859 39.2016 47.0394 40.8946C47.1141 40.9629 47.2089 41.0051 47.3096 41.0148C47.4102 41.0246 47.5114 41.0014 47.5977 40.9487C47.6841 40.8961 47.751 40.8168 47.7885 40.7228C47.8259 40.6288 47.8318 40.5252 47.8053 40.4276V40.451Z" fill="#B5A642"/>
<path d="M75.7673 67.2379C75.1602 60.2334 74.6325 52.295 79.8439 46.7801C82.2067 44.2819 85.1486 42.2786 88.0345 40.4341C90.9203 38.5895 93.9323 36.8851 96.9162 35.1853C100.296 33.3046 103.57 31.239 106.722 28.998C107.189 28.6665 106.722 27.9007 106.255 28.2369C100.554 32.4069 94.1797 35.5122 88.2119 39.262C85.2476 41.0505 82.4707 43.1328 79.9233 45.4773C78.6574 46.6684 77.5944 48.0579 76.7759 49.5913C75.9874 51.1213 75.4124 52.7522 75.0668 54.4384C74.1796 58.6411 74.5391 62.9885 74.908 67.2426C74.9547 67.803 75.842 67.8076 75.7906 67.2426L75.7673 67.2379Z" fill="#B5A642"/>
<path d="M74.8986 68.0438C74.7818 64.0653 74.7304 60.1054 74.5437 56.1082C74.4925 54.33 74.1665 52.5705 73.577 50.8922C73.007 49.4072 72.3183 47.9705 71.5177 46.5961C69.9254 43.7943 68.1275 41.0392 67.4738 37.8405C67.1424 35.9481 67.0156 34.0256 67.0955 32.1061C67.034 30.6013 67.1754 29.095 67.5158 27.6279C67.7032 26.8982 68.0654 26.225 68.5712 25.6666C69.2062 25.0129 70.0561 24.7327 70.8826 24.3965C71.7283 24.1059 72.4811 23.5949 73.0634 22.9162C73.6081 22.2295 73.9335 21.3948 73.9973 20.5207C74.044 19.9556 73.1614 19.9603 73.1147 20.5207C73.0512 21.2959 72.7212 22.0252 72.1808 22.5846C71.5875 23.1204 70.8825 23.5176 70.1168 23.7474C69.3506 24.0048 68.6428 24.4111 68.0341 24.9428C67.5635 25.4076 67.1904 25.9617 66.9368 26.5725C66.4305 27.9358 66.185 29.382 66.213 30.8359C66.1299 32.7047 66.1751 34.577 66.3484 36.4396C66.5454 38.1451 66.9955 39.8118 67.6839 41.3847C68.3461 42.8366 69.0914 44.2492 69.916 45.6154C71.5551 48.4453 73.2081 51.3031 73.5537 54.6186C73.7825 56.8133 73.7545 59.0407 73.8199 61.2448L74.016 68.0392C74.0477 68.1309 74.1073 68.2105 74.1864 68.2668C74.2655 68.3232 74.3602 68.3534 74.4573 68.3534C74.5544 68.3534 74.649 68.3232 74.7281 68.2668C74.8072 68.2105 74.8668 68.1309 74.8986 68.0392V68.0438Z" fill="#B5A642"/>
<path d="M69.1125 42.6781C72.965 39.5774 75.1831 34.9498 76.3505 30.2334C76.7083 28.7621 76.9919 27.2737 77.2004 25.7739C77.2844 25.2182 76.4345 24.98 76.3505 25.5404C75.6454 30.4062 74.3192 35.3794 71.2138 39.3019C70.4097 40.3185 69.4951 41.2425 68.4868 42.057C68.0431 42.4119 68.6735 43.033 69.1125 42.6781Z" fill="#B5A642"/>
<path d="M87.3943 40.5476C90.8592 41.8738 94.4315 43.158 98.1719 43.3494C101.466 43.5847 104.744 42.7012 107.474 40.8418C108.916 39.8333 110.159 38.5667 111.14 37.1061C111.462 36.6391 110.673 36.1721 110.378 36.6391C108.714 39.0899 106.281 40.9168 103.463 41.8318C100.194 42.8918 96.6636 42.5042 93.3808 41.6123C91.4364 41.0672 89.5209 40.4235 87.6418 39.6837C87.1141 39.4829 86.8853 40.3328 87.4083 40.5383L87.3943 40.5476Z" fill="#B5A642"/>
</svg>
