<svg width="180" height="89" viewBox="0 0 180 89" fill="none" xmlns="http://www.w3.org/2000/svg">
<path d="M10.5137 82.1C10.8203 82.4733 11.1737 82.66 11.5737 82.66C11.7203 82.66 11.8737 82.64 12.0337 82.6C12.1537 82.88 12.2137 83.1133 12.2137 83.3C12.2137 83.6067 12.047 83.8333 11.7137 83.98C11.3937 84.1267 11.0003 84.2 10.5337 84.2C9.76034 84.2 9.07367 83.82 8.47367 83.06C8.06034 82.54 7.62701 81.8267 7.17367 80.92C6.72034 80 6.36701 79.2 6.11367 78.52C5.80701 78.4 5.65367 78.1867 5.65367 77.88C5.65367 77.6267 5.70701 77.3667 5.81367 77.1C6.02701 77.1533 6.27367 77.18 6.55367 77.18C7.27367 77.18 7.87367 76.9667 8.35367 76.54C8.84701 76.1 9.09367 75.4533 9.09367 74.6C9.09367 73.6533 8.86034 73 8.39367 72.64C7.92701 72.2667 7.20034 72.08 6.21367 72.08C5.85367 72.08 5.42034 72.1067 4.91367 72.16C4.96701 72.9067 4.99367 74.2333 4.99367 76.14V80.04C4.99367 81.8 5.12034 83.0867 5.37367 83.9C5.08034 84.0067 4.66701 84.06 4.13367 84.06C3.64034 84.06 3.30034 83.9733 3.11367 83.8C2.94034 83.6267 2.85367 83.3333 2.85367 82.92C2.85367 82.7067 2.86034 82.18 2.87367 81.34C2.88701 80.5 2.89367 79.8467 2.89367 79.38V75.38C2.89367 73.54 2.80701 72.0067 2.63367 70.78C3.66034 70.62 4.70701 70.54 5.77367 70.54C9.52034 70.54 11.3937 71.8933 11.3937 74.6C11.3937 75.6267 11.1137 76.48 10.5537 77.16C10.007 77.8267 9.28034 78.28 8.37367 78.52C9.24034 80.3733 9.95367 81.5667 10.5137 82.1ZM19.4349 84.2C17.5149 84.2 15.9816 83.58 14.8349 82.34C13.7016 81.1 13.1349 79.4467 13.1349 77.38C13.1349 75.2867 13.7016 73.6267 14.8349 72.4C15.9816 71.16 17.5149 70.54 19.4349 70.54C21.3816 70.54 22.9283 71.16 24.0749 72.4C25.2216 73.6267 25.7949 75.2867 25.7949 77.38C25.7949 79.4467 25.2149 81.1 24.0549 82.34C22.9083 83.58 21.3683 84.2 19.4349 84.2ZM23.5149 77.72C23.5149 76.76 23.3883 75.88 23.1349 75.08C22.8949 74.2667 22.4549 73.5733 21.8149 73C21.1883 72.4133 20.4083 72.12 19.4749 72.12C18.2349 72.12 17.2483 72.56 16.5149 73.44C15.7816 74.3067 15.4149 75.4267 15.4149 76.8C15.4149 77.8 15.5349 78.72 15.7749 79.56C16.0283 80.4 16.4683 81.12 17.0949 81.72C17.7349 82.32 18.5216 82.62 19.4549 82.62C20.7483 82.62 21.7483 82.1667 22.4549 81.26C23.1616 80.3533 23.5149 79.1733 23.5149 77.72ZM33.7513 84.2C31.8313 84.2 30.298 83.58 29.1513 82.34C28.018 81.1 27.4513 79.4467 27.4513 77.38C27.4513 75.2867 28.018 73.6267 29.1513 72.4C30.298 71.16 31.8313 70.54 33.7513 70.54C35.698 70.54 37.2447 71.16 38.3913 72.4C39.538 73.6267 40.1113 75.2867 40.1113 77.38C40.1113 79.4467 39.5313 81.1 38.3713 82.34C37.2247 83.58 35.6847 84.2 33.7513 84.2ZM37.8313 77.72C37.8313 76.76 37.7047 75.88 37.4513 75.08C37.2113 74.2667 36.7713 73.5733 36.1313 73C35.5047 72.4133 34.7247 72.12 33.7913 72.12C32.5513 72.12 31.5647 72.56 30.8313 73.44C30.098 74.3067 29.7313 75.4267 29.7313 76.8C29.7313 77.8 29.8513 78.72 30.0913 79.56C30.3447 80.4 30.7847 81.12 31.4113 81.72C32.0513 82.32 32.838 82.62 33.7713 82.62C35.0647 82.62 36.0647 82.1667 36.7713 81.26C37.478 80.3533 37.8313 79.1733 37.8313 77.72ZM44.7677 79.38V75.38C44.7677 74.6333 44.7544 73.6333 44.7277 72.38C42.8344 72.38 41.5877 72.4067 40.9877 72.46C40.9477 72.3 40.9277 72.06 40.9277 71.74C40.9277 71.38 40.9944 71.14 41.1277 71.02C41.2744 70.8867 41.5011 70.8133 41.8077 70.8C42.1411 70.7867 42.9211 70.78 44.1477 70.78H46.5077C48.7477 70.78 50.1011 70.76 50.5677 70.72C50.6077 70.88 50.6277 71.1133 50.6277 71.42C50.6277 71.78 50.5544 72.0267 50.4077 72.16C50.2744 72.28 50.0544 72.3467 49.7477 72.36C49.3744 72.3733 48.4477 72.38 46.9677 72.38C46.9011 73.82 46.8677 75 46.8677 75.92V79.94C46.8677 81.7133 46.9944 83.02 47.2477 83.86C46.8744 83.9933 46.4611 84.06 46.0077 84.06C45.5144 84.06 45.1744 83.9733 44.9877 83.8C44.8144 83.6267 44.7277 83.3333 44.7277 82.92C44.7277 82.7067 44.7344 82.18 44.7477 81.34C44.7611 80.5 44.7677 79.8467 44.7677 79.38ZM58.4041 73.84C58.2041 73.3333 57.8308 72.9133 57.2841 72.58C56.7375 72.2467 56.1708 72.08 55.5841 72.08C54.9041 72.08 54.3308 72.2467 53.8641 72.58C53.4108 72.9133 53.1841 73.4067 53.1841 74.06C53.1841 74.46 53.3108 74.8 53.5641 75.08C53.8175 75.3467 54.1441 75.56 54.5441 75.72C54.9575 75.8667 55.4041 76.0067 55.8841 76.14C56.3775 76.2733 56.8641 76.4267 57.3441 76.6C57.8375 76.7733 58.2841 76.98 58.6841 77.22C59.0975 77.46 59.4308 77.8067 59.6841 78.26C59.9375 78.7133 60.0641 79.2533 60.0641 79.88C60.0641 80.6667 59.9308 81.3533 59.6641 81.94C59.3975 82.5133 59.0241 82.96 58.5441 83.28C58.0775 83.6 57.5708 83.8333 57.0241 83.98C56.4775 84.1267 55.8841 84.2 55.2441 84.2C54.1375 84.2 53.1508 84 52.2841 83.6C51.4308 83.2 51.0041 82.7267 51.0041 82.18C51.0041 81.6333 51.3908 81.18 52.1641 80.82C52.4308 81.3267 52.8908 81.7533 53.5441 82.1C54.1975 82.4467 54.8575 82.62 55.5241 82.62C56.2975 82.62 56.9375 82.4467 57.4441 82.1C57.9641 81.74 58.2241 81.2 58.2241 80.48C58.2241 80.0533 58.0508 79.6933 57.7041 79.4C57.3708 79.1067 56.9508 78.8867 56.4441 78.74C55.9375 78.5933 55.3841 78.4133 54.7841 78.2C54.1841 77.9733 53.6308 77.7333 53.1241 77.48C52.6175 77.2133 52.1908 76.8067 51.8441 76.26C51.5108 75.7133 51.3441 75.0533 51.3441 74.28C51.3441 73.0933 51.7908 72.1733 52.6841 71.52C53.5775 70.8667 54.6841 70.54 56.0041 70.54C56.5641 70.54 57.1241 70.6133 57.6841 70.76C58.2441 70.8933 58.7308 71.12 59.1441 71.44C59.5575 71.7467 59.7641 72.1067 59.7641 72.52C59.7641 73.2133 59.3108 73.6533 58.4041 73.84ZM72.887 78.64C72.4336 77.4533 71.747 75.4467 70.827 72.62C70.707 72.9267 70.4003 73.78 69.907 75.18C69.4136 76.58 68.9803 77.7333 68.607 78.64C69.647 78.6667 70.5203 78.68 71.227 78.68C71.9336 78.68 72.487 78.6667 72.887 78.64ZM73.307 79.82C71.8136 79.8467 70.907 79.86 70.587 79.86C70.267 79.86 69.4403 79.8467 68.107 79.82C67.2136 82.0733 66.6536 83.6067 66.427 84.42C65.987 84.3267 65.6736 84.22 65.487 84.1C65.3136 83.98 65.227 83.8333 65.227 83.66C65.227 83.4733 65.5136 82.7133 66.087 81.38C68.007 76.86 69.3336 73.3333 70.067 70.8C70.3203 70.76 70.607 70.74 70.927 70.74C71.247 70.74 71.4736 70.8 71.607 70.92C71.7403 71.0267 71.8803 71.32 72.027 71.8C72.867 74.5067 73.707 76.9667 74.547 79.18C75.4003 81.38 76.0536 82.92 76.507 83.8C76.1336 84.0667 75.8136 84.2 75.547 84.2C75.1203 84.2 74.8336 84.02 74.687 83.66C74.4336 83.0067 73.9736 81.7267 73.307 79.82ZM86.4226 81.32C87.0092 81.56 87.3026 81.9067 87.3026 82.36C87.3026 82.8 86.9226 83.22 86.1626 83.62C85.4026 84.0067 84.4626 84.2 83.3426 84.2C81.4626 84.2 79.9559 83.5733 78.8226 82.32C77.6892 81.0533 77.1226 79.38 77.1226 77.3C77.1226 75.2067 77.6892 73.56 78.8226 72.36C79.9559 71.1467 81.4892 70.54 83.4226 70.54C84.4626 70.54 85.3359 70.7533 86.0426 71.18C86.7492 71.5933 87.1026 72.1067 87.1026 72.72C87.1026 73.2667 86.7226 73.6 85.9626 73.72C85.7092 73.0667 85.3092 72.58 84.7626 72.26C84.2159 71.9267 83.6359 71.76 83.0226 71.76C81.7692 71.76 80.7426 72.26 79.9426 73.26C79.1559 74.2467 78.7626 75.54 78.7626 77.14C78.7626 78.7267 79.1626 80.1 79.9626 81.26C80.7626 82.4067 81.8826 82.98 83.3226 82.98C83.9626 82.98 84.5559 82.84 85.1026 82.56C85.6626 82.28 86.1026 81.8667 86.4226 81.32ZM98.4538 81.32C99.0405 81.56 99.3338 81.9067 99.3338 82.36C99.3338 82.8 98.9538 83.22 98.1938 83.62C97.4338 84.0067 96.4938 84.2 95.3738 84.2C93.4938 84.2 91.9872 83.5733 90.8538 82.32C89.7205 81.0533 89.1538 79.38 89.1538 77.3C89.1538 75.2067 89.7205 73.56 90.8538 72.36C91.9872 71.1467 93.5205 70.54 95.4538 70.54C96.4938 70.54 97.3672 70.7533 98.0738 71.18C98.7805 71.5933 99.1338 72.1067 99.1338 72.72C99.1338 73.2667 98.7538 73.6 97.9938 73.72C97.7405 73.0667 97.3405 72.58 96.7938 72.26C96.2472 71.9267 95.6672 71.76 95.0538 71.76C93.8005 71.76 92.7738 72.26 91.9738 73.26C91.1872 74.2467 90.7938 75.54 90.7938 77.14C90.7938 78.7267 91.1938 80.1 91.9938 81.26C92.7938 82.4067 93.9138 82.98 95.3538 82.98C95.9938 82.98 96.5872 82.84 97.1338 82.56C97.6938 82.28 98.1338 81.8667 98.4538 81.32ZM113.465 77.36C113.465 79.44 112.905 81.1 111.785 82.34C110.678 83.58 109.185 84.2 107.305 84.2C105.438 84.2 103.952 83.58 102.845 82.34C101.738 81.1 101.185 79.44 101.185 77.36C101.185 75.28 101.738 73.6267 102.845 72.4C103.952 71.16 105.438 70.54 107.305 70.54C109.185 70.54 110.678 71.16 111.785 72.4C112.905 73.6267 113.465 75.28 113.465 77.36ZM110.785 73.7C110.452 73.1133 109.985 72.6467 109.385 72.3C108.785 71.94 108.098 71.76 107.325 71.76C105.952 71.76 104.858 72.2333 104.045 73.18C103.232 74.1133 102.825 75.3067 102.825 76.76C102.825 78.3467 103.158 79.7533 103.825 80.98C104.158 81.5933 104.618 82.08 105.205 82.44C105.805 82.8 106.498 82.98 107.285 82.98C108.725 82.98 109.832 82.5 110.605 81.54C111.392 80.5667 111.785 79.3133 111.785 77.78C111.785 76.2333 111.452 74.8733 110.785 73.7ZM116.043 80.16L116.223 73.98C116.223 72.7133 116.11 71.6667 115.883 70.84C116.15 70.7333 116.463 70.68 116.823 70.68C117.183 70.68 117.45 70.76 117.623 70.92C117.81 71.0667 117.903 71.38 117.903 71.86C117.903 72.3267 117.85 73.54 117.743 75.5C117.65 77.4467 117.603 78.9267 117.603 79.94C117.603 80.94 117.87 81.6867 118.403 82.18C118.95 82.6733 119.563 82.92 120.243 82.92C120.923 82.92 121.623 82.76 122.343 82.44C123.063 82.12 123.65 81.7467 124.103 81.32L124.123 78.76V75.38C124.123 73.5 124.077 71.9533 123.983 70.74C124.21 70.7 124.483 70.68 124.803 70.68C125.457 70.68 125.783 70.9333 125.783 71.44C125.783 71.4667 125.77 71.7133 125.743 72.18C125.663 73.58 125.623 75.3867 125.623 77.6C125.623 79.8133 125.643 81.2733 125.683 81.98C125.723 82.6733 125.83 83.3133 126.003 83.9C125.763 84.0067 125.45 84.06 125.063 84.06C124.69 84.06 124.43 83.98 124.283 83.82C124.15 83.6467 124.083 83.3333 124.083 82.88V82.66C123.55 83.1133 122.91 83.4867 122.163 83.78C121.417 84.06 120.73 84.2 120.103 84.2C118.85 84.2 117.857 83.9067 117.123 83.32C116.403 82.72 116.043 81.6667 116.043 80.16ZM137.014 81.62C136.934 80.66 136.894 78.98 136.894 76.58V75.38C136.894 73.5 136.848 71.9533 136.754 70.74C136.981 70.7 137.188 70.68 137.374 70.68C138.028 70.68 138.354 70.9333 138.354 71.44C138.354 71.52 138.341 71.7867 138.314 72.24C138.234 73.6267 138.194 74.8533 138.194 75.92V79.34C138.194 81.22 138.241 82.7667 138.334 83.98C138.121 84.0333 137.901 84.06 137.674 84.06C137.221 84.06 136.874 83.88 136.634 83.52C136.088 82.68 135.141 81.0733 133.794 78.7C132.448 76.3133 131.294 74.4 130.334 72.96C130.321 73.4667 130.314 75.7933 130.314 79.94C130.314 81.74 130.441 83.06 130.694 83.9C130.454 84.0067 130.174 84.06 129.854 84.06C129.534 84.06 129.308 83.9733 129.174 83.8C129.041 83.6267 128.974 83.3333 128.974 82.92L129.014 79.38V75.38C129.014 73.1533 128.888 71.6333 128.634 70.82C128.888 70.7133 129.174 70.66 129.494 70.66C129.814 70.66 130.048 70.7067 130.194 70.8C130.768 71.1467 131.788 72.54 133.254 74.98C134.721 77.4067 135.974 79.62 137.014 81.62ZM143.773 82.92L143.813 79.38V75.38C143.813 74.14 143.793 73 143.753 71.96C141.859 71.96 140.593 71.9867 139.953 72.04C139.913 71.92 139.893 71.7333 139.893 71.48C139.893 71.2267 139.959 71.0533 140.093 70.96C140.239 70.8667 140.473 70.8133 140.793 70.8C141.113 70.7867 141.819 70.78 142.913 70.78H145.273C147.379 70.78 148.666 70.76 149.133 70.72C149.173 70.84 149.193 71.0267 149.193 71.28C149.193 71.52 149.119 71.6867 148.973 71.78C148.839 71.8733 148.593 71.9267 148.233 71.94C147.873 71.9533 146.946 71.96 145.453 71.96C145.359 73.8667 145.313 75.1867 145.313 75.92V79.94C145.313 81.74 145.439 83.06 145.693 83.9C145.453 84.0067 145.139 84.06 144.753 84.06C144.366 84.06 144.106 83.9733 143.973 83.8C143.839 83.6267 143.773 83.3333 143.773 82.92ZM150.609 82.92L150.649 79.38V75.38C150.649 73.5 150.603 71.9533 150.509 70.74C150.736 70.7 151.009 70.68 151.329 70.68C151.983 70.68 152.309 70.9333 152.309 71.44C152.309 71.52 152.296 71.7867 152.269 72.24C152.189 73.6267 152.149 74.8533 152.149 75.92V79.94C152.149 81.74 152.276 83.06 152.529 83.9C152.289 84.0067 151.976 84.06 151.589 84.06C151.203 84.06 150.943 83.9733 150.809 83.8C150.676 83.6267 150.609 83.3333 150.609 82.92ZM163.304 81.62C163.224 80.66 163.184 78.98 163.184 76.58V75.38C163.184 73.5 163.137 71.9533 163.044 70.74C163.27 70.7 163.477 70.68 163.664 70.68C164.317 70.68 164.644 70.9333 164.644 71.44C164.644 71.52 164.63 71.7867 164.604 72.24C164.524 73.6267 164.484 74.8533 164.484 75.92V79.34C164.484 81.22 164.53 82.7667 164.624 83.98C164.41 84.0333 164.19 84.06 163.964 84.06C163.51 84.06 163.164 83.88 162.924 83.52C162.377 82.68 161.43 81.0733 160.084 78.7C158.737 76.3133 157.584 74.4 156.624 72.96C156.61 73.4667 156.604 75.7933 156.604 79.94C156.604 81.74 156.73 83.06 156.984 83.9C156.744 84.0067 156.464 84.06 156.144 84.06C155.824 84.06 155.597 83.9733 155.464 83.8C155.33 83.6267 155.264 83.3333 155.264 82.92L155.304 79.38V75.38C155.304 73.1533 155.177 71.6333 154.924 70.82C155.177 70.7133 155.464 70.66 155.784 70.66C156.104 70.66 156.337 70.7067 156.484 70.8C157.057 71.1467 158.077 72.54 159.544 74.98C161.01 77.4067 162.264 79.62 163.304 81.62ZM177.342 82.3C177.342 82.78 176.962 83.22 176.202 83.62C175.442 84.0067 174.502 84.2 173.382 84.2C171.502 84.2 169.995 83.5733 168.862 82.32C167.728 81.0533 167.162 79.38 167.162 77.3C167.162 75.2067 167.728 73.56 168.862 72.36C169.995 71.1467 171.528 70.54 173.462 70.54C174.502 70.54 175.375 70.7533 176.082 71.18C176.788 71.5933 177.142 72.1067 177.142 72.72C177.142 73.2667 176.762 73.6 176.002 73.72C175.748 73.0667 175.348 72.58 174.802 72.26C174.255 71.9267 173.675 71.76 173.062 71.76C171.808 71.76 170.782 72.26 169.982 73.26C169.195 74.2467 168.802 75.54 168.802 77.14C168.802 78.7267 169.202 80.1 170.002 81.26C170.802 82.4067 171.915 82.98 173.342 82.98C174.408 82.98 175.268 82.66 175.922 82.02C175.895 80.3533 175.848 79.0067 175.782 77.98C176.008 77.94 176.248 77.92 176.502 77.92C177.155 77.92 177.482 78.1733 177.482 78.68L177.422 79.96C177.368 80.8133 177.342 81.5933 177.342 82.3Z" fill="#B5A642"/>
<path d="M66.9263 27.1421C65.4137 26.2311 64.5414 24.2086 64.8579 22.3407C66.3367 23.2106 67.2622 25.3539 66.9263 27.1421Z" fill="#758800"/>
<path d="M80.7867 0.479614C80.8114 1.36731 80.6436 2.24984 80.2949 3.06655C79.9462 3.88326 79.4248 4.6148 78.7666 5.2109C78.1867 3.37928 78.943 1.5839 80.7867 0.479614Z" fill="#758800"/>
<path d="M78.0973 7.18762C76.4372 6.35638 75.4731 5.0322 75.0551 3.26099C76.7659 3.4398 78.2543 5.34633 78.0973 7.18762Z" fill="#758800"/>
<path d="M83.7927 6.12428C82.7827 7.93657 81.154 8.28211 79.3586 8.35944C79.8613 6.89752 81.5116 6.05662 83.7927 6.12428Z" fill="#758800"/>
<path d="M63.7875 28.1449C61.922 27.3572 61.028 25.9702 61.1295 24.0902C62.4802 24.501 63.8092 26.5187 63.7875 28.1449Z" fill="#758800"/>
<path d="M115.051 29.7905C116.757 29.9089 118.023 31.1171 118.434 33.0164C116.941 32.9512 115.322 31.4095 115.051 29.7905Z" fill="#758800"/>
<path d="M73.1388 35.034C73.6728 33.1783 74.9124 32.1996 76.8262 32.074C76.5846 33.4706 74.8568 34.8746 73.1388 35.034Z" fill="#758800"/>
<path d="M98.8613 16.1185C99.2649 14.2507 100.729 13.0256 102.52 12.9941C102.261 14.3884 100.671 15.7561 98.8613 16.1185Z" fill="#758800"/>
<path d="M83.0509 9.23671C82.297 10.9064 81.0646 11.8512 79.3345 12.2354C79.4819 10.3869 81.5044 9.13522 83.0509 9.23671Z" fill="#758800"/>
<path d="M72.0007 11.2616C70.7417 10.0051 70.5798 8.5021 70.5315 6.93628C72.1408 7.40023 72.8077 9.17869 72.0007 11.2616Z" fill="#758800"/>
<path d="M116.474 23.0559C116.097 24.7136 115.177 25.7139 113.683 26.1972C113.531 26.2455 113.323 26.3929 113.2 26.1972C113.142 26.1054 113.22 25.9121 113.265 25.7719C113.766 24.2714 114.826 23.4184 116.474 23.0559Z" fill="#758800"/>
<path d="M84.7689 16.1282C83.0919 15.4589 82.2341 14.2797 82.0311 12.5834C83.4616 12.6414 84.665 14.1564 84.7689 16.1282Z" fill="#758800"/>
<path d="M95.5774 33.3136C97.1988 33.7969 98.1581 34.9374 98.3297 36.4863C98.3756 36.9043 98.2958 36.9986 97.902 36.798C96.5029 36.0828 95.7369 34.9471 95.5774 33.3136Z" fill="#758800"/>
<path d="M60.9264 18.1483C60.9892 18.187 61.0762 18.2353 61.168 18.2909C62.3907 19.1076 62.6758 20.4439 62.9996 21.7439C63.0818 22.0749 62.7362 21.959 62.5792 21.9058C62.1699 21.7661 61.8015 21.5277 61.5064 21.2115C61.2114 20.8954 60.9989 20.5114 60.8877 20.0935C60.7453 19.5556 60.689 18.9986 60.721 18.4431C60.7258 18.3126 60.7258 18.1846 60.9264 18.1483Z" fill="#758800"/>
<path d="M65.4595 9.10864C67.1051 9.57984 68.1731 11.0248 68.0523 12.6197C66.53 12.221 65.3291 10.5947 65.4595 9.10864Z" fill="#758800"/>
<path d="M97.2423 7.69015C95.4953 7.24553 94.4466 6.04942 94.3209 4.42078C95.8239 4.55609 96.9789 5.8247 97.2423 7.69015Z" fill="#758800"/>
<path d="M84.8752 1.25781C84.7647 1.97061 84.4439 2.63421 83.954 3.16368C83.4642 3.69315 82.8275 4.06442 82.1254 4.22997C81.8354 4.2928 81.6421 4.36287 81.7412 3.90134C81.931 3.19335 82.3332 2.56049 82.8935 2.08788C83.4538 1.61527 84.1454 1.3256 84.8752 1.25781Z" fill="#758800"/>
<path d="M111.903 12.6922C112.714 11.4695 113.795 10.8944 115.182 10.8847C115.348 10.8847 115.571 10.8146 115.665 10.979C115.798 11.194 115.568 11.3463 115.467 11.5009C114.679 12.6825 113.42 13.1175 111.903 12.6922Z" fill="#758800"/>
<path d="M53.3076 33.4682C53.066 33.4223 52.689 33.5769 52.5706 33.3087C52.4522 33.0405 52.7905 32.8254 52.9693 32.6345C53.3112 32.2246 53.7589 31.9163 54.2637 31.7429C54.7685 31.5695 55.3111 31.5377 55.8327 31.651C55.9898 31.68 56.2266 31.6245 56.2822 31.8443C56.3377 32.0642 56.1299 32.1464 56.0164 32.2696C55.6815 32.6572 55.2649 32.9657 54.7965 33.1729C54.3281 33.3802 53.8196 33.481 53.3076 33.4682Z" fill="#758800"/>
<path d="M98.8782 6.83244C98.0373 5.45027 98.1992 3.95694 99.2527 2.96622C99.3929 2.83815 99.5233 2.60135 99.736 2.68592C99.91 2.75116 99.8737 2.99039 99.8979 3.1692C100.009 3.81721 99.9755 4.48184 99.7992 5.11526C99.6228 5.74868 99.3083 6.33514 98.8782 6.83244Z" fill="#758800"/>
<path d="M64.3046 13.0449C65.9042 12.6922 67.2042 13.2576 67.8325 14.5189C67.9944 14.8452 68.091 15.0965 67.5498 15.0481C66.8836 15.0157 66.2366 14.8149 65.6691 14.4646C65.1016 14.1143 64.6321 13.6259 64.3046 13.0449Z" fill="#758800"/>
<path d="M123.192 25.2211C122.783 26.5791 120.928 27.5577 119.671 27.0817C119.241 26.9198 119.543 26.7362 119.652 26.5984C120.452 25.5014 121.747 25.006 123.192 25.2211Z" fill="#758800"/>
<path d="M73.2428 18.1677C71.8993 17.3195 71.3773 16.2346 71.6142 14.8258C71.6383 14.6832 71.6142 14.4923 71.7567 14.4199C71.9597 14.3256 72.0709 14.531 72.1965 14.6349C73.2404 15.4976 73.6198 16.7541 73.2428 18.1677Z" fill="#758800"/>
<path d="M89.3552 5.0153C89.6931 4.42285 90.1934 3.93945 90.7971 3.62218C91.4009 3.3049 92.0828 3.167 92.7623 3.22475C93.1103 3.26825 93.1175 3.38665 92.9871 3.65729C92.3878 4.88481 90.7036 5.5179 89.3552 5.0153Z" fill="#758800"/>
<path d="M94.5964 26.654C94.3886 26.6056 94.0092 26.7869 93.8956 26.48C93.811 26.2553 94.1107 26.0499 94.2726 25.8614C95.0772 24.9263 96.1042 24.6532 97.2906 24.8562C97.7401 24.9287 97.7183 25.0978 97.4501 25.383C96.7035 26.2118 95.7949 26.7023 94.5964 26.654Z" fill="#758800"/>
<path d="M68.8329 13.6563V13.492C68.8474 12.6729 69.4636 11.3318 69.7994 11.4091C70.1353 11.4864 70.4615 13.016 70.3431 13.6829C70.3202 13.858 70.2772 14.0299 70.2151 14.1952C70.029 14.6156 69.9323 15.3285 69.4901 15.2946C69.089 15.2608 69.0069 14.548 68.9005 14.0864C68.8679 13.9448 68.8453 13.8011 68.8329 13.6563Z" fill="#758800"/>
<path d="M67.209 35.3216C66.3463 34.0917 66.2255 32.9052 66.9166 31.6318C67.1582 31.1799 67.3056 31.2137 67.5473 31.6463C68.2142 32.84 68.132 34.0989 67.209 35.3216Z" fill="#758800"/>
<path d="M113.751 16.3142C113.531 16.2611 113.195 16.423 113.074 16.162C112.954 15.901 113.253 15.7222 113.398 15.5313C114.123 14.5913 115.09 14.224 116.245 14.2941C116.663 14.3183 116.709 14.4609 116.486 14.7943C116.197 15.2589 115.794 15.6423 115.315 15.9082C114.837 16.174 114.298 16.3138 113.751 16.3142Z" fill="#758800"/>
<path d="M72.2351 32.2721C72.5903 30.7595 73.6342 29.8123 74.9898 29.7132C75.3716 29.6866 75.4924 29.7518 75.3305 30.1602C75.0883 30.7838 74.6629 31.3193 74.1104 31.6963C73.5578 32.0733 72.904 32.2741 72.2351 32.2721Z" fill="#758800"/>
<path d="M106.548 24.1893C106.669 25.6053 105.992 26.7918 104.789 27.3306C104.414 27.5022 104.305 27.4394 104.305 27.0286C104.297 26.37 104.515 25.7285 104.924 25.2117C105.332 24.6948 105.905 24.3339 106.548 24.1893Z" fill="#758800"/>
<path d="M112.183 19.4266C111.98 19.4073 111.777 19.4073 111.581 19.3686C111.277 19.3058 110.808 19.3686 110.75 19.0352C110.692 18.7017 111.105 18.5277 111.371 18.3417C112.255 17.7182 113.19 17.6868 114.164 18.1C114.575 18.2812 114.686 18.4601 114.237 18.7404C113.634 19.165 112.92 19.4035 112.183 19.4266Z" fill="#758800"/>
<path d="M104.832 30.8102C106.04 31.4264 106.7 32.3736 106.765 33.7388C106.787 34.1907 106.715 34.3502 106.239 34.1061C104.97 33.4537 104.359 32.0715 104.832 30.8102Z" fill="#758800"/>
<path d="M113.923 36.2181C113.877 36.3824 114.036 36.6337 113.807 36.7425C113.638 36.8222 113.476 36.6627 113.323 36.5782C112.282 35.9837 111.801 35.0752 111.794 33.8863C111.794 33.4731 111.905 33.403 112.277 33.5794C112.774 33.8176 113.192 34.1922 113.484 34.6595C113.775 35.1268 113.927 35.6674 113.923 36.2181Z" fill="#758800"/>
<path d="M117.243 27.0261C117.621 27.0397 117.992 27.1298 118.334 27.2909C118.677 27.4521 118.983 27.6809 119.234 27.9637C119.306 28.0434 119.343 28.1522 119.222 28.2053C118.594 28.5411 117.874 28.6649 117.17 28.5581C116.675 28.4571 116.202 28.2654 115.776 27.9927C115.435 27.7873 115.498 27.6399 115.798 27.4707C116.239 27.2134 116.733 27.0612 117.243 27.0261Z" fill="#758800"/>
<path d="M100.434 30.4429C101.031 30.5154 101.593 30.7646 102.048 31.1585C102.503 31.5524 102.829 32.0731 102.986 32.6539C103.083 33.055 102.923 33.0743 102.609 33.0332C102.032 32.9417 101.492 32.689 101.052 32.3043C100.612 31.9195 100.29 31.4184 100.123 30.8585C100.038 30.5371 100.043 30.3365 100.434 30.4429Z" fill="#758800"/>
<path d="M95.4953 14.1903C95.5629 14.6301 95.3865 14.7558 94.9129 14.4803C94.4286 14.2237 94.027 13.835 93.7546 13.3595C93.4821 12.8839 93.3501 12.3408 93.3737 11.7933C93.3737 11.281 93.5766 11.3245 93.9101 11.513C94.9153 12.0784 95.4445 12.9411 95.4953 14.1903Z" fill="#758800"/>
<path d="M97.8899 2.99998C97.8935 3.04985 97.8935 3.09992 97.8899 3.1498C97.8174 3.54125 97.8343 4.08494 97.4429 4.19368C97.1626 4.27342 96.9596 3.75631 96.7421 3.49051C96.196 2.83325 96.097 2.04067 96.0293 1.2191C95.9931 0.796234 96.184 0.830064 96.4788 0.943634C96.8922 1.10655 97.2476 1.3894 97.499 1.75585C97.7505 2.12229 97.8866 2.55556 97.8899 2.99998Z" fill="#758800"/>
<path d="M111.729 24.9215C111.729 25.8276 110.122 27.2654 109.172 27.2412C108.824 27.2412 108.899 27.0165 108.93 26.8256C109.08 25.7213 110.281 24.6823 111.381 24.6944C111.545 24.6968 111.741 24.6557 111.729 24.9215Z" fill="#758800"/>
<path d="M124.105 27.7849C124.642 27.8647 125.521 27.8888 125.584 28.3721C125.647 28.8554 124.816 29.097 124.267 29.2807C123.569 29.503 122.919 29.3 122.286 29.0076C122.018 28.882 121.918 28.766 122.201 28.5243C122.732 28.0663 123.404 27.8052 124.105 27.7849Z" fill="#758800"/>
<path d="M71.6914 29.1621C71.5851 29.7462 71.3414 30.2966 70.9805 30.768C70.6196 31.2394 70.1518 31.6183 69.6158 31.8733C69.3379 32.0183 69.2291 31.9941 69.1784 31.6583C69.1388 31.3194 69.1768 30.9761 69.2894 30.654C69.4019 30.332 69.5862 30.0398 69.8282 29.7994C70.0702 29.559 70.3637 29.3767 70.6865 29.2663C71.0093 29.1559 71.3529 29.1203 71.6914 29.1621Z" fill="#758800"/>
<path d="M77.2008 35.6236C76.935 35.6526 76.8577 35.5729 76.9011 35.2805C77.0606 34.2366 78.3824 33.1058 79.4384 33.1203C79.68 33.1203 79.7283 33.2024 79.7017 33.4344C79.5882 34.4614 78.2567 35.6357 77.2008 35.6236Z" fill="#758800"/>
<path d="M59.5322 32.5403C59.2906 32.5693 59.1697 32.5403 59.2277 32.2165C59.4211 31.1654 60.5809 30.1288 61.6683 30.0418C62.0742 30.0152 62.0694 30.2061 62.0018 30.5009C61.7577 31.552 60.5978 32.5089 59.5322 32.5403Z" fill="#758800"/>
<path d="M92.0978 6.23073C92.0978 7.14654 90.329 8.71478 89.4857 8.54805C89.2126 8.49489 89.2803 8.30641 89.302 8.14451C89.447 7.05956 90.6431 6.01326 91.7184 6.01326C91.8997 6.01326 92.0881 5.98426 92.0978 6.23073Z" fill="#758800"/>
<path d="M52.0438 38.5136C51.8384 37.1314 52.3579 36.1431 53.5588 35.5511C53.9793 35.3433 54.1291 35.3795 54.117 35.887C54.088 37.1822 53.3631 38.1245 52.0438 38.5136Z" fill="#758800"/>
<path d="M87.7024 0.890485C87.7386 1.81596 87.3109 2.53846 86.7165 3.19572C86.499 3.43736 86.3782 3.39628 86.2332 3.10873C85.9987 2.62697 85.9429 2.07761 86.0757 1.55852C86.2084 1.03944 86.5211 0.58434 86.9581 0.274306C87.1321 0.146238 87.3182 -0.0857353 87.5453 0.0326677C87.729 0.12449 87.6613 0.399959 87.6951 0.59327C87.7033 0.692116 87.7058 0.791357 87.7024 0.890485Z" fill="#758800"/>
<path d="M104.354 9.61606C104.112 9.65472 104.008 9.56289 104.044 9.28259C104.187 8.24355 105.509 7.12234 106.584 7.12476C106.826 7.12476 106.893 7.18034 106.869 7.42198C106.768 8.42961 105.424 9.61606 104.354 9.61606Z" fill="#758800"/>
<path d="M110.061 7.33263C110.117 8.34268 109.73 9.05551 109.16 9.70069C108.918 9.97374 108.761 10.0293 108.58 9.62819C108.383 9.20173 108.324 8.72473 108.411 8.26323C108.498 7.80173 108.726 7.37856 109.063 7.05232C109.305 6.83243 109.585 6.49414 109.89 6.61496C110.194 6.73578 110.018 7.16106 110.061 7.33263Z" fill="#758800"/>
<path d="M117.675 18.8442C117.393 20.0911 116.658 20.8764 115.411 21.1881C114.998 21.292 114.797 21.2799 114.928 20.7459C115.047 20.1328 115.4 19.5905 115.914 19.2351C116.427 18.8797 117.06 18.7394 117.675 18.8442Z" fill="#758800"/>
<path d="M121.266 24.5712C120.966 24.6316 120.928 24.5035 120.981 24.2353C121.184 23.1673 122.399 22.1258 123.46 22.0968C123.794 22.0968 123.839 22.2007 123.779 22.4931C123.562 23.5635 122.334 24.5881 121.266 24.5712Z" fill="#758800"/>
<path d="M89.2997 23.2784C89.6211 21.8141 90.5248 20.9538 91.762 20.862C92.1462 20.8306 92.1945 20.9418 92.1075 21.2752C91.7837 22.51 90.7084 23.3098 89.2997 23.2784Z" fill="#758800"/>
<path d="M59.9091 29.793C59.4391 30.1711 58.8701 30.4059 58.2702 30.4694C57.6703 30.5328 57.0648 30.4221 56.5261 30.1506C56.1081 29.9283 56.3449 29.7857 56.5382 29.6142C57.541 28.7008 58.9039 28.7757 59.9091 29.793Z" fill="#758800"/>
<path d="M110.4 10.7784C110.485 10.2125 110.765 9.69434 111.192 9.31383C111.62 8.93331 112.167 8.71451 112.739 8.69543C113.062 8.69543 113.205 8.74135 113.07 9.12072C112.906 9.62496 112.61 10.0759 112.212 10.4262C111.814 10.7765 111.329 11.0133 110.808 11.1118C110.508 11.1867 110.288 11.1674 110.4 10.7784Z" fill="#758800"/>
<path d="M64.464 35.3893C64.5147 36.4139 64.0315 37.1146 63.3041 37.6897C62.99 37.9314 62.845 37.8806 62.7653 37.4795C62.5768 36.5419 62.7653 35.7252 63.4709 35.0631C63.7125 34.8456 63.9541 34.4832 64.2779 34.6088C64.6017 34.7345 64.4181 35.1525 64.464 35.3893Z" fill="#758800"/>
<path d="M102.169 8.84526C102.358 8.8815 102.638 8.7341 102.756 8.97332C102.853 9.1618 102.645 9.3382 102.556 9.51218C102.017 10.5512 101.075 10.8774 99.997 10.962C99.5137 11.0031 99.6708 10.7204 99.7553 10.4787C100.043 9.56051 101.038 8.8815 102.169 8.84526Z" fill="#758800"/>
<path d="M60.4577 14.6832C61.0095 14.7161 61.5316 14.9446 61.9301 15.3277C62.3287 15.7108 62.5777 16.2233 62.6325 16.7734C62.6542 17.1262 62.5962 17.3026 62.1733 17.1697C61.6854 17.0269 61.2418 16.7623 60.8842 16.4009C60.5266 16.0395 60.2667 15.5931 60.1291 15.1037C60.001 14.7364 60.1484 14.6422 60.4577 14.6832Z" fill="#758800"/>
<path d="M69.7655 9.81184C69.7994 10.1381 69.7269 10.2951 69.3427 10.1671C68.8526 10.0294 68.4052 9.76999 68.0423 9.41299C67.6794 9.05598 67.4127 8.61298 67.267 8.1252C67.1268 7.71442 67.3105 7.64193 67.6681 7.67334C68.216 7.71914 68.7292 7.96028 69.1142 8.35282C69.4992 8.74535 69.7304 9.26315 69.7655 9.81184Z" fill="#758800"/>
<path d="M101.618 20.0524C102.505 19.04 103.742 18.7935 104.897 19.3662C105.296 19.5643 105.315 19.7069 104.972 19.9872C103.989 20.7774 102.73 20.8136 101.618 20.0524Z" fill="#758800"/>
<path d="M59.6772 22.9956C58.4327 22.5413 57.7997 21.5265 57.9326 20.253C57.9688 19.9051 58.0437 19.8157 58.3893 19.9751C59.5467 20.5043 60.0759 21.7173 59.6772 22.9956Z" fill="#758800"/>
<path d="M92.1775 9.95668C92.25 10.8097 91.8392 11.479 91.3003 12.1169C90.9669 12.5108 90.8412 12.3296 90.6914 11.9889C90.4861 11.5221 90.4475 10.9989 90.5822 10.507C90.7168 10.0151 91.0164 9.58453 91.4308 9.28734C91.6072 9.15685 91.7957 8.92488 92.0204 9.02395C92.2451 9.12302 92.1412 9.42266 92.1751 9.63288C92.1844 9.74058 92.1852 9.84885 92.1775 9.95668Z" fill="#758800"/>
<path d="M78.7546 31.8589C78.3921 31.9072 78.2713 31.7985 78.4211 31.3998C78.61 30.8879 78.9565 30.4492 79.4108 30.1469C79.865 29.8447 80.4035 29.6945 80.9486 29.718C81.2749 29.7421 81.3981 29.805 81.2483 30.1698C81.0478 30.6675 80.7034 31.0941 80.2592 31.3949C79.815 31.6958 79.2911 31.8574 78.7546 31.8589Z" fill="#758800"/>
<path d="M87.6711 11.3245C87.7121 11.6458 87.6517 11.7957 87.2627 11.67C86.7627 11.5306 86.3072 11.2645 85.9402 10.8975C85.5731 10.5305 85.3071 10.075 85.1677 9.575C85.0444 9.18113 85.2136 9.16421 85.5253 9.17388C86.0831 9.21086 86.6083 9.44945 87.0031 9.84515C87.3979 10.2408 87.6353 10.7666 87.6711 11.3245Z" fill="#758800"/>
<path d="M53.4502 30.2979C53.1143 30.3341 53.0418 30.2157 53.1506 29.8629C53.2974 29.3663 53.5798 28.9204 53.9661 28.5755C54.3524 28.2306 54.8273 28.0003 55.3374 27.9105C55.7143 27.8549 55.8424 27.9395 55.7627 28.3406C55.6452 28.8753 55.3552 29.3565 54.9373 29.7102C54.5195 30.0639 53.9969 30.2704 53.4502 30.2979Z" fill="#758800"/>
<path d="M73.4505 10.0026C74.0031 10.0342 74.5256 10.2647 74.9214 10.6516C75.3172 11.0385 75.5595 11.5556 75.6035 12.1073C75.6374 12.5205 75.5165 12.5906 75.142 12.4794C74.6536 12.3362 74.2102 12.0699 73.8543 11.706C73.4984 11.3421 73.2421 10.8928 73.1098 10.4014C72.9842 10.0002 73.1606 9.95915 73.4505 10.0026Z" fill="#758800"/>
<path d="M105.767 10.5609C106.094 12.0107 105.767 12.9894 104.779 13.7022C104.426 13.9584 104.276 13.9294 104.189 13.4775C103.953 12.192 104.455 11.1892 105.767 10.5609Z" fill="#758800"/>
<path d="M100.811 26.6346C100.536 26.6491 100.388 26.6105 100.48 26.2504C100.628 25.7365 100.916 25.2742 101.313 24.9158C101.71 24.5575 102.199 24.3175 102.725 24.2231C103.179 24.1457 103.184 24.3342 103.126 24.6701C103.011 25.2069 102.721 25.6905 102.303 26.0457C101.884 26.401 101.36 26.608 100.811 26.6346Z" fill="#758800"/>
<path d="M119.922 22.0533C119.85 23.1479 119.292 23.8921 118.311 24.3561C117.965 24.5204 117.815 24.4721 117.777 24.0709C117.74 23.535 117.893 23.0031 118.209 22.5691C118.526 22.135 118.985 21.8265 119.507 21.6981C119.901 21.6135 119.949 21.6594 119.922 22.0533Z" fill="#758800"/>
<path d="M60.6582 34.8697C60.6663 34.3546 60.8457 33.8569 61.1682 33.4552C61.4907 33.0535 61.9379 32.7707 62.4391 32.6515C62.9224 32.5307 63.019 32.7192 62.9224 33.1517C62.8411 33.615 62.6367 34.0479 62.3306 34.405C62.0245 34.7621 61.628 35.0303 61.1826 35.1815C60.7259 35.3554 60.564 35.2419 60.6582 34.8697Z" fill="#758800"/>
<path d="M68.8546 20.2941C68.3741 20.3047 67.9006 20.1781 67.4894 19.9293C67.2477 19.8012 66.8369 19.7263 66.8514 19.4726C66.8708 19.1464 67.2622 19.0086 67.5643 18.883C67.9487 18.7199 68.3753 18.6848 68.7813 18.7827C69.1872 18.8806 69.5509 19.1063 69.8188 19.4267C70.2489 19.9462 70.1933 20.1057 69.5288 20.2192C69.3065 20.2458 69.0794 20.2579 68.8546 20.2941Z" fill="#758800"/>
<path d="M63.6425 16.7154C64.0479 16.3497 64.5515 16.1104 65.0911 16.0272C65.6308 15.9439 66.183 16.0202 66.6799 16.2466C67.0786 16.4109 67.1172 16.5728 66.8007 16.8797C65.8752 17.7714 64.6042 17.7206 63.6425 16.7154Z" fill="#758800"/>
<path d="M107.063 22.3431C107.551 22.3488 108.023 22.5188 108.403 22.8257C108.783 23.1325 109.049 23.5584 109.158 24.0346C109.247 24.4164 109.138 24.5324 108.756 24.5058C108.289 24.4722 107.841 24.3033 107.468 24.0197C107.095 23.7361 106.812 23.35 106.654 22.9086C106.473 22.4422 106.582 22.2441 107.063 22.3431Z" fill="#758800"/>
<path d="M115.36 33.5576C115.873 33.5516 116.373 33.7211 116.776 34.0379C117.18 34.3548 117.463 34.8001 117.579 35.2999C117.658 35.6841 117.564 35.7952 117.175 35.759C116.692 35.7209 116.232 35.5397 115.852 35.2383C115.473 34.937 115.192 34.5293 115.046 34.0675C114.925 33.7171 114.942 33.519 115.36 33.5576Z" fill="#758800"/>
<path d="M58.6622 25.3274C58.5487 24.7306 58.7758 24.6388 59.305 24.8997C59.72 25.0876 60.0696 25.3947 60.3093 25.782C60.549 26.1694 60.6679 26.6193 60.6509 27.0745C60.6509 27.4877 60.5494 27.6302 60.1242 27.4345C59.2156 27.0286 58.6695 26.381 58.6622 25.3274Z" fill="#758800"/>
<path d="M55.823 21.901C55.7529 21.3791 55.9921 21.3597 56.4319 21.5675C56.8631 21.7522 57.2277 22.0639 57.4772 22.4611C57.7267 22.8583 57.8493 23.322 57.8286 23.7906C57.8286 24.2497 57.6643 24.2739 57.2801 24.1241C56.8358 23.9517 56.4565 23.6447 56.1952 23.2461C55.9339 22.8475 55.8038 22.3772 55.823 21.901Z" fill="#758800"/>
<path d="M74.3228 6.38059C74.289 6.6029 74.4074 6.93153 74.1513 7.05235C73.8951 7.17317 73.6873 6.92186 73.4843 6.78655C73.1095 6.54549 72.8152 6.19798 72.6391 5.78856C72.463 5.37914 72.4132 4.92647 72.496 4.48856C72.5613 4.1261 72.6966 4.07053 72.9962 4.23484C73.8395 4.69637 74.3277 5.37296 74.3228 6.38059Z" fill="#758800"/>
<path d="M122.909 34.5363C122.948 34.3478 122.817 34.053 123.059 33.9394C123.301 33.8259 123.487 34.0385 123.678 34.1448C124.096 34.3675 124.428 34.7231 124.621 35.1554C124.814 35.5878 124.858 36.0722 124.746 36.5322C124.673 36.8439 124.577 36.9019 124.289 36.7473C123.409 36.2785 122.907 35.5826 122.909 34.5363Z" fill="#758800"/>
<path d="M96.9596 30.6411C97.4417 30.6548 97.9056 30.8284 98.2783 31.1346C98.651 31.4408 98.9113 31.8622 99.0183 32.3326C99.1295 32.7699 98.9966 32.8545 98.581 32.8038C98.1262 32.7714 97.6909 32.606 97.3295 32.3279C96.9682 32.0499 96.6966 31.6717 96.5488 31.2403C96.341 30.6846 96.3917 30.6193 96.9596 30.6411Z" fill="#758800"/>
<path d="M87.7629 6.35393C87.7266 6.56899 87.8547 6.91212 87.6493 7.0426C87.3835 7.20933 87.1346 6.9242 86.9123 6.77438C86.1173 6.23553 85.8588 5.45745 85.9458 4.52714C85.9796 4.10911 86.1511 4.06078 86.4846 4.24442C87.2941 4.6987 87.7629 5.36079 87.7629 6.35393Z" fill="#758800"/>
<path d="M100.683 34.0191C101.18 34.0236 101.661 34.1958 102.048 34.5076C102.434 34.8194 102.705 35.2526 102.815 35.7371C102.889 36.0778 102.885 36.2591 102.442 36.2204C101.962 36.1903 101.502 36.0143 101.124 35.7159C100.746 35.4176 100.469 35.0111 100.328 34.5507C100.161 34.0674 100.193 34.0142 100.683 34.0191Z" fill="#758800"/>
<path d="M74.6926 7.50654C74.6442 7.12717 74.7578 6.97252 75.2 7.12233C75.6577 7.27451 76.0563 7.56597 76.3401 7.95593C76.6239 8.34588 76.7787 8.81481 76.7827 9.29708C76.7827 9.67646 76.6861 9.78036 76.2995 9.66679C75.831 9.5342 75.4194 9.25051 75.1288 8.85983C74.8382 8.46915 74.6848 7.99339 74.6926 7.50654Z" fill="#758800"/>
<path d="M56.7147 36.2157C56.4562 36.1891 56.0647 36.2519 55.9294 35.9741C55.7941 35.6962 56.1179 35.4908 56.2725 35.2685C56.7679 34.5556 57.4928 34.3623 58.312 34.3696C58.6793 34.3696 58.7252 34.5242 58.6285 34.8408C58.4977 35.244 58.2415 35.5949 57.8972 35.8422C57.5529 36.0896 57.1386 36.2204 56.7147 36.2157Z" fill="#758800"/>
<path d="M76.9495 26.1611C75.8356 26.0838 75.0357 25.3178 74.9632 24.3561C74.9343 23.9646 75.0841 23.9501 75.4006 24.0033C75.8428 24.0525 76.2616 24.2275 76.6073 24.5077C76.9529 24.7878 77.2109 25.1612 77.3506 25.5836C77.5367 26.0935 77.3845 26.2385 76.9495 26.1611Z" fill="#758800"/>
<path d="M123.699 30.6C124.202 30.5954 124.69 30.765 125.082 31.08C125.474 31.3949 125.744 31.8358 125.847 32.3277C125.932 32.6853 125.847 32.7675 125.502 32.7602C125.018 32.7439 124.551 32.5805 124.162 32.2916C123.773 32.0028 123.482 31.6023 123.327 31.1436C123.16 30.6845 123.264 30.5299 123.699 30.6Z" fill="#758800"/>
<path d="M119.751 29.6939C120.223 29.7039 120.679 29.8697 121.048 30.1656C121.416 30.4614 121.676 30.8707 121.788 31.3298C121.887 31.7115 121.834 31.8855 121.375 31.8493C120.917 31.8179 120.479 31.653 120.115 31.3751C119.75 31.0973 119.475 30.7185 119.323 30.2859C119.125 29.7374 119.176 29.6745 119.751 29.6939Z" fill="#758800"/>
<path d="M77.4206 16.1862C77.4196 15.6958 77.6015 15.2226 77.9309 14.8593C78.2603 14.496 78.7134 14.2686 79.2015 14.2217C79.605 14.1806 79.7718 14.2893 79.6485 14.7194C79.551 15.1366 79.3503 15.5227 79.0649 15.8423C78.7796 16.1618 78.4186 16.4047 78.0151 16.5487C77.5584 16.7251 77.3361 16.6864 77.4206 16.1862Z" fill="#758800"/>
<path d="M107.638 16.7372C107.871 16.7639 108.101 16.81 108.326 16.8749C108.619 16.9788 109.104 16.9547 109.131 17.2954C109.158 17.6361 108.764 17.8608 108.452 18.0203C108.092 18.2353 107.665 18.3114 107.253 18.2345C106.841 18.1575 106.47 17.9327 106.212 17.6022C106.118 17.4959 105.932 17.3268 106.05 17.2253C106.485 16.8628 107.034 16.7879 107.638 16.7372Z" fill="#758800"/>
<path d="M127.467 37.6679C127.462 37.7789 127.451 37.8895 127.433 37.999C127.365 38.4073 127.191 38.4822 126.824 38.2406C126.411 37.9687 126.091 37.5775 125.906 37.119C125.721 36.6605 125.681 36.1566 125.79 35.6744C125.869 35.3651 125.983 35.3071 126.256 35.469C127.029 35.9184 127.532 36.525 127.467 37.6679Z" fill="#758800"/>
<path d="M119.683 33.2049C120.163 33.2063 120.629 33.3663 121.008 33.66C121.388 33.9537 121.659 34.3646 121.781 34.8287C121.921 35.312 121.754 35.3989 121.312 35.3554C120.856 35.3128 120.422 35.138 120.064 34.8526C119.705 34.5672 119.438 34.1836 119.294 33.7485C119.13 33.2846 119.27 33.1348 119.683 33.2049Z" fill="#758800"/>
<path d="M89.0266 17.3002C88.9904 17.9937 88.7971 18.6752 88.2703 18.7501C87.8764 18.8177 87.7121 18.0831 87.5454 17.6385C87.4364 17.3524 87.4296 17.0375 87.526 16.7469C87.6445 16.4086 87.5913 15.8262 87.9707 15.8117C88.35 15.7972 88.6787 16.2515 88.8478 16.6647C88.9234 16.8717 88.9831 17.0842 89.0266 17.3002Z" fill="#758800"/>
<path d="M70.174 34.8166C70.1851 34.6949 70.2028 34.5739 70.2271 34.4542C70.3262 34.1014 70.2875 33.5408 70.6669 33.4876C71.0463 33.4345 71.3242 33.8936 71.5223 34.256C71.5594 34.3229 71.5917 34.3924 71.619 34.4638C71.8606 35.1598 71.6649 35.7566 71.2082 36.2906C71.1212 36.3921 70.9834 36.5661 70.8409 36.4042C70.4444 35.9663 70.2091 35.4063 70.174 34.8166Z" fill="#758800"/>
<path d="M71.068 23.7543C70.8264 23.7253 70.4228 23.8147 70.2803 23.5272C70.1377 23.2396 70.4542 23.0294 70.6089 22.8023C70.7919 22.5279 71.0415 22.3043 71.3343 22.1526C71.6272 22.0009 71.9537 21.926 72.2834 21.9348C72.5251 21.9348 72.832 21.8019 72.9673 22.0604C73.1026 22.319 72.8972 22.5437 72.774 22.7612C72.6148 23.0729 72.3694 23.3323 72.0669 23.5084C71.7644 23.6845 71.4177 23.7699 71.068 23.7543Z" fill="#758800"/>
<path d="M89.3335 2.85984C89.0339 2.91783 88.9517 2.78009 88.9711 2.48046C89.0186 2.01079 89.232 1.57346 89.5731 1.24704C89.9141 0.92062 90.3604 0.726511 90.8317 0.699585C91.1313 0.699585 91.2328 0.781742 91.2062 1.09346C91.1654 1.56647 90.952 2.00795 90.6067 2.33371C90.2613 2.65948 89.8081 2.84675 89.3335 2.85984Z" fill="#758800"/>
<path d="M107.621 13.2696C107.662 12.8119 107.866 12.3842 108.196 12.0644C108.526 11.7445 108.96 11.554 109.419 11.5274C109.754 11.4912 109.863 11.5637 109.834 11.9213C109.788 12.3885 109.577 12.8239 109.238 13.1494C108.9 13.4749 108.457 13.6692 107.988 13.6973C107.642 13.7143 107.51 13.6031 107.621 13.2696Z" fill="#758800"/>
<path d="M63.7318 13.2866C63.7608 14.0284 63.5506 14.7219 63.0456 14.8113C62.5406 14.9007 62.4536 14.1444 62.2917 13.6973C62.2213 13.5075 62.2029 13.3022 62.2385 13.1029C62.3255 12.6752 62.311 11.9527 62.7218 11.9479C63.28 11.9479 63.582 12.5616 63.7222 13.1271C63.7359 13.1791 63.7391 13.2333 63.7318 13.2866Z" fill="#758800"/>
<path d="M79.4142 17.5878C79.4625 18.4722 78.9696 19.0569 78.2326 19.504C77.9426 19.6803 77.8073 19.6489 77.7034 19.3034C77.5615 18.8678 77.5958 18.3939 77.799 17.9833C78.0023 17.5727 78.3583 17.2581 78.7908 17.1069C79.2547 16.9257 79.5471 16.945 79.4142 17.5878Z" fill="#758800"/>
<path d="M111.443 14.0115C111.927 14.0501 112.7 14.2362 112.726 14.7678C112.751 15.2511 111.951 15.4637 111.402 15.5193C111.101 15.5574 110.794 15.5166 110.513 15.401C110.232 15.2854 109.985 15.0989 109.798 14.8596C109.626 14.6397 110.718 14.0115 111.443 14.0115Z" fill="#758800"/>
<path d="M121.633 18.7476C121.587 19.2051 121.379 19.6311 121.047 19.949C120.715 20.267 120.28 20.4562 119.821 20.4826C119.502 20.5067 119.362 20.4584 119.393 20.0911C119.442 19.6238 119.656 19.1892 119.996 18.8651C120.336 18.5409 120.78 18.3485 121.249 18.3223C121.604 18.3078 121.703 18.4456 121.633 18.7476Z" fill="#758800"/>
<path d="M95.0338 17.0464C94.2219 17.0464 93.6202 16.5945 93.2263 15.7947C93.0644 15.4685 93.1683 15.3501 93.4921 15.28C93.915 15.1721 94.3627 15.2222 94.7511 15.4211C95.1396 15.62 95.442 15.954 95.6016 16.3602C95.8602 16.9642 95.7973 17.0585 95.0338 17.0464Z" fill="#758800"/>
<path d="M112.463 31.9845C112.082 32.0296 111.696 31.9553 111.359 31.7719C111.117 31.6511 110.711 31.5665 110.711 31.3152C110.711 30.9842 111.076 30.8029 111.373 30.6507C111.645 30.5105 111.951 30.4494 112.255 30.4743C112.811 30.5154 113.785 31.1533 113.662 31.4578C113.432 32.0208 112.792 31.8927 112.463 31.9845Z" fill="#758800"/>
<path d="M55.4026 38.6054C55.3926 38.2068 55.5282 37.8182 55.7839 37.5122C56.0396 37.2063 56.398 37.0039 56.792 36.9429C56.9781 36.9091 57.1787 36.798 57.2753 37.1024C57.4372 37.6074 56.9974 38.6127 56.4078 38.9775C56.1662 39.1298 55.898 39.4125 55.6032 39.2675C55.3833 39.1612 55.4509 38.8181 55.4026 38.6054Z" fill="#758800"/>
<path d="M118.27 15.5386C118.852 15.5386 119.915 16.0702 119.787 16.3022C119.49 16.8483 118.905 16.986 118.337 17.0657C118.313 17.0693 118.287 17.0693 118.262 17.0657C117.697 17.0053 117.139 16.8676 116.813 16.3819C116.648 16.1572 117.69 15.5482 118.27 15.5386Z" fill="#758800"/>
<path d="M81.2 35.5681C81.2 36.4719 80.7167 37.0373 80.0183 37.4722C79.6559 37.6945 79.5351 37.5375 79.4505 37.2113C79.3295 36.7963 79.368 36.351 79.5584 35.9629C79.7489 35.5749 80.0776 35.272 80.4799 35.1138C80.9656 34.9109 81.3377 34.8698 81.2 35.5681Z" fill="#758800"/>
<path d="M112.318 22.8361C111.921 22.8613 111.525 22.7677 111.18 22.5672C110.836 22.3667 110.559 22.0683 110.385 21.71C110.119 21.2267 110.284 21.0938 110.757 21.0431C111.16 20.9736 111.575 21.0463 111.93 21.2486C112.285 21.4509 112.559 21.7703 112.705 22.1522C112.942 22.6766 112.864 22.952 112.318 22.8361Z" fill="#758800"/>
<path d="M95.3551 10.7107C94.792 10.614 94.1783 10.5488 93.8835 9.98577C93.7675 9.75863 94.8694 9.18111 95.4082 9.18594C95.9471 9.19078 96.9813 9.72963 96.8581 9.95435C96.5343 10.486 95.9543 10.6285 95.3551 10.7107Z" fill="#758800"/>
<path d="M68.596 25.8252C68.596 25.122 68.741 25.0447 69.3934 25.3419C70.1353 25.6923 70.4446 26.3085 70.5171 27.0793C70.5485 27.3958 70.4663 27.5336 70.099 27.4901C69.6827 27.4586 69.2944 27.2681 69.0146 26.9582C68.7348 26.6483 68.5849 26.2426 68.596 25.8252Z" fill="#758800"/>
<path d="M103.469 5.57578C103.776 5.57578 103.844 5.6966 103.798 5.99864C103.74 6.42611 103.534 6.81969 103.216 7.11071C102.897 7.40174 102.487 7.57173 102.056 7.59104C101.727 7.61521 101.601 7.53063 101.623 7.18267C101.659 6.72616 101.872 6.30181 102.217 6.00119C102.563 5.70057 103.012 5.54778 103.469 5.57578Z" fill="#758800"/>
<path d="M82.3356 16.8144C82.3912 17.0706 82.309 17.1841 82.0287 17.1817C81.7827 17.1677 81.5427 17.1009 81.3249 16.9858C81.1072 16.8706 80.9168 16.7098 80.7668 16.5144C80.6168 16.319 80.5107 16.0936 80.4558 15.8534C80.4008 15.6133 80.3983 15.3641 80.4484 15.123C80.5209 14.8161 80.6489 14.7895 80.9317 14.8813C81.3431 15.0086 81.7022 15.2658 81.9553 15.6143C82.2084 15.9627 82.3418 16.3838 82.3356 16.8144Z" fill="#758800"/>
<path d="M106.127 5.19404C106.11 5.7933 105.557 6.72361 105.325 6.59796C104.825 6.32733 104.629 5.81747 104.6 5.27136C104.571 4.72526 105.156 3.72488 105.383 3.86261C105.603 4.01074 105.785 4.20841 105.914 4.43967C106.043 4.67093 106.116 4.92933 106.127 5.19404Z" fill="#758800"/>
<path d="M83.6912 18.9917C83.6912 19.4919 83.1137 20.4633 82.9132 20.3352C82.6763 20.1875 82.4821 19.9805 82.3499 19.7347C82.2176 19.4889 82.1519 19.2127 82.1592 18.9337C82.1592 18.4093 82.6812 17.5394 82.9542 17.566C83.2273 17.5926 83.7009 18.5157 83.6912 18.9917Z" fill="#758800"/>
<path d="M54.4167 25.3153C54.4167 24.6387 54.5472 24.5904 55.173 24.8562C55.9294 25.1897 56.2387 25.7938 56.3232 26.5743C56.3619 26.9271 56.2435 27.0116 55.91 26.9899C55.4907 26.9637 55.0987 26.7732 54.8191 26.4596C54.5395 26.1461 54.3949 25.7349 54.4167 25.3153Z" fill="#758800"/>
<path d="M58.0992 17.7568C58.0992 17.0319 58.237 16.9401 58.8773 17.247C59.6191 17.6022 59.9333 18.2135 60.0154 18.9964C60.0541 19.3685 59.9043 19.4169 59.5829 19.3806C59.1757 19.3488 58.7959 19.1633 58.5204 18.8617C58.2449 18.5602 58.0943 18.1652 58.0992 17.7568Z" fill="#758800"/>
<path d="M68.9416 23.1937C68.9803 23.4692 68.8595 23.5344 68.5937 23.5296C67.586 23.5127 66.7524 22.3746 67.0593 21.4346C67.1511 21.1567 67.3009 21.1761 67.5232 21.2461C67.9364 21.377 68.297 21.6367 68.5522 21.9871C68.8074 22.3375 68.9438 22.7603 68.9416 23.1937Z" fill="#758800"/>
<path d="M83.121 33.171C83.0557 33.705 82.8648 34.2366 82.338 34.5169C82.123 34.6329 81.531 33.5503 81.5865 33.0671C81.6494 32.5258 81.8475 32.0159 82.3501 31.7525C82.5507 31.6511 83.1185 32.6684 83.121 33.171Z" fill="#758800"/>
<path d="M102.691 2.46116C103.136 2.37417 103.201 2.60131 103.1 3.01934C103.022 3.3903 102.829 3.72717 102.548 3.98157C102.267 4.23597 101.913 4.39484 101.536 4.43535C101.109 4.49092 100.93 4.37977 101 3.91341C101.047 3.50279 101.247 3.12512 101.561 2.85588C101.875 2.58664 102.278 2.44567 102.691 2.46116Z" fill="#758800"/>
<path d="M83.667 35.556C83.6936 34.8939 84.0705 34.5218 84.6118 34.2801C84.7834 34.2028 84.9453 34.1738 85.0419 34.4106C85.2473 34.9156 85.3875 35.4182 85.0226 35.9136C84.7809 36.2253 84.4668 36.5733 84.1213 36.4935C83.7322 36.4017 83.7564 35.8919 83.667 35.556Z" fill="#758800"/>
<path d="M73.7477 25.83C73.6317 26.0716 73.8806 26.5549 73.3563 26.6056C72.7691 26.6612 72.1142 25.9266 72.1698 25.2887C72.1964 24.9649 72.1336 24.5155 72.5782 24.4236C73.059 24.3246 73.7477 25.1534 73.7477 25.83Z" fill="#758800"/>
<path d="M82.1906 24.5832C82.0142 24.8079 82.3549 25.3758 81.7604 25.4048C81.166 25.4338 80.5837 24.7644 80.6006 24.1337C80.6006 23.781 80.5547 23.3049 81.0283 23.23C81.5019 23.1551 82.1785 23.9501 82.1906 24.5832Z" fill="#758800"/>
<path d="M94.3837 1.99231C94.188 2.19529 94.5529 2.78972 93.9004 2.7728C93.5859 2.73759 93.2964 2.58428 93.0905 2.34387C92.8847 2.10345 92.7777 1.79385 92.7913 1.47762C92.8131 1.14899 92.7116 0.641549 93.2408 0.627051C93.8255 0.612552 94.3861 1.31814 94.3837 1.99231Z" fill="#758800"/>
<path d="M65.0826 20.3956C64.9763 20.6372 65.172 21.0842 64.6911 21.1205C64.1136 21.1736 63.4564 20.427 63.5192 19.7746C63.5506 19.4628 63.4467 18.9844 63.9541 18.9457C64.5099 18.9143 65.1116 19.6972 65.0826 20.3956Z" fill="#758800"/>
<path d="M109.672 33.6253C109.549 33.8476 109.81 34.3502 109.254 34.3792C108.698 34.4082 108.046 33.7147 108.087 33.0985C108.111 32.7602 108.01 32.2528 108.522 32.1827C109.034 32.1126 109.679 32.9221 109.672 33.6253Z" fill="#758800"/>
<path d="M108.725 30.3366L108.868 30.3583C108.797 30.4574 108.781 30.3317 108.735 30.3269L108.725 30.3366Z" fill="#758800"/>
<path d="M80.144 18.6026L80.0425 18.4528L80.1029 18.4286C80.1029 18.489 80.1222 18.5518 80.1295 18.6122L80.144 18.6026Z" fill="#758800"/>
<path d="M79.2238 24.9994L79.2089 24.9819L79.2263 25.0044L79.2238 24.9994Z" fill="#758800"/>
<path d="M90.967 41.8434C90.6794 44.4241 90.7253 46.7052 92.6584 48.445C94.693 50.2718 96.7663 52.0527 98.8347 53.8505C100.579 55.368 102.271 56.9338 103.496 58.9249C104.275 60.1459 104.733 61.544 104.827 62.9893C104.381 63.008 103.934 63.0023 103.489 62.9723C103.403 62.9434 103.325 62.8939 103.263 62.8282C103.201 62.7625 103.155 62.6826 103.131 62.5954C102.764 60.3167 101.44 58.6035 99.8399 57.0764C98.581 55.8682 97.2278 54.7542 95.9109 53.604C94.2726 52.1735 92.627 50.7502 90.9404 49.2859C90.9043 49.445 90.8801 49.6065 90.8679 49.7692C90.8679 50.9363 90.8896 52.1034 90.8679 53.2681C90.8388 53.6624 90.903 54.0581 91.0554 54.4229C91.2078 54.7878 91.4441 55.1115 91.745 55.368C92.7116 56.1871 93.7168 56.958 94.7027 57.7529C96.1525 58.9297 97.31 60.3071 97.6362 62.2257C97.6724 62.4407 97.6821 62.663 97.7087 62.9385H96.0921C95.6862 59.9229 93.0789 58.7847 90.9525 56.9918C90.9162 57.3349 90.8751 57.5427 90.8727 57.7481C90.8727 59.1689 90.8727 60.5874 90.8727 62.0082C90.8727 63.0424 90.8727 63.0424 89.8095 62.9748C89.6597 62.9627 89.5123 62.9361 89.2634 62.9047V57.1851C89.1136 57.1368 89.0435 57.0933 89.0218 57.1078C87.6638 58.2362 86.2816 59.3357 84.9743 60.5173C84.6046 60.8532 84.392 61.4089 84.2132 61.9019C83.7879 63.0762 83.7299 63.1294 82.4178 62.8539C82.4648 61.4784 83.0181 60.1688 83.9715 59.1762C84.7658 58.3586 85.6239 57.6055 86.5377 56.9241C89.2296 54.8799 89.2417 54.8968 89.2417 51.5042V49.1168C89.0917 49.1929 88.9472 49.2793 88.8091 49.3753C86.9292 51.0354 85.0396 52.6834 83.1838 54.37C81.7968 55.6289 80.4049 56.8903 79.1122 58.2362C77.8736 59.5093 77.0795 61.1485 76.848 62.9095H75.3305C75.3344 61.8442 75.5999 60.7962 76.1038 59.8576C77.1718 57.6684 78.8609 55.9914 80.6611 54.4111C82.4178 52.8767 84.2228 51.4003 85.9965 49.8828C86.4387 49.5058 86.8446 49.0854 87.2554 48.6746C88.6231 47.3045 89.4833 45.7362 89.2513 43.7113C89.2196 43.1052 89.2196 42.4979 89.2513 41.8918C89.0556 41.9812 88.9444 41.9957 88.8937 42.0585C86.7383 44.69 84.0392 46.7246 81.4029 48.8244C78.6579 51.033 75.867 53.1956 73.5859 55.9141C71.8944 57.9318 70.6355 60.1548 70.4446 62.895H68.8763C68.9513 62.2909 68.9827 61.7182 69.0962 61.16C69.6617 58.4102 71.097 56.0856 73.0422 54.1646C75.3064 51.9222 77.7614 49.8707 80.1609 47.7708C82.1447 46.0335 84.2107 44.3879 86.1632 42.6264C88.2389 40.7488 89.6331 38.5185 89.2465 35.5391C89.1861 35.0848 89.3359 34.8528 89.8603 34.8311C90.8679 34.7924 90.9525 34.7707 90.8534 35.7976C90.6118 38.2479 91.5227 40.2583 93.2432 41.8749C95.3092 43.808 97.5009 45.6203 99.6297 47.4954C102.082 49.6556 104.6 51.7482 106.944 54.0196C108.805 55.7697 110.153 57.9947 110.842 60.4545C111.052 61.2301 111.141 62.0348 111.303 62.9192H109.612C109.237 58.6349 106.586 55.7111 103.622 53.012C101.841 51.3954 99.939 49.9118 98.0639 48.3919C95.604 46.4104 93.103 44.458 90.967 41.8434Z" fill="#B5A642"/>
<path d="M90.3097 35.6647C90.2493 34.7368 90.201 33.7799 90.4596 32.8762C90.677 32.1292 91.1243 31.4697 91.7378 30.9914C92.9943 29.9886 94.6834 29.643 96.2299 29.3917C98.2231 29.0691 100.247 28.9742 102.261 29.109C103.295 29.1767 104.315 29.3192 105.337 29.4811C106.32 29.6572 107.311 29.7782 108.307 29.8436C110.177 29.9282 112.19 29.5512 113.575 28.2004C113.787 27.9951 113.464 27.6737 113.253 27.8791C112.009 29.0873 110.206 29.4401 108.527 29.3941C107.497 29.3443 106.472 29.2264 105.458 29.0414C104.446 28.8819 103.433 28.7369 102.409 28.662C100.355 28.5183 98.2922 28.6075 96.2589 28.9278C94.6665 29.1694 92.9629 29.5295 91.6363 30.5033C90.9257 31.0061 90.3874 31.7157 90.0947 32.5355C89.7467 33.5358 89.7902 34.6232 89.853 35.6768C89.8724 35.9667 90.3363 35.9691 90.3097 35.6768V35.6647Z" fill="#B5A642"/>
<path d="M90.0438 34.9205C90.3921 33.3772 90.1589 31.7596 89.389 30.3775C88.619 28.9954 87.3663 27.9458 85.8707 27.4297C84.7423 27.0358 83.4979 26.9464 82.3114 26.9464C79.837 26.9295 77.3941 27.3789 74.9414 27.6351C73.7275 27.7586 72.5081 27.8207 71.2878 27.8211C70.0797 27.8211 68.8715 27.8211 67.6874 28.0869C65.8921 28.4832 63.9855 29.7301 63.6279 31.6608C63.5856 31.8837 63.5662 32.1104 63.5699 32.3373C63.5863 32.3848 63.6172 32.426 63.6581 32.4551C63.699 32.4843 63.748 32.5 63.7983 32.5C63.8485 32.5 63.8975 32.4843 63.9384 32.4551C63.9793 32.426 64.0102 32.3848 64.0266 32.3373C64.0024 30.4888 65.6867 29.1236 67.3274 28.6499C68.4329 28.3728 69.5711 28.2484 70.7103 28.2802C71.8678 28.2802 73.018 28.2657 74.1706 28.1667C76.5 27.9637 78.8076 27.536 81.1443 27.4272C83.29 27.3306 85.6219 27.4055 87.3979 28.7611C88.2981 29.4571 88.9827 30.394 89.3723 31.4632C89.7619 32.5323 89.8406 33.69 89.5992 34.8021C89.5364 35.0896 89.9762 35.2104 90.039 34.9253L90.0438 34.9205Z" fill="#B5A642"/>
<path d="M89.754 35.208L89.7177 31.7115C89.7235 31.1463 89.6928 30.5813 89.6259 30.02C89.5428 29.4947 89.3926 28.9823 89.1789 28.4953C88.3935 26.6491 87.2796 24.8127 85.7645 23.4764C85.0524 22.8396 84.2347 22.3318 83.3481 21.9759C82.3526 21.582 81.3039 21.4926 80.2455 21.4587C79.1307 21.4258 78.0222 21.2784 76.9374 21.019C75.8718 20.758 74.8255 20.4149 73.7961 20.0669C73.2327 19.8978 72.6898 19.6668 72.1772 19.3782C71.7284 19.0999 71.3216 18.7589 70.969 18.3658C70.2561 17.5949 69.6714 16.7154 68.9078 15.9929C68.6952 15.7899 68.3714 16.1137 68.584 16.3143C69.2606 16.9546 69.7922 17.7182 70.406 18.4189C71.0016 19.1417 71.7535 19.72 72.6049 20.1104C73.5961 20.5147 74.6113 20.8576 75.6447 21.1374C76.6807 21.4643 77.7442 21.6964 78.8222 21.8309C79.9338 21.9517 81.0671 21.872 82.1665 22.0991C83.0911 22.2992 83.9646 22.6875 84.7327 23.2396C86.3759 24.3922 87.5043 26.1151 88.3911 27.8839C88.6689 28.4052 88.8932 28.9533 89.0605 29.5198C89.2025 30.1181 89.2691 30.7318 89.2586 31.3466C89.2779 32.6321 89.2876 33.9201 89.3021 35.2128C89.3021 35.2731 89.326 35.3308 89.3686 35.3734C89.4112 35.416 89.469 35.44 89.5292 35.44C89.5895 35.44 89.6473 35.416 89.6899 35.3734C89.7325 35.3308 89.7564 35.2731 89.7564 35.2128L89.754 35.208Z" fill="#B5A642"/>
<path d="M76.4589 20.932C75.613 19.4234 75.3786 17.6476 75.8041 15.9711C76.2004 14.3981 77.0123 12.9821 77.6671 11.5081C78.0489 10.6803 78.3304 9.80985 78.5056 8.91528C78.5539 8.62773 78.1141 8.50449 78.0634 8.79446C77.7758 10.4497 76.9567 11.9358 76.2632 13.4412C75.5697 14.9466 74.9994 16.597 75.1686 18.315C75.2647 19.3159 75.5692 20.2855 76.0626 21.1615C76.1013 21.1969 76.1503 21.2187 76.2024 21.2238C76.2545 21.2288 76.3068 21.2168 76.3515 21.1896C76.3962 21.1623 76.4309 21.1213 76.4502 21.0726C76.4696 21.024 76.4726 20.9704 76.4589 20.9199V20.932Z" fill="#B5A642"/>
<path d="M90.9284 34.7924C90.6142 31.1678 90.3412 27.0599 93.0379 24.2062C94.2605 22.9134 95.7829 21.8768 97.2762 20.9223C98.7695 19.9678 100.328 19.0859 101.872 18.2063C103.621 17.2331 105.315 16.1642 106.947 15.0046C107.188 14.833 106.947 14.4367 106.705 14.6107C103.755 16.7685 100.456 18.3754 97.368 20.3158C95.8341 21.2413 94.3971 22.3188 93.0789 23.532C92.4239 24.1484 91.8738 24.8674 91.4503 25.6609C91.0423 26.4526 90.7447 27.2965 90.5659 28.1691C90.1068 30.3438 90.2928 32.5935 90.4837 34.7948C90.5079 35.0848 90.967 35.0872 90.9404 34.7948L90.9284 34.7924Z" fill="#B5A642"/>
<path d="M90.4789 35.2105C90.4185 33.1517 90.3919 31.1026 90.2952 29.0342C90.2688 28.1141 90.1 27.2036 89.795 26.3351C89.5001 25.5667 89.1437 24.8232 88.7294 24.112C87.9054 22.6622 86.9751 21.2365 86.6368 19.5813C86.4653 18.6021 86.3997 17.6072 86.4411 16.614C86.4092 15.8353 86.4824 15.0558 86.6586 14.2966C86.7555 13.919 86.943 13.5707 87.2047 13.2818C87.5333 12.9435 87.9731 12.7985 88.4008 12.6245C88.8384 12.4741 89.2279 12.2097 89.5292 11.8585C89.8111 11.5032 89.9795 11.0712 90.0125 10.6189C90.0367 10.3265 89.58 10.3289 89.5558 10.6189C89.5229 11.02 89.3522 11.3974 89.0725 11.6869C88.7655 11.9642 88.4007 12.1697 88.0045 12.2886C87.608 12.4218 87.2418 12.632 86.9268 12.9072C86.6832 13.1477 86.4902 13.4344 86.3589 13.7505C86.0969 14.456 85.9699 15.2043 85.9844 15.9567C85.9414 16.9237 85.9648 17.8925 86.0545 18.8564C86.1564 19.7389 86.3893 20.6014 86.7455 21.4153C87.0882 22.1666 87.4739 22.8976 87.9006 23.6046C88.7487 25.0689 89.6041 26.5477 89.7829 28.2634C89.9014 29.3991 89.8869 30.5517 89.9207 31.6922L90.0222 35.2081C90.0386 35.2555 90.0694 35.2967 90.1104 35.3259C90.1513 35.355 90.2003 35.3707 90.2505 35.3707C90.3008 35.3707 90.3498 35.355 90.3907 35.3259C90.4316 35.2967 90.4624 35.2555 90.4789 35.2081V35.2105Z" fill="#B5A642"/>
<path d="M87.485 22.0846C89.4785 20.4801 90.6263 18.0855 91.2304 15.6449C91.4155 14.8836 91.5623 14.1134 91.6702 13.3373C91.7137 13.0497 91.2739 12.9265 91.2304 13.2165C90.8655 15.7343 90.1793 18.3078 88.5724 20.3376C88.1562 20.8636 87.6829 21.3417 87.1612 21.7632C86.9316 21.9469 87.2578 22.2682 87.485 22.0846Z" fill="#B5A642"/>
<path d="M96.9451 20.9827C98.7381 21.669 100.587 22.3335 102.522 22.4325C104.227 22.5543 105.923 22.0971 107.336 21.1349C108.082 20.6131 108.725 19.9577 109.232 19.2018C109.399 18.9602 108.991 18.7186 108.839 18.9602C107.977 20.2284 106.718 21.1738 105.26 21.6472C103.568 22.1957 101.742 21.9952 100.043 21.5336C99.0367 21.2516 98.0455 20.9185 97.0732 20.5357C96.8001 20.4318 96.6817 20.8716 96.9524 20.9779L96.9451 20.9827Z" fill="#B5A642"/>
</svg>
