<svg width="25" height="22" viewBox="0 0 25 22" fill="none" xmlns="http://www.w3.org/2000/svg">
<path fill-rule="evenodd" clip-rule="evenodd" d="M18.9164 0.0718669C18.019 0.363827 17.2777 1.20008 17.1096 2.11001C17.0129 2.63365 17.1125 3.3615 17.3423 3.80986C17.657 4.42404 18.1835 4.8907 18.8376 5.13546C19.3514 5.32764 20.1761 5.31747 20.6797 5.11264C21.6003 4.73827 22.2195 3.98003 22.3752 3.03624C22.5635 1.895 21.979 0.790542 20.8868 0.223738C20.5188 0.0327982 20.4404 0.0163026 19.8334 0.00216353C19.4069 -0.00775864 19.0862 0.0166127 18.9164 0.0718669ZM19.9521 0.729335C19.9521 0.953886 19.9671 0.977389 20.1101 0.977389C20.2551 0.977389 20.6337 1.13261 20.6337 1.19202C20.6337 1.20597 20.6062 1.28988 20.5726 1.37843C20.5131 1.53471 20.5059 1.53669 20.3277 1.44448C19.8792 1.21236 19.3325 1.39753 19.3325 1.78158C19.3325 2.01339 19.4588 2.134 19.9183 2.34094C20.6347 2.66348 20.8789 3.06712 20.6847 3.60819C20.614 3.8054 20.5244 3.90195 20.2774 4.04706C19.9898 4.21599 19.9589 4.25592 19.9409 4.48116C19.9235 4.69914 19.9024 4.72921 19.7662 4.72921C19.6283 4.72921 19.6092 4.70038 19.5923 4.46565C19.5755 4.23484 19.5549 4.2021 19.4259 4.2021C19.2161 4.2021 18.9505 4.09053 18.8158 3.94592C18.7523 3.87764 18.7101 3.81575 18.722 3.80837C18.734 3.80099 18.7901 3.75957 18.8468 3.71634C18.9308 3.65228 18.9923 3.65557 19.1797 3.73389C19.7455 3.97048 20.2619 3.77898 20.2619 3.33254C20.2619 3.13311 20.2277 3.06694 20.0605 2.9439C19.9498 2.86235 19.7616 2.75786 19.6423 2.71179C19.302 2.58032 18.9849 2.35136 18.9076 2.18138C18.7201 1.76961 18.9229 1.29353 19.3795 1.07326C19.6194 0.957607 19.6423 0.926228 19.6423 0.713894C19.6423 0.50714 19.6595 0.481281 19.7972 0.481281C19.9366 0.481281 19.9521 0.506086 19.9521 0.729335ZM14.2575 4.6734C13.6329 4.81014 13.1019 5.10774 12.609 5.5974C11.8539 6.34752 11.5058 7.15903 11.5061 8.16861C11.5065 9.9107 12.7358 11.3761 14.4548 11.6836C15.2594 11.8275 16.0501 11.7084 16.7985 11.3303C17.2026 11.1262 17.8267 10.5729 18.0793 10.195C18.9507 8.89101 18.8933 7.16151 17.9383 5.94505C17.0766 4.84735 15.675 4.36315 14.2575 4.6734ZM15.3666 5.5925C15.3666 5.91665 15.3733 5.92992 15.5525 5.96458C15.6548 5.98431 15.8152 6.01575 15.9088 6.03441C16.0025 6.05308 16.1296 6.10616 16.1911 6.1523C16.2952 6.23038 16.2963 6.25214 16.2066 6.46702C16.135 6.63836 16.0903 6.68165 16.0328 6.63514C15.9901 6.60066 15.795 6.53697 15.5991 6.49369C15.1641 6.39744 14.8184 6.47911 14.6264 6.72351C14.3316 7.09857 14.5665 7.43629 15.3906 7.82226C16.4126 8.30095 16.7057 8.92189 16.2744 9.69464C16.1716 9.87882 16.0451 9.98381 15.7563 10.1244L15.3742 10.3104L15.3549 10.6515C15.3361 10.9851 15.3313 10.993 15.1375 11.0118L14.9393 11.031L14.9206 10.6707L14.9019 10.3104L14.654 10.2702C14.0897 10.1786 13.8476 10.0396 13.9012 9.83795C13.9817 9.53434 14.0203 9.51927 14.3675 9.65626C14.7598 9.81098 15.2524 9.82127 15.4919 9.67963C15.5884 9.62264 15.7134 9.47363 15.7698 9.34848C15.8614 9.14495 15.8627 9.09795 15.7814 8.90322C15.6789 8.65771 15.4568 8.47893 15.0538 8.31757C14.3526 8.03677 14.0952 7.81216 13.9455 7.35028C13.7791 6.83687 14.1947 6.17245 14.7729 6.02722C14.9194 5.99044 14.9329 5.95962 14.9329 5.66301C14.9329 5.28876 14.9535 5.25633 15.1911 5.25633C15.3622 5.25633 15.3666 5.2647 15.3666 5.5925ZM23.3602 9.7636C23.0445 9.87386 21.8893 10.6328 21.1914 11.1884C20.9494 11.381 19.32 12.6365 18.9909 12.8838C18.7868 13.0372 18.6059 13.1786 18.5889 13.198C18.5718 13.2175 18.3909 13.3571 18.187 13.5083C17.7243 13.8511 17.4735 14.0691 17.4735 14.1284C17.4735 14.1535 17.5959 14.3372 17.7456 14.5367C18.4541 15.4813 18.5351 16.0736 18.0625 16.8523C17.7748 17.3263 17.3817 17.7071 16.9931 17.8885C16.5439 18.0981 16.0783 18.0894 15.1807 17.8547C14.7888 17.7523 14.1475 17.5844 13.7555 17.4818C11.7201 16.9489 11.108 16.7894 10.9671 16.755C10.2098 16.5703 10.0435 16.4223 10.1932 16.0661C10.3269 15.7477 10.1079 15.7191 12.6401 16.3854C14.493 16.8728 14.8873 16.9781 15.3595 17.111C15.9872 17.2878 16.6533 17.2529 17.0147 17.0241C17.3661 16.8016 17.505 16.4966 17.5022 15.9537C17.4998 15.4849 17.4142 15.2595 17.118 14.943C16.9002 14.7101 16.7211 14.6181 16.2961 14.521C15.4567 14.329 13.562 13.8424 11.2459 13.2241C9.97859 12.8858 9.35014 12.72 8.33353 12.456C7.49309 12.2378 6.59223 12.3145 5.83773 12.6686C5.65785 12.753 5.49723 12.822 5.48075 12.822C5.4497 12.822 4.91736 13.1868 4.64656 13.3936C4.50863 13.499 1.61384 16.3626 0.448818 17.5462L0 18.0022L1.97634 20.0011C3.06334 21.1005 3.98477 22 4.02399 22C4.06316 22 4.54692 21.5604 5.09904 21.0232C6.42077 19.7368 6.39072 19.7642 6.55604 19.6995C6.74138 19.6271 7.15172 19.6303 7.46601 19.7066C7.91563 19.8158 10.9111 20.2434 14.1719 20.6638C15.1744 20.793 15.7707 20.6732 16.4385 20.2082C16.5817 20.1085 17.3124 19.4078 18.0622 18.651C18.8119 17.8941 20.6151 16.0888 22.0692 14.6391C24.5825 12.1335 24.7202 11.9844 24.8577 11.622C24.9519 11.3737 25.0015 11.1128 25 10.874C24.9976 10.508 24.9971 10.5069 24.6448 10.1865C24.2092 9.79033 23.7327 9.63343 23.3602 9.7636Z" fill="#3D3D3D"/>
</svg>
