<svg width="26" height="25" viewBox="0 0 26 25" fill="none" xmlns="http://www.w3.org/2000/svg">
<path fill-rule="evenodd" clip-rule="evenodd" d="M24.4081 16.1285C24.9311 16.1677 25.3224 16.6249 25.2832 17.148L25.0426 20.3255C24.8437 22.9471 22.6312 25 20.0033 25H5.31241C2.68451 25 0.472009 22.9471 0.273175 20.3255L0.032548 17.148C-0.00671222 16.6249 0.38589 16.1677 0.908937 16.1285C1.43452 16.1095 1.88791 16.4805 1.92843 17.0049L2.1678 20.1811C2.29191 21.8174 3.67235 23.1003 5.31241 23.1003H20.0033C21.6434 23.1003 23.0251 21.8174 23.1479 20.1811L23.3886 17.0049C23.4291 16.4805 23.8939 16.1082 24.4081 16.1285ZM14.2918 0C16.1953 0 17.7721 1.42637 18.0096 3.26623L20.5039 3.26733C23.1584 3.26733 25.3165 5.43171 25.3165 8.0938V12.4492C25.3165 12.7873 25.1366 13.0988 24.8466 13.2685C21.7206 15.0992 17.7607 16.167 13.6075 16.3094L13.608 18.5873C13.608 19.1116 13.1824 19.5371 12.6581 19.5371C12.1338 19.5371 11.7083 19.1116 11.7083 18.5873L11.7075 16.3097C7.55845 16.1686 3.5982 15.1006 0.469856 13.2685C0.17857 13.0988 0 12.7873 0 12.4492V8.08114C0 5.42664 2.16438 3.26733 4.8252 3.26733L7.30659 3.26623C7.54409 1.42637 9.12098 0 11.0244 0H14.2918ZM20.5039 5.16702H4.8252C3.21174 5.16702 1.89969 6.474 1.89969 8.08114V11.8957C4.90589 13.5291 8.69579 14.4244 12.6405 14.4261L12.6581 14.4244L12.6722 14.425L13.2752 14.4187C17.0059 14.3298 20.5649 13.4447 23.4168 11.8957V8.0938C23.4168 6.47907 22.1111 5.16702 20.5039 5.16702ZM14.2918 1.89969H11.0244C10.1716 1.89969 9.45177 2.48007 9.23913 3.26655H16.0771C15.8645 2.48007 15.1446 1.89969 14.2918 1.89969Z" fill="#868686"/>
</svg>
