<svg width="19" height="19" viewBox="0 0 19 19" fill="none" xmlns="http://www.w3.org/2000/svg">
<path fill-rule="evenodd" clip-rule="evenodd" d="M12.4807 0.00871239C11.18 0.119501 9.73924 0.504466 9.02526 0.932071C8.18861 1.43308 8.05261 1.85562 8.57566 2.32889C8.91482 2.63579 9.27865 2.83465 9.85132 3.0262C12.4122 3.88276 16.3862 3.67598 18.0819 2.59794C18.8737 2.09455 18.9417 1.64661 18.3008 1.15458C17.9897 0.915778 17.3024 0.595098 16.7818 0.445906C16.5903 0.391071 16.3273 0.315707 16.1972 0.278467C15.6745 0.128764 14.7011 0.0226308 13.6989 0.00605909C13.1519 -0.00297153 12.6037 -0.00176128 12.4807 0.00871239ZM8.25444 4.09163C8.25459 4.53129 8.27841 4.9709 8.30735 5.06856C8.45035 5.55058 9.4502 6.06421 10.9645 6.43349L11.511 6.56681H13.5H15.4889L16.0355 6.43349C16.8349 6.23854 17.3744 6.0516 17.8451 5.80642C18.3497 5.54356 18.6221 5.30639 18.6927 5.06856C18.7216 4.9709 18.7454 4.52854 18.7456 4.08553L18.7459 3.27999L18.4102 3.45399C17.6872 3.82881 17.0824 4.03363 16.2348 4.19082C16.016 4.23137 15.732 4.28444 15.6037 4.30869C14.8346 4.45416 12.5973 4.48376 11.7597 4.35957C10.3994 4.15791 9.64651 3.95598 8.86371 3.58284L8.25414 3.29223L8.25444 4.09163ZM3.60497 4.10368C3.55028 4.11639 3.32652 4.15884 3.10773 4.19809C1.93679 4.40802 0.836403 4.82557 0.381282 5.23265C0.133508 5.45423 0.0497238 5.60998 0.0497238 5.84911C0.0497238 6.12957 0.202923 6.32564 0.635669 6.59902C1.52373 7.16004 2.85126 7.48928 4.58776 7.57931C5.5712 7.63028 6.88102 7.5876 7.24724 7.49268L7.35912 7.46368V5.84152V4.21931L7.24977 4.16457C7.13934 4.10922 3.81993 4.05378 3.60497 4.10368ZM8.2627 7.27669C8.28189 8.30339 8.29656 8.34398 8.76595 8.66871C9.53428 9.20026 10.7365 9.5708 11.9883 9.66189C12.778 9.71938 14.2211 9.71948 15.0097 9.66203C16.7303 9.53682 18.5034 8.80417 18.6926 8.14028C18.7261 8.0227 18.7429 7.63903 18.7346 7.17675L18.721 6.40859L18.2429 6.63459C16.8683 7.28419 15.0524 7.61073 13.1271 7.55455C11.4059 7.50432 9.8547 7.1754 8.77177 6.63109C8.5232 6.50611 8.30327 6.40389 8.28308 6.40389C8.2629 6.40389 8.25375 6.79667 8.2627 7.27669ZM0 8.2405V9.14617L0.26105 9.39382C0.931077 10.0294 2.27178 10.4749 4.02464 10.6445C5.01171 10.7399 7.17017 10.6492 7.32331 10.5058C7.34693 10.4837 7.37935 9.98858 7.39541 9.40541L7.4246 8.34519L7.27996 8.37964C6.79291 8.49564 3.91043 8.4827 3.11315 8.36088C2.30559 8.23752 1.26557 7.92196 0.559392 7.58606C0.268956 7.4479 0.0243149 7.33488 0.015663 7.33488C0.00706078 7.33488 0 7.74242 0 8.2405ZM8.25414 10.3036C8.25414 11.0939 8.26006 11.1448 8.37741 11.3652C8.56452 11.7167 8.81199 11.8744 9.87017 12.3161C10.05 12.3911 10.4586 12.507 10.9889 12.6334L11.511 12.7579H13.4751C14.9301 12.7579 15.5165 12.7418 15.7376 12.6958C16.1366 12.6128 17.0462 12.3669 17.1479 12.3146C17.1927 12.2916 17.4058 12.1986 17.6217 12.108C18.1556 11.8838 18.4712 11.6497 18.6226 11.3652C18.7399 11.1447 18.7459 11.0939 18.7459 10.3026V9.47146L18.2274 9.72716C16.9443 10.36 15.607 10.6072 13.4751 10.6058C11.3893 10.6044 10.1524 10.3766 8.83984 9.75211L8.25414 9.47346V10.3036ZM0 11.3192V12.2312L0.310773 12.5189C0.788022 12.9607 1.36919 13.2228 2.43646 13.4778C3.70208 13.78 5.06392 13.8686 6.48164 13.7408C6.94253 13.6992 7.33967 13.6536 7.36424 13.6394C7.40968 13.6131 7.42908 11.5123 7.38428 11.4703C7.37075 11.4576 7.13019 11.4741 6.84975 11.5068C6.16366 11.587 4.61143 11.5844 3.74216 11.5016C2.45123 11.3786 1.1524 11.0347 0.41758 10.6212C0.208343 10.5035 0.0287901 10.4072 0.018547 10.4072C0.0083536 10.4072 0 10.8176 0 11.3192ZM18.174 12.8382C16.8493 13.4836 15.7106 13.6878 13.4503 13.6854C11.2093 13.683 10.3029 13.5206 8.89205 12.8685C8.56661 12.7181 8.28994 12.595 8.27726 12.595C8.26453 12.595 8.25414 12.9636 8.25414 13.4142C8.25414 14.3516 8.27209 14.4137 8.64343 14.7595C8.89672 14.9954 9.51484 15.2993 10.1436 15.4971C11.7109 15.9901 14.3927 16.0615 16.2348 15.6593C17.1387 15.4619 17.9832 15.1022 18.3607 14.7538C18.7336 14.4096 18.7501 14.35 18.7346 13.4003L18.721 12.5717L18.174 12.8382ZM0 14.4V15.3297L0.239221 15.5469C1.14857 16.3728 2.61283 16.7907 4.84807 16.8625C5.62092 16.8873 7.14963 16.821 7.3342 16.7548C7.39765 16.7319 7.40884 16.5638 7.40884 15.6339V14.5399L7.22238 14.5687C6.81613 14.6316 4.29464 14.6545 3.70616 14.6007C2.37709 14.4792 0.975829 14.0717 0.161602 13.5699L0 13.4703V14.4ZM8.25414 16.4476C8.25414 17.4097 8.30054 17.5737 8.6574 17.8741C9.15549 18.2934 10.3896 18.7344 11.5608 18.9117C12.3463 19.0306 14.6499 19.0291 15.4584 18.9092C16.6172 18.7373 17.8354 18.301 18.3383 17.8778C18.695 17.5775 18.7459 17.397 18.7459 16.4301V15.6737L18.1865 15.9207C16.6382 16.6041 15.0862 16.8765 13.0813 16.8168C11.34 16.7649 10.1501 16.5145 8.81717 15.9196C8.54851 15.7997 8.31192 15.6926 8.29144 15.6817C8.27095 15.6708 8.25414 16.0154 8.25414 16.4476Z" fill="#3D3D3D"/>
</svg>
