<svg width="22" height="22" viewBox="0 0 22 22" fill="none" xmlns="http://www.w3.org/2000/svg">
<path fill-rule="evenodd" clip-rule="evenodd" d="M8.70816 0.0281061C7.72255 0.180255 6.59264 0.762283 6.3647 1.23525C6.30314 1.36295 6.23491 1.41131 5.96507 1.51816C4.56607 2.07245 3.98471 3.16847 3.98471 5.25186C3.98471 6.41497 4.33487 7.48996 4.82508 7.83159C4.98304 7.94168 5.00802 7.99143 5.16906 8.51605C5.39413 9.24924 5.65462 9.85054 5.97774 10.3829C6.12056 10.6181 6.27278 10.8773 6.31599 10.9588C6.35924 11.0403 6.46499 11.1934 6.55104 11.2989L6.70743 11.4909L6.72641 12.389C6.74182 13.1175 6.76102 13.3296 6.82814 13.5123C7.1299 14.3334 7.85198 15.0417 8.65076 15.3005C9.02993 15.4233 9.76729 15.4309 10.1185 15.3156C11.0442 15.0117 11.7544 14.3053 11.9767 13.4673C12.0399 13.2291 12.0648 12.9428 12.0786 12.2965L12.097 11.441L12.3196 11.1388C12.622 10.7281 12.9936 10.1156 13.1879 9.70744C13.3461 9.37518 13.7898 8.1058 13.7898 7.98554C13.7898 7.95167 13.8616 7.85419 13.9494 7.76882C14.2456 7.48077 14.4811 6.94319 14.5993 6.28533C14.7017 5.71546 14.6535 4.0833 14.5018 2.98336C14.373 2.04877 13.5366 1.00584 12.6355 0.656152C12.5193 0.611035 12.2328 0.499186 11.9989 0.407555C11.3074 0.136713 10.6749 0.0224326 9.7603 0.00316077C9.32937 -0.00593482 8.85591 0.00527707 8.70816 0.0281061ZM7.17561 4.19983C7.36339 4.31965 7.59356 4.39584 8.3276 4.58113C8.8799 4.72053 9.88571 4.71873 11.1547 4.57608C12.2549 4.45239 12.3701 4.46432 12.6648 4.7321C13.1769 5.19738 13.4264 6.43059 13.2307 7.52931C13.0712 8.42442 12.6543 9.4782 12.1105 10.3603C11.5669 11.2422 11.1194 11.6663 10.3202 12.0571L9.83059 12.2965L9.35892 12.2943C8.81834 12.2917 8.5986 12.2217 8.10374 11.8942C7.46806 11.4735 6.5844 10.355 6.24113 9.5366C5.98969 8.9372 5.70131 8.06132 5.61678 7.64022C5.47083 6.91352 5.64383 6.13355 6.08143 5.54508C6.17464 5.41977 6.40079 5.03901 6.58408 4.69896C6.76734 4.35891 6.93277 4.08033 6.95175 4.07983C6.97069 4.07938 7.07143 4.13337 7.17561 4.19983ZM16.3194 4.82873C16.2209 4.83657 15.964 4.86651 15.7486 4.89528L15.3568 4.94756L15.3567 5.33503C15.3563 6.48161 15.0212 7.61298 14.5378 8.09946C14.3962 8.24201 14.3357 8.36908 14.1732 8.86506C14.0661 9.19219 13.9372 9.57123 13.8869 9.70744C13.7233 10.1502 13.2245 11.0448 12.9109 11.4579C12.8279 11.5672 12.76 11.7043 12.76 11.7627V11.8688H13.7434H14.7267L14.9472 11.6023L15.1676 11.3359L15.4068 11.5166C15.7251 11.7572 15.918 11.8506 16.1739 11.8881L16.3866 11.9193V11.2455V10.5717L16.0843 10.4786C15.6066 10.3313 15.1317 10.0368 15.0084 9.81136C14.8044 9.43813 14.7949 8.90487 14.9852 8.50155C15.1551 8.14156 15.7138 7.76517 16.1739 7.70074L16.3866 7.67097V7.47109V7.27122L16.6216 7.28486L16.8567 7.29846L16.8701 7.48244L16.8835 7.66647L17.1809 7.72154C17.5399 7.78809 18.3287 8.15718 18.2959 8.24327C18.2836 8.27538 18.1785 8.4346 18.0623 8.59701L17.8511 8.8923L17.6673 8.76515C17.4741 8.6315 17.1161 8.49169 16.967 8.49169C16.8835 8.49169 16.8791 8.52564 16.8791 9.15869V9.82573L17.234 9.92889C17.9351 10.1326 18.1935 10.3104 18.3849 10.7206C18.5029 10.9735 18.5257 11.4623 18.4315 11.7195C18.3412 11.9658 18.1039 12.2608 17.867 12.4212L17.6395 12.5753L17.9046 12.7849C18.1535 12.9815 18.4656 13.3186 18.7883 13.7394C18.957 13.9593 19.1596 14.3576 19.2973 14.7403L19.399 15.0227L19.5158 14.9486C20.0304 14.6221 20.7422 13.9527 21.0668 13.4898C21.3771 13.0473 21.8124 11.9502 21.943 11.2814C22.0269 10.8518 22.0163 9.81015 21.9232 9.33605C21.7225 8.31365 21.2415 7.2963 20.6451 6.63232C20.3262 6.27736 19.4653 5.62829 19.0057 5.39649C18.2365 5.00839 17.0947 4.76705 16.3194 4.82873ZM16.0379 8.58733C15.7967 8.70737 15.6973 8.88798 15.7269 9.15202C15.7389 9.25937 15.7751 9.37905 15.8072 9.41805C15.869 9.49288 16.1167 9.62959 16.2858 9.68218L16.3866 9.71352V9.10258C16.3866 8.40952 16.3887 8.41267 16.0379 8.58733ZM16.8791 11.3479C16.8791 11.7472 16.8954 11.9588 16.9264 11.9588C17.0936 11.9588 17.3861 11.8418 17.4623 11.7445C17.573 11.6029 17.5835 11.2155 17.4805 11.0677C17.4119 10.9692 17.1803 10.8307 16.9798 10.7683L16.8791 10.737V11.3479ZM11.4503 12.7237C11.4213 13.3493 11.3212 13.604 10.9393 14.0249C10.7063 14.2816 10.5748 14.3813 10.2663 14.535C9.89565 14.7197 9.86856 14.7261 9.45222 14.7262C8.89325 14.7265 8.53758 14.6099 8.18527 14.3112C7.69183 13.8928 7.47675 13.5366 7.39007 12.9945C7.33881 12.6738 7.3264 12.1389 7.37019 12.1389C7.38537 12.1389 7.49112 12.2075 7.60524 12.2912C8.77469 13.1497 10.0102 13.1467 11.193 12.2825C11.4864 12.0682 11.4812 12.0592 11.4503 12.7237ZM2.94407 12.6358C1.7321 12.841 0.676461 13.7093 0.24835 14.8532C0.0126705 15.4829 0 15.6871 0 18.856V21.779L0.109915 21.8895L0.219786 22H1.56501H2.91018V20.0048C2.91018 18.059 2.91246 18.0071 3.00147 17.911C3.09137 17.8139 3.27485 17.7832 3.42304 17.8404C3.61673 17.9151 3.62653 18.0221 3.62653 20.0616V22H9.40212H15.1777V20.0249C15.1777 18.0948 15.1798 18.047 15.2705 17.9311C15.3378 17.845 15.4046 17.8124 15.5135 17.8124C15.6224 17.8124 15.6892 17.845 15.7565 17.9311C15.8472 18.047 15.8493 18.0948 15.8493 20.0249V22H17.2099C18.4829 22 18.5773 21.9945 18.6762 21.9139L18.7819 21.8278V18.7507C18.7819 15.2277 18.7899 15.3147 18.3928 14.5171C18.2097 14.1492 18.1012 13.9981 17.8057 13.699C17.3612 13.249 17.0537 13.0354 16.591 12.8552C15.9826 12.6182 15.7187 12.5892 14.1664 12.5892H12.76V12.7836C12.76 13.6556 12.1722 14.8411 11.4711 15.3829C11.2917 15.5216 11.0499 15.6682 10.9339 15.7088C10.8179 15.7494 10.5718 15.8382 10.3871 15.9062C10.0777 16.02 9.99849 16.0298 9.37974 16.0312C8.66168 16.0328 8.69786 16.0404 7.85158 15.708C7.40646 15.5331 6.90501 15.1044 6.56895 14.6114C6.26911 14.1715 5.99945 13.2899 5.99945 12.7494V12.5892L4.57794 12.5945C3.79609 12.5974 3.06088 12.616 2.94407 12.6358Z" fill="#3D3D3D"/>
</svg>
